<svg width="64" height="74" viewBox="0 0 64 74" fill="none" xmlns="http://www.w3.org/2000/svg">
<path d="M32.0012 74C23.5367 74 16.9067 58.3188 16.9067 38.216C16.9067 18.1131 23.5367 2.42407 32.0012 2.42407C40.4658 2.42407 47.0957 18.1447 47.0957 38.216C47.0957 47.5489 45.6469 56.3765 43.0249 62.9853C42.8528 63.3463 42.5506 63.6284 42.1791 63.7745C41.8077 63.9206 41.3948 63.9199 41.0238 63.7725C40.6529 63.6252 40.3516 63.3421 40.1808 62.9805C40.0099 62.6189 39.9824 62.2058 40.1036 61.8246C42.5918 55.5079 43.954 47.1541 43.954 38.216C43.954 22.7717 39.0485 5.56662 32.0012 5.56662C24.954 5.56662 20.0406 22.7875 20.0406 38.216C20.0406 53.6445 24.954 70.8575 32.0012 70.8575C34.2217 70.8575 36.0879 68.8993 37.2611 67.2648C37.37 67.0719 37.5182 66.9042 37.6961 66.7725C37.874 66.6408 38.0775 66.5482 38.2934 66.5006C38.5093 66.453 38.7328 66.4515 38.9494 66.4963C39.1659 66.541 39.3706 66.631 39.5501 66.7603C39.7297 66.8897 39.8801 67.0555 39.9915 67.2469C40.103 67.4384 40.173 67.6513 40.197 67.8716C40.2209 68.092 40.1984 68.315 40.1307 68.5261C40.0631 68.7371 39.9519 68.9316 39.8044 69.0967C37.5131 72.3103 34.8123 74 32.0012 74Z" fill="#FEC200"/>
<g opacity="0.7">
<path opacity="0.7" d="M52.4344 60.3244C45.0171 60.3244 34.8754 57.245 24.5604 51.3784C16.458 46.7751 9.53677 41.1769 5.0722 35.5866C0.292672 29.6332 -1.17189 24.2956 0.946217 20.5372C1.04962 20.3572 1.18735 20.1995 1.35153 20.073C1.51572 19.9465 1.70315 19.8536 1.90313 19.7997C2.1031 19.7458 2.31171 19.732 2.51702 19.7589C2.72234 19.7859 2.92036 19.8531 3.09976 19.9568C3.27917 20.0605 3.43645 20.1986 3.56262 20.3632C3.6888 20.5279 3.78141 20.7158 3.83515 20.9164C3.88889 21.1169 3.90271 21.3261 3.87584 21.532C3.84896 21.7379 3.7819 21.9364 3.6785 22.1163C2.2533 24.6272 3.6785 28.8278 7.51315 33.6364C11.7415 38.9029 18.3399 44.2326 26.1037 48.6385C39.4896 56.2501 56.8124 60.4823 60.3242 54.2998C61.7415 51.7889 60.3242 47.5883 56.4896 42.7798C52.2612 37.5132 45.6549 32.1835 37.899 27.7776C26.4423 21.2715 14.2769 17.9868 7.60764 19.6054C7.21469 19.6707 6.81167 19.5843 6.47975 19.3635C6.14783 19.1427 5.91167 18.804 5.81883 18.4156C5.72599 18.0272 5.78337 17.6179 5.97941 17.2702C6.17545 16.9226 6.49559 16.6623 6.87535 16.5418C14.3714 14.7258 27.1588 18.0579 39.4423 25.0457C47.5368 29.649 54.4581 35.2471 58.9305 40.8374C63.71 46.7909 65.1746 52.1364 63.0486 55.8869C61.3478 58.8715 57.5368 60.3244 52.4344 60.3244Z" fill="#253237"/>
</g>
<path d="M11.5683 60.3244C6.46591 60.3244 2.64701 58.8716 0.946218 55.8632C-1.17189 52.1127 0.292672 46.7672 5.0722 40.8137C9.53677 35.2866 16.458 29.649 24.5604 25.022C41.9699 15.1206 58.8754 13.1782 63.0486 20.5372C64.3636 22.9059 64.3085 25.8748 62.8833 29.2226C62.7002 29.5752 62.3913 29.8455 62.0182 29.9797C61.6451 30.1139 61.2352 30.1021 60.8704 29.9466C60.5056 29.7911 60.2127 29.5034 60.0502 29.1409C59.8876 28.7784 59.8674 28.3677 59.9935 27.9909C60.71 26.3012 61.3478 23.9087 60.3242 22.0848C56.8439 15.9339 39.4974 20.1345 26.1037 27.7461C18.3399 32.1599 11.7415 37.4896 7.51315 42.7482C3.65488 47.5568 2.2533 51.7574 3.6785 54.2683C7.15882 60.4191 24.5053 56.2185 37.899 48.6069C45.8124 44.1458 52.4896 38.7213 56.6943 33.3679C56.8149 33.1866 56.9717 33.0322 57.1547 32.9145C57.3377 32.7969 57.5431 32.7185 57.7578 32.6843C57.9725 32.6502 58.192 32.661 58.4024 32.7161C58.6127 32.7711 58.8094 32.8693 58.9801 33.0043C59.1508 33.1394 59.2917 33.3084 59.394 33.5008C59.4964 33.6932 59.5578 33.9047 59.5746 34.122C59.5914 34.3394 59.5632 34.5579 59.4916 34.7638C59.42 34.9696 59.3067 35.1584 59.1589 35.3182C54.6943 40.9795 47.6943 46.6883 39.4738 51.3784C29.1352 57.245 18.9856 60.3244 11.5683 60.3244Z" fill="#9FCC29"/>
<path d="M59.1273 37.2211C61.3278 37.2211 63.1116 35.4323 63.1116 33.2258C63.1116 31.0192 61.3278 29.2305 59.1273 29.2305C56.9269 29.2305 55.1431 31.0192 55.1431 33.2258C55.1431 35.4323 56.9269 37.2211 59.1273 37.2211Z" fill="url(#paint0_linear)"/>
<path d="M13.8282 39.1108C14.3355 36.9637 13.011 34.8107 10.8699 34.302C8.72873 33.7932 6.5817 35.1214 6.07437 37.2685C5.56704 39.4156 6.89151 41.5685 9.03267 42.0773C11.1738 42.586 13.3209 41.2579 13.8282 39.1108Z" fill="url(#paint1_linear)"/>
<path d="M32.0013 7.9906C34.2018 7.9906 35.9856 6.20185 35.9856 3.9953C35.9856 1.78876 34.2018 0 32.0013 0C29.8009 0 28.0171 1.78876 28.0171 3.9953C28.0171 6.20185 29.8009 7.9906 32.0013 7.9906Z" fill="url(#paint2_linear)"/>
<path d="M25.7573 41.8955C25.9093 41.9073 26.062 41.9073 26.214 41.8955C26.7258 41.8244 27.0014 41.9508 26.9463 42.5429C26.8911 43.1351 27.4345 43.3325 27.9463 43.3325C28.7967 43.4036 29.6471 43.3325 30.5053 43.4431C31.2061 43.5457 31.7652 44.1458 32.3321 44.1853C32.899 44.2248 33.4423 43.5457 34.1431 43.4431C34.8439 43.3404 35.7179 43.3878 36.5683 43.3404C37.5053 43.2852 37.6628 43.1667 37.7888 42.2508C37.8282 41.9666 37.9148 41.8718 38.1904 41.8797C38.7179 41.8797 39.2455 41.8797 39.7652 41.8797C40.0093 41.8797 40.1353 41.935 40.1353 42.2034C40.1826 42.8622 40.1187 43.5242 39.9463 44.1616C39.751 44.7038 39.3902 45.1703 38.9152 45.495C38.4402 45.8196 37.8752 45.9857 37.3006 45.9697C36.466 46.0408 35.6392 46.0645 34.8045 46.0882C34.4307 46.0719 34.0596 46.159 33.7318 46.34C33.4041 46.5211 33.1323 46.7891 32.9463 47.1146C32.5998 47.6832 32.0959 47.6753 31.7494 47.1146C31.5655 46.7948 31.2984 46.5311 30.9767 46.3517C30.6549 46.1723 30.2906 46.0839 29.9226 46.0961C28.9567 46.0977 27.9917 46.0397 27.0329 45.9224C25.3478 45.6539 24.5919 44.7064 24.5368 42.9851C24.5368 42.8746 24.5368 42.7561 24.5368 42.6535C24.4581 42.0771 24.6392 41.7771 25.2691 41.8639C25.4307 41.8876 25.594 41.8982 25.7573 41.8955Z" fill="#FFE161"/>
<path d="M35.4346 41.8954C35.2377 41.8954 34.8833 41.9981 34.9384 41.5954C34.9936 41.1927 34.647 40.8058 35.2298 40.6795C35.5843 40.6005 35.6552 40.3636 35.6788 40.0557C35.5907 39.332 35.7429 38.5994 36.112 37.9712C36.1828 37.8843 36.112 37.8212 36.112 37.7501C35.7867 37.1493 35.6495 36.4642 35.7182 35.784C35.7182 35.5235 35.7182 35.2076 35.4031 35.1366C34.6707 34.9787 35.0408 34.4259 34.9936 34.0312C34.9936 33.9127 35.1117 33.8732 35.2298 33.8495C35.6094 33.7648 36.007 33.8299 36.3399 34.0314C36.6729 34.2328 36.9156 34.5551 37.0177 34.9313C37.0929 35.295 37.1324 35.6653 37.1358 36.0367C37.1358 36.6368 37.1358 37.2211 37.7344 37.6159C37.9707 37.7659 37.9392 38.0422 37.6793 38.2081C37.4835 38.3285 37.3242 38.5002 37.2187 38.7048C37.1132 38.9094 37.0655 39.139 37.0807 39.3688C37.0848 39.7647 37.0611 40.1605 37.0098 40.5531C37.005 40.7487 36.959 40.9411 36.8749 41.1176C36.7908 41.2942 36.6705 41.4509 36.5218 41.5776C36.3731 41.7043 36.1994 41.7982 36.0121 41.8529C35.8247 41.9077 35.6279 41.9222 35.4346 41.8954Z" fill="#FFE161"/>
<path d="M29.8053 34.3628C29.8053 34.7576 29.8683 35.0419 29.4273 35.1524C28.9862 35.2629 29.0728 35.6104 29.0571 35.942C29.0177 36.5895 29.1437 37.2685 28.6633 37.8212C28.6478 37.836 28.6355 37.8537 28.627 37.8734C28.6186 37.8931 28.6143 37.9143 28.6143 37.9357C28.6143 37.9571 28.6186 37.9783 28.627 37.998C28.6355 38.0177 28.6478 38.0354 28.6633 38.0502C29.0084 38.6145 29.1449 39.2824 29.0492 39.9373C29.0492 40.3242 29.1043 40.64 29.6005 40.7743C30.0967 40.9085 29.7502 41.3664 29.8053 41.6823C29.8604 41.9981 29.6084 41.9507 29.4115 41.9586C29.2047 41.9969 28.9921 41.989 28.7887 41.9356C28.5853 41.8823 28.396 41.7847 28.2345 41.6498C28.0729 41.5149 27.9428 41.3461 27.8536 41.1552C27.7644 40.9643 27.7182 40.7561 27.7182 40.5453C27.6709 40.1347 27.6552 39.7557 27.6394 39.3056C27.6527 39.1069 27.6148 38.9081 27.5292 38.7283C27.4437 38.5486 27.3135 38.3939 27.1511 38.2792C26.8282 38.066 26.7967 37.8291 27.1511 37.6159C27.3234 37.499 27.4625 37.3394 27.5549 37.1526C27.6474 36.9658 27.6901 36.7582 27.6788 36.55C27.6866 36.0881 27.7181 35.6269 27.7733 35.1682C27.7974 34.9651 27.862 34.7689 27.9632 34.5913C28.0645 34.4138 28.2004 34.2585 28.3629 34.1347C28.5253 34.0109 28.7109 33.9212 28.9087 33.8708C29.1064 33.8205 29.3122 33.8106 29.5139 33.8417C29.9235 33.9049 29.7738 34.2207 29.8053 34.3628Z" fill="#FFE161"/>
<path d="M30.4736 33.8417C30.9539 33.8417 31.3634 33.8417 31.765 33.8417C32.0406 33.8417 32.0957 34.0075 32.1429 34.197L34.1508 41.4849C34.2295 41.7375 34.2059 41.9191 33.8752 41.8797H33.8043C32.7099 41.9349 32.702 41.9349 32.4106 40.8848C31.7729 38.5792 31.1351 36.2578 30.4736 33.8417Z" fill="#FFE161"/>
<path d="M32.5838 33.3995C32.2805 33.4004 31.9803 33.3386 31.7019 33.2179C31.1556 32.986 30.7207 32.5498 30.4893 32.0019C30.3698 31.7225 30.3081 31.4217 30.3081 31.1176C30.3081 30.8136 30.3698 30.5127 30.4893 30.2333C30.6045 29.9622 30.7702 29.7156 30.9775 29.5069C31.1836 29.2964 31.43 29.1298 31.7019 29.0173C31.9791 28.8929 32.2802 28.8309 32.5838 28.8357C32.8874 28.8319 33.1882 28.8939 33.4657 29.0173C33.7376 29.1298 33.9841 29.2964 34.1901 29.5069C34.3975 29.7156 34.5632 29.9622 34.6783 30.2333C34.7979 30.5127 34.8596 30.8136 34.8596 31.1176C34.8596 31.4217 34.7979 31.7225 34.6783 32.0019C34.447 32.5498 34.0121 32.986 33.4657 33.2179C33.1871 33.3378 32.887 33.3996 32.5838 33.3995ZM32.5838 29.9727C32.4292 29.9722 32.2763 30.0044 32.135 30.0675C32.0001 30.1256 31.8772 30.2086 31.7728 30.3122C31.6546 30.4138 31.5604 30.5406 31.4972 30.6833C31.4336 30.8219 31.4013 30.9729 31.4027 31.1255C31.4022 31.2805 31.4344 31.4339 31.4972 31.5756C31.6129 31.8495 31.8303 32.0676 32.1035 32.1836C32.2448 32.2466 32.3977 32.2789 32.5523 32.2783C32.8481 32.2688 33.1294 32.1475 33.3397 31.9388C33.4431 31.8341 33.5259 31.7109 33.5838 31.5756C33.6467 31.4339 33.6789 31.2805 33.6783 31.1255C33.6797 30.9729 33.6475 30.8219 33.5838 30.6833C33.4682 30.4094 33.2507 30.1913 32.9775 30.0754C32.8542 30.0159 32.7205 29.981 32.5838 29.9727Z" fill="#FFE161"/>
<defs>
<linearGradient id="paint0_linear" x1="54.6785" y1="28.3145" x2="67.56" y2="42.4521" gradientUnits="userSpaceOnUse">
<stop stop-color="#14434F"/>
<stop offset="0.21" stop-color="#154552"/>
<stop offset="0.35" stop-color="#1A4D5A"/>
<stop offset="0.46" stop-color="#215969"/>
<stop offset="0.56" stop-color="#2C6B7E"/>
<stop offset="0.66" stop-color="#398299"/>
<stop offset="0.75" stop-color="#4A9EBB"/>
<stop offset="0.83" stop-color="#5DBFE1"/>
<stop offset="0.84" stop-color="#61C5E9"/>
</linearGradient>
<linearGradient id="paint1_linear" x1="7.07252" y1="33.1889" x2="15.6435" y2="48.0599" gradientUnits="userSpaceOnUse">
<stop stop-color="#14434F"/>
<stop offset="0.2" stop-color="#154552"/>
<stop offset="0.34" stop-color="#1A4D5B"/>
<stop offset="0.45" stop-color="#225A6A"/>
<stop offset="0.56" stop-color="#2C6C80"/>
<stop offset="0.66" stop-color="#3A849B"/>
<stop offset="0.75" stop-color="#4BA1BE"/>
<stop offset="0.84" stop-color="#61C5E9"/>
</linearGradient>
<linearGradient id="paint2_linear" x1="28.5368" y1="-1.30282" x2="36.2358" y2="10.403" gradientUnits="userSpaceOnUse">
<stop stop-color="#14434F"/>
<stop offset="0.27" stop-color="#154551"/>
<stop offset="0.43" stop-color="#194C5A"/>
<stop offset="0.56" stop-color="#205868"/>
<stop offset="0.68" stop-color="#2B697C"/>
<stop offset="0.78" stop-color="#387F96"/>
<stop offset="0.88" stop-color="#489AB6"/>
<stop offset="0.97" stop-color="#5ABADB"/>
<stop offset="1" stop-color="#61C5E9"/>
</linearGradient>
</defs>
</svg>
