<svg width="24" height="33" viewBox="0 0 24 33" fill="none" xmlns="http://www.w3.org/2000/svg">
<path d="M22.7831 21.532C22.2568 26.6861 18.4398 31.8403 11.7343 31.8403C0.35997 31.8403 -1.96496 19.5688 5.38218 13.2853C11.2779 8.24285 11.8316 7.57924 11.4363 1.33844C11.4272 1.19489 11.6016 1.11503 11.7001 1.22002C15.4362 5.20441 16.3629 9.30716 14.4802 18.1682C14.4552 18.2859 14.5672 18.3888 14.6789 18.3435C17.4301 17.2291 19.5594 13.5675 19.7551 10.6261C19.7648 10.481 19.9468 10.4192 20.0303 10.5384C21.6249 12.814 23.1523 17.917 22.7831 21.532Z" fill="#CB410B"/>
<path fill-rule="evenodd" clip-rule="evenodd" d="M10.2773 1.41163C10.2046 0.263138 11.6498 -0.530217 12.5477 0.427349C14.5355 2.54723 15.8306 4.76654 16.3409 7.66451C16.7472 9.97233 16.6447 12.6504 16.0845 15.9683C16.4839 15.558 16.8583 15.0798 17.1937 14.5501C18.0088 13.2629 18.5134 11.7963 18.5963 10.5492C18.635 9.9674 19.0325 9.53503 19.5036 9.38099C19.9915 9.22149 20.6144 9.34927 20.9817 9.87348C21.8858 11.1637 22.7111 13.1507 23.2654 15.2353C23.8214 17.3261 24.1421 19.6546 23.9383 21.6496C23.3672 27.2424 19.178 33 11.7342 33C5.55611 33 1.65289 29.6142 0.419658 25.2329C-0.791804 20.929 0.622391 15.8291 4.62673 12.4045C7.64247 9.8252 9.04095 8.55647 9.73939 7.22356C10.3956 5.97125 10.4767 4.56019 10.2773 1.41164L11.4363 1.33843L10.2773 1.41163ZM12.6902 4.39182C12.6478 5.89213 12.4137 7.12251 11.7972 8.29891C10.8437 10.1186 9.01751 11.7029 6.1375 14.1661L6.13748 14.1661C2.79468 17.025 1.69777 21.2026 2.65556 24.6053C3.59159 27.9307 6.53798 30.6806 11.7342 30.6806C17.7015 30.6806 21.1462 26.1298 21.6278 21.4143C21.7932 19.7944 21.5347 17.7639 21.0207 15.8306C20.8038 15.0151 20.5481 14.2415 20.2732 13.5455C19.9815 14.3245 19.6027 15.0855 19.1567 15.7897C18.1748 17.3404 16.7871 18.741 15.1153 19.4182C14.0382 19.8545 13.1494 18.8443 13.3442 17.9275C14.2743 13.5498 14.4785 10.4804 14.0534 8.0662C13.8125 6.69796 13.364 5.51066 12.6902 4.39182Z" fill="#CB410B"/>
</svg>
