<svg width="254" height="279" viewBox="0 0 254 279" fill="none" xmlns="http://www.w3.org/2000/svg">
<g clip-path="url(#clip0)">
<path opacity="0.15" d="M61.3099 240.65C61.1399 251.46 81.0699 285.36 87.5899 277.32C94.1099 269.28 102.41 249.13 113.93 248.67C125.45 248.21 135.43 244.97 133.68 265.5C131.93 286.03 159.77 279.73 161.79 259.92C163.81 240.11 188.92 219.42 204.73 218.15C219.37 216.97 237.11 200.86 239.67 198.47H39.6699L66.5499 223.61C66.5399 223.61 61.4699 229.84 61.3099 240.65Z" fill="black"/>
<path d="M64.7089 165.56L204.729 159.45L196.069 191.1L114.549 225.29L62.6289 202.14L64.7089 165.56Z" fill="#031162"/>
<path d="M79.6504 152.17L80.8604 177.05H187.85L190.55 124.95L79.6504 152.17Z" fill="#FF654D"/>
<path d="M114.049 55.5295C114.049 55.5295 68.3588 64.7895 59.9588 71.6895C51.5588 78.5895 43.2288 163.23 46.0688 167.13C48.9088 171.04 219.889 175.03 223.829 167.71C227.769 160.39 205.809 72.7295 199.899 68.3395C193.999 63.9395 128.529 54.5395 114.049 55.5295Z" fill="#FF654D"/>
<path d="M187.859 82.5195C187.859 82.5195 189.269 128.23 187.859 144.57" stroke="#000D41" stroke-width="1.0062" stroke-miterlimit="10" stroke-linecap="round"/>
<path d="M73.1895 84.1196C73.1895 84.1196 77.1895 123.56 74.9795 142.92" stroke="#000D41" stroke-width="1.0062" stroke-miterlimit="10" stroke-linecap="round"/>
<path d="M90.849 163.61L88.689 154.89C88.539 154.29 88.889 153.68 89.469 153.5L92.419 152.58C92.829 152.45 93.139 152.11 93.219 151.68L93.719 148.97C93.819 148.42 94.299 148.02 94.859 148.02H97.279C97.679 148.02 98.049 147.81 98.269 147.47L99.739 145.11C100.069 144.57 100.779 144.4 101.319 144.73L104.119 146.39C104.479 146.6 104.919 146.61 105.279 146.4L106.919 145.48C107.449 145.18 108.119 145.35 108.459 145.85L114.339 154.74C114.699 155.29 114.539 156.03 113.979 156.37L112.679 157.17C112.199 157.46 111.579 157.37 111.199 156.95C110.429 156.08 108.999 156.75 109.179 157.9L109.239 158.29C109.319 158.79 109.059 159.29 108.609 159.51L97.069 165.2C96.989 165.24 96.919 165.27 96.829 165.29C96.109 165.47 92.559 166.21 90.999 163.97C90.939 163.87 90.879 163.74 90.849 163.61Z" fill="#FEBAC7"/>
<path d="M172.129 163.61L174.289 154.89C174.439 154.29 174.089 153.68 173.509 153.5L170.559 152.58C170.149 152.45 169.839 152.11 169.759 151.68L169.259 148.97C169.159 148.42 168.679 148.02 168.119 148.02H165.699C165.299 148.02 164.929 147.81 164.709 147.47L163.239 145.11C162.909 144.57 162.199 144.4 161.659 144.73L158.859 146.39C158.499 146.6 158.059 146.61 157.699 146.4L156.059 145.48C155.529 145.18 154.859 145.35 154.519 145.85L148.639 154.74C148.279 155.29 148.439 156.03 148.999 156.37L150.299 157.17C150.779 157.46 151.399 157.37 151.779 156.95C152.549 156.08 153.979 156.75 153.799 157.9L153.739 158.29C153.659 158.79 153.919 159.29 154.369 159.51L165.909 165.2C165.989 165.24 166.059 165.27 166.149 165.29C166.869 165.47 170.419 166.21 171.979 163.97C172.049 163.87 172.099 163.74 172.129 163.61Z" fill="#FEBAC7"/>
<path d="M61.3086 147.38L88.6586 151.41" stroke="#000D41" stroke-width="1.0062" stroke-miterlimit="10" stroke-linecap="round"/>
<path d="M176.729 152.86L198.969 148.89" stroke="#000D41" stroke-width="1.0062" stroke-miterlimit="10" stroke-linecap="round"/>
<path d="M106.749 35.9397C106.749 35.9397 102.909 68.9397 126.409 68.9397C147.789 68.9397 147.039 40.5497 147.039 40.5497C147.039 40.5497 149.179 22.9797 132.599 20.9897C116.039 18.9997 105.749 30.0097 106.749 35.9397Z" fill="#FEBAC7"/>
<path d="M141.359 25.1098C141.359 25.1098 136.139 35.3398 141.429 40.5398C144.809 43.8598 146.299 48.6398 145.219 53.2498L145.159 53.4998C145.159 53.4998 154.029 46.4698 155.679 32.2198C157.329 17.9698 150.859 8.99977 145.379 10.0098C145.379 10.0098 143.199 -0.940226 129.289 0.0797743C115.379 1.09977 103.899 -0.0302258 98.8594 10.9998C93.8194 22.0298 102.599 31.6798 102.599 31.6798C102.599 31.6798 103.289 43.3498 108.029 53.4998L106.179 39.8698C106.189 39.8698 121.469 19.3398 141.359 25.1098Z" fill="#031162"/>
<path d="M146.78 42.3095L145.16 53.4795C145.16 53.4795 153.06 49.2895 152.93 43.5995C152.89 41.6995 152.23 40.6595 151.37 40.0995C149.54 38.9295 147.1 40.1595 146.78 42.3095Z" fill="#FEBAC7"/>
<path d="M106.799 39.0999L108.169 53.4899C108.169 53.4899 100.579 49.0899 100.709 43.3999C100.829 37.7099 106.799 39.0999 106.799 39.0999Z" fill="#FEBAC7"/>
<path d="M168.979 116.21H89.8293C86.3493 116.21 83.5293 119.03 83.5293 122.51V174.74C83.5293 178.22 86.3493 181.04 89.8293 181.04H168.979C172.459 181.04 175.279 178.22 175.279 174.74V122.51C175.279 119.03 172.459 116.21 168.979 116.21Z" fill="#E6E7E8"/>
<path d="M173.749 184.09H85.0593C84.2193 184.09 83.5293 183.41 83.5293 182.56C83.5293 181.72 84.2093 181.03 85.0593 181.03H173.749C174.589 181.03 175.279 181.71 175.279 182.56C175.279 183.41 174.589 184.09 173.749 184.09Z" fill="#746980"/>
<path d="M160.55 182.45C160.55 182.81 160.26 183.1 159.9 183.1C159.54 183.1 159.25 182.81 159.25 182.45C159.25 182.09 159.54 181.8 159.9 181.8C160.26 181.8 160.55 182.09 160.55 182.45Z" fill="#9E8FAE"/>
<path d="M157.68 181.8H152.43V183.1H157.68V181.8Z" fill="#9E8FAE"/>
<path d="M35.2594 144.36L156.789 218.15C147.009 226.09 141.559 236.47 139.369 248.68L12.7695 184.92C0.0294504 178.5 -3.96055 162.21 4.36945 150.63C11.4594 140.81 24.8994 138.07 35.2594 144.36Z" fill="#1957C2"/>
<path d="M121.64 229.35L113.92 235.87L129.19 243.56C133.76 239.63 142.66 232.04 143.99 231.54C145.79 230.84 121.64 229.35 121.64 229.35Z" fill="#031162"/>
<path d="M156.789 218.15L177.029 229.56C178.539 230.41 179.069 232.33 178.199 233.83C172.859 243.14 155.049 273.24 145.639 277.33C145.639 277.33 138.039 274.89 140.949 264.96C143.859 255.03 139.939 245.84 139.939 245.84C139.939 245.84 140.609 222.67 156.789 218.15Z" fill="#031162"/>
<path d="M145.639 277.32C155.049 273.23 172.859 243.13 178.199 233.82C178.879 232.63 178.689 231.19 177.839 230.22C174.229 232.36 158.569 243.24 145.639 277.32Z" fill="#2C4B80"/>
<path d="M220.58 152.69L92.1797 213.74C101.11 222.64 105.47 233.52 106.4 245.88L238.82 195.33C252.15 190.24 257.77 174.44 250.66 162.08C244.62 151.58 231.52 147.49 220.58 152.69Z" fill="#1957C2"/>
<path d="M92.1697 213.74L70.8697 223.03C69.2797 223.72 68.5597 225.58 69.2697 227.16C73.6297 236.97 88.2897 268.72 97.2397 273.74C97.2397 273.74 105.05 272.08 103.16 261.91C101.28 251.73 106.1 242.99 106.1 242.99C106.1 242.99 107.81 219.88 92.1697 213.74Z" fill="#031162"/>
<path d="M97.2392 273.739C88.2892 268.709 73.6392 236.959 69.2692 227.159C68.7092 225.909 69.0492 224.489 69.9892 223.609C73.3792 226.099 87.8492 238.519 97.2392 273.739Z" fill="#2C4B80"/>
<path d="M46.2898 145.35C45.3798 157.15 45.1998 165.94 46.0698 167.13C46.8698 168.23 60.9598 169.33 80.8898 170.19L46.2898 145.35Z" fill="#FF654D"/>
<path d="M174.52 171.7C201.57 171.39 222.49 170.21 223.84 167.7C224.81 165.91 224.22 159.3 222.69 150.27L174.52 171.7Z" fill="#FF654D"/>
<path d="M97.0898 211.4L120.12 200.45" stroke="#000D41" stroke-width="1.0062" stroke-miterlimit="10" stroke-linecap="round"/>
<path d="M129.028 171C123.995 171 120.053 161.676 120.053 149.723C120.053 137.77 123.995 128.441 129.028 128.441C134.061 128.441 138.003 137.789 138.003 149.723C138.003 155.272 137.141 160.521 135.582 164.451C135.48 164.665 135.3 164.833 135.08 164.92C134.859 165.007 134.613 165.007 134.393 164.919C134.172 164.831 133.993 164.663 133.891 164.448C133.79 164.233 133.773 163.987 133.845 163.761C135.325 160.005 136.135 155.038 136.135 149.723C136.135 140.54 133.218 130.31 129.028 130.31C124.838 130.31 121.916 140.549 121.916 149.723C121.916 158.897 124.838 169.132 129.028 169.132C130.348 169.132 131.458 167.967 132.155 166.995C132.22 166.881 132.308 166.781 132.414 166.703C132.52 166.624 132.641 166.569 132.769 166.541C132.898 166.513 133.03 166.512 133.159 166.538C133.288 166.565 133.41 166.619 133.516 166.695C133.623 166.772 133.713 166.871 133.779 166.985C133.845 167.099 133.887 167.225 133.901 167.356C133.915 167.487 133.902 167.62 133.862 167.745C133.821 167.871 133.755 167.986 133.668 168.085C132.305 169.995 130.699 171 129.028 171Z" fill="#FEC200"/>
<g opacity="0.7">
<path opacity="0.7" d="M141.177 162.869C136.767 162.869 130.737 161.038 124.603 157.549C119.786 154.812 115.671 151.484 113.016 148.16C110.174 144.62 109.303 141.446 110.563 139.211C110.624 139.104 110.706 139.011 110.804 138.935C110.901 138.86 111.013 138.805 111.132 138.773C111.25 138.741 111.375 138.733 111.497 138.749C111.619 138.765 111.736 138.805 111.843 138.866C111.95 138.928 112.043 139.01 112.118 139.108C112.193 139.206 112.248 139.318 112.28 139.437C112.312 139.556 112.321 139.68 112.305 139.803C112.289 139.925 112.249 140.043 112.187 140.15C111.34 141.643 112.187 144.141 114.467 147C116.981 150.131 120.905 153.3 125.521 155.92C133.48 160.446 143.78 162.962 145.868 159.286C146.711 157.793 145.868 155.296 143.588 152.437C141.074 149.305 137.146 146.136 132.535 143.516C125.722 139.648 118.489 137.695 114.523 138.657C114.29 138.696 114.05 138.645 113.853 138.513C113.655 138.382 113.515 138.181 113.46 137.95C113.405 137.719 113.439 137.476 113.555 137.269C113.672 137.062 113.862 136.907 114.088 136.836C118.545 135.756 126.148 137.737 133.452 141.892C138.265 144.629 142.38 147.958 145.04 151.282C147.882 154.822 148.752 158 147.488 160.23C146.477 162.005 144.211 162.869 141.177 162.869Z" fill="#253237"/>
</g>
<path d="M116.878 162.868C113.845 162.868 111.574 162.004 110.563 160.216C109.303 157.986 110.174 154.807 113.016 151.267C115.671 147.981 119.786 144.629 124.603 141.878C134.955 135.99 145.007 134.835 147.488 139.211C148.27 140.619 148.237 142.385 147.39 144.375C147.281 144.585 147.098 144.746 146.876 144.826C146.654 144.905 146.41 144.898 146.193 144.806C145.976 144.713 145.802 144.542 145.706 144.327C145.609 144.111 145.597 143.867 145.672 143.643C146.098 142.638 146.477 141.216 145.868 140.131C143.799 136.474 133.485 138.972 125.521 143.497C120.905 146.122 116.981 149.291 114.467 152.418C112.173 155.277 111.34 157.774 112.187 159.267C114.257 162.925 124.571 160.427 132.535 155.901C137.24 153.249 141.21 150.023 143.71 146.84C143.782 146.732 143.875 146.64 143.984 146.571C144.093 146.501 144.215 146.454 144.342 146.434C144.47 146.413 144.601 146.42 144.726 146.453C144.851 146.485 144.968 146.544 145.069 146.624C145.171 146.704 145.255 146.805 145.315 146.919C145.376 147.033 145.413 147.159 145.423 147.288C145.433 147.418 145.416 147.548 145.373 147.67C145.331 147.792 145.263 147.905 145.176 148C142.521 151.366 138.359 154.76 133.471 157.549C127.324 161.037 121.289 162.868 116.878 162.868Z" fill="#9FCC29"/>
<path d="M145.156 149.132C146.464 149.132 147.525 148.068 147.525 146.756C147.525 145.444 146.464 144.38 145.156 144.38C143.848 144.38 142.787 145.444 142.787 146.756C142.787 148.068 143.848 149.132 145.156 149.132Z" fill="url(#paint0_linear)"/>
<path d="M118.223 150.255C118.525 148.978 117.737 147.698 116.464 147.396C115.191 147.093 113.914 147.883 113.613 149.16C113.311 150.436 114.098 151.716 115.372 152.019C116.645 152.321 117.921 151.532 118.223 150.255Z" fill="url(#paint1_linear)"/>
<path d="M129.027 131.751C130.336 131.751 131.396 130.688 131.396 129.376C131.396 128.064 130.336 127 129.027 127C127.719 127 126.658 128.064 126.658 129.376C126.658 130.688 127.719 131.751 129.027 131.751Z" fill="url(#paint2_linear)"/>
<path d="M125.316 151.911C125.406 151.918 125.497 151.918 125.588 151.911C125.892 151.869 126.056 151.944 126.023 152.296C125.99 152.648 126.313 152.765 126.618 152.765C127.123 152.808 127.629 152.765 128.139 152.831C128.556 152.892 128.888 153.249 129.225 153.272C129.562 153.296 129.886 152.892 130.302 152.831C130.719 152.77 131.239 152.798 131.744 152.77C132.301 152.737 132.395 152.667 132.47 152.122C132.493 151.953 132.545 151.897 132.709 151.901C133.022 151.901 133.336 151.901 133.645 151.901C133.79 151.901 133.865 151.934 133.865 152.094C133.893 152.486 133.855 152.879 133.753 153.258C133.637 153.581 133.422 153.858 133.14 154.051C132.857 154.244 132.521 154.343 132.18 154.333C131.683 154.376 131.192 154.39 130.695 154.404C130.473 154.394 130.253 154.446 130.058 154.554C129.863 154.661 129.701 154.821 129.591 155.014C129.385 155.352 129.085 155.347 128.879 155.014C128.77 154.824 128.611 154.667 128.419 154.561C128.228 154.454 128.012 154.401 127.793 154.409C127.218 154.409 126.645 154.375 126.075 154.305C125.073 154.146 124.623 153.582 124.59 152.559C124.59 152.493 124.59 152.423 124.59 152.362C124.544 152.019 124.651 151.84 125.026 151.892C125.122 151.906 125.219 151.912 125.316 151.911Z" fill="#FFE161"/>
<path d="M131.069 151.911C130.951 151.911 130.741 151.972 130.774 151.733C130.806 151.493 130.6 151.263 130.947 151.188C131.158 151.141 131.2 151 131.214 150.817C131.161 150.387 131.252 149.951 131.471 149.578C131.513 149.526 131.471 149.489 131.471 149.446C131.278 149.089 131.196 148.682 131.237 148.277C131.237 148.122 131.237 147.935 131.05 147.892C130.614 147.798 130.834 147.47 130.806 147.235C130.806 147.165 130.877 147.141 130.947 147.127C131.172 147.077 131.409 147.115 131.607 147.235C131.805 147.355 131.949 147.547 132.01 147.77C132.055 147.986 132.078 148.207 132.08 148.427C132.08 148.784 132.08 149.132 132.436 149.366C132.576 149.456 132.558 149.62 132.403 149.719C132.287 149.79 132.192 149.892 132.129 150.014C132.067 150.136 132.038 150.272 132.047 150.409C132.05 150.644 132.036 150.879 132.005 151.113C132.002 151.229 131.975 151.344 131.925 151.449C131.875 151.554 131.803 151.647 131.715 151.722C131.627 151.797 131.523 151.853 131.412 151.886C131.3 151.918 131.183 151.927 131.069 151.911Z" fill="#FFE161"/>
<path d="M127.721 147.432C127.721 147.666 127.759 147.835 127.497 147.901C127.234 147.967 127.286 148.174 127.277 148.371C127.253 148.756 127.328 149.159 127.042 149.488C127.033 149.497 127.026 149.507 127.021 149.519C127.016 149.531 127.013 149.543 127.013 149.556C127.013 149.569 127.016 149.581 127.021 149.593C127.026 149.605 127.033 149.615 127.042 149.624C127.248 149.96 127.329 150.357 127.272 150.746C127.272 150.976 127.305 151.164 127.6 151.244C127.895 151.324 127.689 151.596 127.721 151.784C127.754 151.972 127.604 151.943 127.487 151.948C127.364 151.971 127.238 151.966 127.117 151.934C126.996 151.903 126.884 151.845 126.787 151.765C126.691 151.684 126.614 151.584 126.561 151.47C126.508 151.357 126.48 151.233 126.48 151.108C126.452 150.864 126.443 150.638 126.434 150.371C126.442 150.253 126.419 150.134 126.368 150.027C126.317 149.921 126.24 149.829 126.143 149.76C125.951 149.634 125.933 149.493 126.143 149.366C126.246 149.296 126.328 149.202 126.383 149.091C126.438 148.979 126.464 148.856 126.457 148.732C126.462 148.458 126.48 148.183 126.513 147.911C126.528 147.79 126.566 147.673 126.626 147.568C126.686 147.462 126.767 147.37 126.864 147.296C126.96 147.222 127.071 147.169 127.188 147.139C127.306 147.109 127.428 147.103 127.548 147.122C127.792 147.159 127.703 147.347 127.721 147.432Z" fill="#FFE161"/>
<path d="M128.119 147.122C128.405 147.122 128.648 147.122 128.887 147.122C129.051 147.122 129.084 147.221 129.112 147.333L130.306 151.667C130.352 151.817 130.338 151.925 130.142 151.901H130.1C129.449 151.934 129.444 151.934 129.271 151.31C128.892 149.939 128.512 148.559 128.119 147.122Z" fill="#FFE161"/>
<path d="M129.375 146.859C129.194 146.86 129.016 146.823 128.85 146.751C128.525 146.613 128.267 146.354 128.129 146.028C128.058 145.862 128.021 145.683 128.021 145.502C128.021 145.322 128.058 145.143 128.129 144.977C128.198 144.815 128.296 144.669 128.42 144.545C128.542 144.42 128.689 144.321 128.85 144.254C129.015 144.18 129.194 144.143 129.375 144.146C129.555 144.143 129.734 144.18 129.899 144.254C130.061 144.321 130.207 144.42 130.33 144.545C130.453 144.669 130.552 144.815 130.62 144.977C130.691 145.143 130.728 145.322 130.728 145.502C130.728 145.683 130.691 145.862 130.62 146.028C130.482 146.354 130.224 146.613 129.899 146.751C129.733 146.823 129.555 146.859 129.375 146.859ZM129.375 144.822C129.283 144.821 129.192 144.841 129.108 144.878C129.028 144.913 128.954 144.962 128.892 145.024C128.822 145.084 128.766 145.159 128.729 145.244C128.691 145.327 128.672 145.416 128.672 145.507C128.672 145.599 128.691 145.691 128.729 145.775C128.797 145.938 128.927 146.067 129.089 146.136C129.173 146.174 129.264 146.193 129.356 146.193C129.532 146.187 129.699 146.115 129.824 145.991C129.886 145.928 129.935 145.855 129.969 145.775C130.007 145.691 130.026 145.599 130.025 145.507C130.026 145.416 130.007 145.327 129.969 145.244C129.9 145.081 129.771 144.952 129.609 144.883C129.535 144.847 129.456 144.827 129.375 144.822Z" fill="#FFE161"/>
</g>
<defs>
<linearGradient id="paint0_linear" x1="142.511" y1="143.836" x2="150.17" y2="152.242" gradientUnits="userSpaceOnUse">
<stop stop-color="#14434F"/>
<stop offset="0.21" stop-color="#154552"/>
<stop offset="0.35" stop-color="#1A4D5A"/>
<stop offset="0.46" stop-color="#215969"/>
<stop offset="0.56" stop-color="#2C6B7E"/>
<stop offset="0.66" stop-color="#398299"/>
<stop offset="0.75" stop-color="#4A9EBB"/>
<stop offset="0.83" stop-color="#5DBFE1"/>
<stop offset="0.84" stop-color="#61C5E9"/>
</linearGradient>
<linearGradient id="paint1_linear" x1="114.206" y1="146.734" x2="119.302" y2="155.576" gradientUnits="userSpaceOnUse">
<stop stop-color="#14434F"/>
<stop offset="0.2" stop-color="#154552"/>
<stop offset="0.34" stop-color="#1A4D5B"/>
<stop offset="0.45" stop-color="#225A6A"/>
<stop offset="0.56" stop-color="#2C6C80"/>
<stop offset="0.66" stop-color="#3A849B"/>
<stop offset="0.75" stop-color="#4BA1BE"/>
<stop offset="0.84" stop-color="#61C5E9"/>
</linearGradient>
<linearGradient id="paint2_linear" x1="126.967" y1="126.225" x2="131.545" y2="133.186" gradientUnits="userSpaceOnUse">
<stop stop-color="#14434F"/>
<stop offset="0.27" stop-color="#154551"/>
<stop offset="0.43" stop-color="#194C5A"/>
<stop offset="0.56" stop-color="#205868"/>
<stop offset="0.68" stop-color="#2B697C"/>
<stop offset="0.78" stop-color="#387F96"/>
<stop offset="0.88" stop-color="#489AB6"/>
<stop offset="0.97" stop-color="#5ABADB"/>
<stop offset="1" stop-color="#61C5E9"/>
</linearGradient>
<clipPath id="clip0">
<rect width="253.76" height="278.54" fill="white"/>
</clipPath>
</defs>
</svg>
