<svg width="1218" height="1081" viewBox="0 0 1218 1081" fill="none" xmlns="http://www.w3.org/2000/svg">
<path opacity="0.4" d="M825.793 1022.25L698.621 948.959C689.447 943.658 690.643 934.46 701.281 928.363L783.722 880.942L944.083 973.372L861.642 1020.79C851.004 1026.86 835.048 1027.53 825.793 1022.25Z" fill="#D6D8E5"/>
<path d="M837.282 1015.55L710.057 942.36C700.909 937.058 702.079 927.86 712.716 921.763L795.157 874.342L955.572 966.667L873.131 1014.09C862.466 1020.16 846.457 1020.82 837.282 1015.55Z" fill="#B1B4C4"/>
<path d="M955.464 966.666V961.816L948.045 966.083L955.464 966.666Z" fill="#B1B4C4"/>
<path d="M703.914 933.638V928.708L711.519 931.862L703.914 933.638Z" fill="#B1B4C4"/>
<path d="M837.282 1010.72L710.057 937.508C700.909 932.207 702.079 923.036 712.716 916.939L795.157 869.438L955.572 961.736L873.131 1009.16C862.466 1015.23 846.457 1016 837.282 1010.72Z" fill="#D6D8E5"/>
<path d="M795.503 869.729L775.637 804.097L937.78 896.793L955.465 961.816L795.503 869.729Z" fill="#9EA1AF"/>
<path d="M950.758 964.519L955.464 961.868L948.471 956.302L950.758 964.519Z" fill="#9EA1AF"/>
<path d="M790.37 872.194L770.531 806.562L932.674 899.258L950.758 964.519L790.37 872.194Z" fill="#B1B4C4"/>
<path d="M1202.04 1075.16L574.428 713.973C565.625 708.91 558.471 695.418 558.471 683.596V199.679C558.471 187.989 565.598 182.608 574.428 187.671L1202.04 548.859C1210.85 553.922 1218 567.414 1218 579.21V1063.15C1218 1074.84 1210.79 1080.22 1202.04 1075.16Z" fill="#B1B4C4"/>
<path d="M1205.21 1080.14L1212.18 1076.14L1209.17 1055.6L1205.21 1080.14Z" fill="#B1B4C4"/>
<path d="M557.274 190.67L564.136 186.72L573.975 192.313C573.975 192.313 563.497 193.904 563.338 193.851C563.178 193.798 557.274 190.67 557.274 190.67Z" fill="#B1B4C4"/>
<path d="M1196.25 1078.47L568.63 717.287C559.828 712.224 552.674 698.732 552.674 686.91V202.993C552.674 191.303 559.828 185.923 568.63 190.985L1196.25 552.173C1205.05 557.236 1212.2 570.728 1212.2 582.524V1066.47C1212.18 1078.16 1205.05 1083.54 1196.25 1078.47Z" fill="#E4E7F2"/>
<path d="M1195.13 1079.08L567.513 717.896C558.711 712.833 551.557 699.341 551.557 687.545V203.629C551.557 191.939 558.684 186.558 567.513 191.621L1195.13 552.809C1203.93 557.872 1211.09 571.364 1211.09 583.16V1067.08C1211.09 1078.85 1203.93 1084.15 1195.13 1079.08Z" fill="#D6D8E5"/>
<path d="M1202.44 1049.69L559.509 679.699L559.855 205.564C559.855 200.713 563.285 198.752 567.487 201.164L1195.1 562.351C1197.33 563.804 1199.19 565.762 1200.51 568.065C1201.84 570.369 1202.6 572.952 1202.74 575.605L1202.44 1049.69Z" fill="white"/>
<path d="M1162.63 637.5L592.724 309.552C590.75 308.141 589.135 306.289 588.008 304.144C586.882 301.999 586.274 299.62 586.235 297.199V256.193C586.235 251.448 589.134 249.248 592.724 251.315L1162.63 579.263C1164.61 580.677 1166.23 582.533 1167.35 584.683C1168.48 586.833 1169.09 589.217 1169.12 591.642V632.622C1169.12 637.393 1166.22 639.567 1162.63 637.5Z" fill="#E9EAF2"/>
<path d="M1132.9 747.266L998.946 670.182C996.972 668.771 995.357 666.919 994.23 664.774C993.103 662.629 992.496 660.251 992.457 657.83V571.655C992.457 566.884 995.356 564.71 998.946 566.778L1132.9 643.861C1134.88 645.269 1136.49 647.12 1137.62 649.266C1138.75 651.412 1139.35 653.791 1139.39 656.213V742.388C1139.28 747.133 1136.38 749.333 1132.9 747.266Z" fill="#E9EAF2"/>
<path d="M956.342 775.258L620.302 581.755C619.311 581.053 618.501 580.128 617.937 579.054C617.373 577.981 617.072 576.79 617.058 575.578V560.761C617.058 558.375 618.494 557.262 620.302 558.296L956.342 751.799C957.329 752.505 958.136 753.431 958.699 754.503C959.262 755.576 959.566 756.765 959.587 757.975V772.819C959.587 775.178 958.124 776.291 956.342 775.258Z" fill="#E9EAF2"/>
<path d="M923.26 791.321L621.26 617.619C620.275 616.911 619.469 615.984 618.906 614.912C618.343 613.84 618.038 612.652 618.015 611.443V604.047C618.015 601.661 619.478 600.575 621.26 601.608L923.26 775.39C924.246 776.096 925.053 777.022 925.616 778.095C926.18 779.167 926.484 780.356 926.504 781.566V788.935C926.504 791.241 925.042 792.355 923.26 791.321Z" fill="#E9EAF2"/>
<path d="M923.26 819.312L621.26 645.53C620.273 644.824 619.466 643.898 618.903 642.826C618.34 641.753 618.036 640.564 618.015 639.354V631.959C618.015 629.6 619.478 628.486 621.26 629.52L923.26 803.301C924.246 804.008 925.053 804.934 925.616 806.006C926.18 807.079 926.484 808.267 926.504 809.478V816.873C926.504 819.259 925.042 820.346 923.26 819.312Z" fill="#E9EAF2"/>
<path d="M846.058 802.878L621.26 673.522C620.273 672.816 619.466 671.89 618.903 670.817C618.34 669.745 618.036 668.556 618.015 667.346V660.03C618.015 657.644 619.478 656.558 621.26 657.565L846.058 786.92C847.037 787.639 847.839 788.572 848.401 789.647C848.963 790.722 849.271 791.911 849.302 793.123V800.518C849.302 802.825 847.84 803.911 846.058 802.878Z" fill="#E9EAF2"/>
<path d="M1136.04 783.103L995.595 702.283C994.604 701.581 993.794 700.656 993.23 699.582C992.666 698.509 992.365 697.318 992.351 696.107V688.711C992.351 686.325 993.787 685.239 995.595 686.272L1136.04 767.093C1137.02 767.799 1137.83 768.726 1138.39 769.798C1138.96 770.87 1139.26 772.059 1139.28 773.269V780.665C1139.28 783.05 1137.82 784.137 1136.04 783.103Z" fill="#E9EAF2"/>
<path d="M1136.04 811.121L995.595 730.274C994.604 729.572 993.794 728.647 993.23 727.574C992.666 726.5 992.365 725.31 992.351 724.098V716.729C992.351 714.343 993.787 713.23 995.595 714.264L1136.04 795.217C1137.03 795.92 1137.84 796.846 1138.4 797.919C1138.96 798.992 1139.27 800.182 1139.28 801.393V808.762C1139.28 811.121 1137.82 812.129 1136.04 811.121Z" fill="#E9EAF2"/>
<path d="M1099.26 817.935L995.542 758.267C994.551 757.565 993.741 756.64 993.177 755.566C992.613 754.493 992.312 753.302 992.298 752.091V744.854C992.298 742.468 993.734 741.382 995.542 742.415L1099.26 802.057C1100.25 802.761 1101.05 803.687 1101.62 804.76C1102.18 805.833 1102.48 807.022 1102.5 808.233V815.628C1102.5 817.882 1100.99 819.074 1099.26 817.935Z" fill="#E9EAF2"/>
<path d="M1132.9 963.035L998.946 885.952C996.972 884.541 995.357 882.689 994.23 880.544C993.103 878.399 992.496 876.021 992.457 873.6V787.425C992.457 782.68 995.356 780.48 998.946 782.548L1132.9 859.631C1134.87 861.064 1136.47 862.938 1137.58 865.102C1138.69 867.266 1139.27 869.659 1139.28 872.089V958.264C1139.28 962.903 1136.38 965.103 1132.9 963.035Z" fill="#E9EAF2"/>
<path d="M1136.04 998.873L995.595 918.052C994.604 917.35 993.794 916.425 993.23 915.352C992.666 914.278 992.365 913.088 992.351 911.876V904.507C992.351 902.121 993.787 901.008 995.595 902.042L1136.04 982.862C1137.02 983.581 1137.82 984.514 1138.38 985.589C1138.94 986.664 1139.25 987.853 1139.28 989.065V996.434C1139.28 998.82 1137.82 999.907 1136.04 998.873Z" fill="#E9EAF2"/>
<path d="M621.182 306.784C626.054 303.98 626.05 294.883 621.174 286.465C616.298 278.046 608.396 273.495 603.524 276.298C598.652 279.102 598.656 288.199 603.532 296.617C608.409 305.035 616.311 309.587 621.182 306.784Z" fill="#DADCE5"/>
<path d="M908.66 467.455L859.355 439.092C858.861 438.737 858.456 438.271 858.175 437.733C857.893 437.194 857.742 436.598 857.732 435.991V429.417C857.732 428.224 858.45 427.667 859.355 428.198L908.66 456.56C909.156 456.907 909.563 457.367 909.845 457.902C910.127 458.436 910.277 459.031 910.282 459.635V466.156C910.282 467.428 909.511 467.985 908.66 467.455Z" fill="#DADCE5"/>
<path d="M988.441 513.393L939.136 485.083C938.644 484.732 938.241 484.271 937.96 483.737C937.678 483.203 937.525 482.611 937.514 482.008V475.487C937.514 474.295 938.259 473.738 939.136 474.268L988.441 502.631C988.936 502.986 989.34 503.451 989.621 503.99C989.903 504.528 990.054 505.125 990.064 505.732V512.253C990.064 513.34 989.292 513.896 988.441 513.393Z" fill="#DADCE5"/>
<path d="M1066.95 558.56L1017.64 530.144C1017.15 529.798 1016.74 529.338 1016.46 528.803C1016.17 528.268 1016.02 527.674 1016.02 527.07V520.549C1016.02 519.356 1016.74 518.826 1017.64 519.329L1066.95 547.692C1067.44 548.047 1067.85 548.513 1068.13 549.051C1068.41 549.59 1068.56 550.186 1068.57 550.794V557.314C1068.57 558.534 1067.85 559.064 1066.95 558.56Z" fill="#DADCE5"/>
<path d="M1146.73 604.365L1097.45 576.002C1096.96 575.647 1096.55 575.181 1096.27 574.643C1095.99 574.105 1095.84 573.508 1095.83 572.901V566.38C1095.83 565.187 1096.55 564.657 1097.45 565.161L1146.73 593.762C1147.23 594.108 1147.63 594.568 1147.91 595.103C1148.2 595.638 1148.35 596.232 1148.35 596.837V603.358C1148.35 604.365 1147.63 605.001 1146.73 604.365Z" fill="#DADCE5"/>
<path d="M1037.91 654.491L1028.49 630.343L1011.39 654.624L1030.17 665.439L1045.62 674.318L1080.06 694.146L1055.11 630.078L1037.91 654.491Z" fill="#DADCE5"/>
<path d="M1119.63 672.001C1124.04 669.475 1124.06 661.264 1119.68 653.66C1115.29 646.057 1108.17 641.94 1103.76 644.465C1099.35 646.991 1099.33 655.202 1103.71 662.805C1108.1 670.409 1115.23 674.526 1119.63 672.001Z" fill="#DADCE5"/>
<path d="M1038.86 873.44L1029.48 849.292L1012.35 873.572L1031.15 884.387L1046.6 893.267L1081.04 913.095L1056.1 849.027L1038.86 873.44Z" fill="#DADCE5"/>
<path d="M1116.22 888.305C1120.61 885.78 1120.61 877.597 1116.23 870.028C1111.84 862.459 1104.73 858.37 1100.34 860.895C1095.95 863.421 1095.95 871.604 1100.33 879.173C1104.72 886.742 1111.83 890.83 1116.22 888.305Z" fill="#DADCE5"/>
<path d="M722.503 544.274L710.057 593.948V551.431L722.503 544.274Z" fill="#232733"/>
<path d="M577.539 460.06L565.093 509.761V467.243L577.539 460.06Z" fill="#232733"/>
<path d="M782.233 768.259L485.923 597.738C484.154 596.472 482.708 594.81 481.701 592.886C480.694 590.961 480.155 588.828 480.126 586.658V435.566C480.126 431.299 482.785 429.337 485.923 431.193L782.233 601.714C784.006 602.971 785.457 604.627 786.469 606.547C787.481 608.468 788.025 610.598 788.057 612.767V763.991C788.057 768.153 785.45 770.114 782.233 768.259Z" fill="#E9EAF2"/>
<path d="M568.391 591.112L552.328 549.84L523.075 591.324L555.201 609.826L581.582 625.014L640.487 658.917L597.831 549.363L568.391 591.112Z" fill="#9FCC29"/>
<path d="M733.866 635.614C741.358 631.302 741.353 617.314 733.855 604.369C726.357 591.425 714.206 584.426 706.714 588.738C699.222 593.049 699.227 607.037 706.725 619.982C714.223 632.926 726.374 639.925 733.866 635.614Z" fill="#9FCC29"/>
<path d="M704.605 533.961L704.578 477.289L688.462 465.228V533.961L670.538 544.273L696.52 559.223L722.503 544.273L704.605 533.961Z" fill="#353C4C"/>
<path d="M696.521 559.223L710.057 593.947V553.842V551.43L696.521 559.223Z" fill="#232733"/>
<path d="M670.538 544.274L682.053 577.62L710.057 593.948L696.52 559.224L670.538 544.274Z" fill="#2B303F"/>
<path d="M559.615 449.776V381.016H543.499V449.749L525.575 460.06L551.557 475.037L577.54 460.06L559.615 449.776Z" fill="#353C4C"/>
<path d="M551.557 475.036L565.093 509.761V469.655V467.243L551.557 475.036Z" fill="#232733"/>
<path d="M525.575 460.06L537.09 493.406L565.094 509.761L551.557 475.036L525.575 460.06Z" fill="#2B303F"/>
<path opacity="0.4" d="M382.34 770.672L221.82 677.844L28.4023 789.148L201.449 889.186L394.893 777.882V763.462L382.34 770.672Z" fill="#D6D8E5"/>
<path d="M402.711 758.16L221.82 654.066L40.9281 758.16L28.4023 750.95V765.37L221.82 876.701L415.237 765.37V750.95L402.711 758.16Z" fill="#B1B4C4"/>
<path d="M221.82 862.255L28.4023 750.951L221.82 639.647L415.237 750.951L221.82 862.255Z" fill="#E7E9F2"/>
<path d="M221.208 709.732L233.84 702.469V164.876L221.208 172.139V709.732Z" fill="#B1B4C4"/>
<path d="M222.218 391.485L310.537 530.808L323.169 525.665L233.84 384.965L222.218 391.485Z" fill="#B1B4C4"/>
<path d="M221.687 416.27L310.058 556.281V530.092L221.687 390.585V416.27Z" fill="#D6D8E5"/>
<path d="M209.055 702.469L221.687 709.732V172.139L209.055 164.876V702.469Z" fill="#D6D8E5"/>
<path d="M310.058 760.599L322.69 767.862V230.268L310.058 223.005V760.599Z" fill="#D6D8E5"/>
<path d="M322.211 767.862L334.844 760.599V223.005L322.211 230.268V767.862Z" fill="#B1B4C4"/>
<path d="M221.687 670.978L310.058 565.505V540.217L221.687 645.849V670.978Z" fill="#D6D8E5"/>
<path d="M221.687 670.978L233.84 664.352L310.058 572.769V563.544L221.687 670.978Z" fill="#B1B4C4"/>
<path d="M221.687 391.485L310.058 286.013V260.725L221.687 366.356V391.485Z" fill="#D6D8E5"/>
<path d="M221.687 391.486L233.84 384.833L310.058 293.277V284.052L221.687 391.486Z" fill="#B1B4C4"/>
<path d="M120.949 767.783L133.581 760.52V222.926L120.949 230.189V767.783Z" fill="#B1B4C4"/>
<path d="M121.959 449.536L210.278 588.832L222.91 583.716L133.581 443.015L121.959 449.536Z" fill="#B1B4C4"/>
<path d="M121.428 474.322L209.799 614.306V588.144L121.428 448.609V474.322Z" fill="#D6D8E5"/>
<path d="M108.822 760.52L121.428 767.783V230.189L108.822 222.926V760.52Z" fill="#D6D8E5"/>
<path d="M209.799 818.624L222.431 825.887V288.32L209.799 281.03V818.624Z" fill="#D6D8E5"/>
<path d="M221.953 825.887L234.585 818.624V281.03L221.953 288.32V825.887Z" fill="#B1B4C4"/>
<path d="M121.428 729.028L209.799 623.556V598.242L121.428 703.9V729.028Z" fill="#D6D8E5"/>
<path d="M121.428 729.029L133.581 722.376L209.799 630.82V621.569L121.428 729.029Z" fill="#B1B4C4"/>
<path d="M121.428 449.536L209.799 344.064V318.75L121.428 424.381V449.536Z" fill="#D6D8E5"/>
<path d="M121.428 449.536L133.581 442.883L209.799 351.3V342.076L121.428 449.536Z" fill="#B1B4C4"/>
<path d="M222.431 315.543L92.0415 240.501L222.431 165.485L352.821 240.501L222.431 315.543Z" fill="#F7DC6B"/>
<path d="M212.724 100.488L58.1341 189.447L13.8818 163.973L168.472 75.015L212.724 100.488Z" fill="#353C4C"/>
<path d="M13.8818 199.652V163.974L58.1341 189.447V225.126L13.8818 199.652Z" fill="#2B303F"/>
<path d="M58.1343 225.127L212.725 136.168V100.49L58.1343 189.448V221.654" fill="#232733"/>
<path d="M212.724 60.4636L58.1341 149.422L13.8818 123.948L168.472 34.9902L212.724 60.4636Z" fill="#353C4C"/>
<path d="M13.8818 159.653V123.947L58.1341 149.421V185.126L13.8818 159.653Z" fill="#2B303F"/>
<path d="M58.1343 185.127L212.725 96.1685V60.4632L58.1343 149.422V181.654" fill="#232733"/>
<path d="M95.871 171.105L0 116.288V96.3011L95.871 150.773V171.105Z" fill="#D6D8E5"/>
<path d="M234.585 230.136L0 96.3011L17.3658 86.3079L251.95 220.143L234.585 230.136Z" fill="#E7E9F2"/>
<path d="M201.342 139.507L80.8984 70.0584V50.0455L201.342 114.379V139.507Z" fill="#D6D8E5"/>
<path d="M292.692 169.885L80.8984 50.0725L98.2642 40.0793L310.058 159.892L292.692 169.885Z" fill="#E7E9F2"/>
<path d="M145.069 86.9433V106.93L153.313 164.477L165.547 172.058L145.069 86.9433Z" fill="#D6D8E5"/>
<path d="M181.317 180.593L165.467 98.686L145.069 86.9433L157.435 167.658L181.317 180.593Z" fill="#E7E9F2"/>
<path d="M145.07 106.931L81.8029 123.551L49.3052 104.837L142.304 85.3008L145.07 86.9442V106.931Z" fill="#B1B4C4"/>
<path d="M145.07 86.9441L56.9641 109.263L38.0293 98.3687L126.826 75.758L145.07 86.9441Z" fill="#E7E9F2"/>
<path d="M222.431 150.084L92.0415 75.042L222.431 0L352.821 75.042L222.431 150.084Z" fill="#E7E9F2"/>
<path d="M92.0415 306.769V75.0422L222.431 150.084V381.811L92.0415 306.769Z" fill="#D6D8E5"/>
<path d="M352.821 75.0422V306.769L222.431 381.811V150.058L352.821 75.0422Z" fill="#B1B4C4"/>
<path d="M222.431 230.799L147.569 187.724L123.502 111.384L222.431 168.321V230.799Z" fill="#9FCC29"/>
<path d="M352.821 93.2789V155.757L222.431 230.825V168.347L352.821 93.2789Z" fill="#9FCC29"/>
<path d="M803.853 581.225L239.664 256.538V236.551L803.853 561.239V581.225Z" fill="#D6D8E5"/>
<path d="M803.853 561.238L239.664 236.577L257.03 226.584L821.219 551.245L803.853 561.238Z" fill="#E7E9F2"/>
<path d="M884.752 534.995L320.562 210.308V190.322L884.752 515.009V534.995Z" fill="#D6D8E5"/>
<path d="M884.752 515.009L320.562 190.321L337.928 180.328L902.118 505.016L884.752 515.009Z" fill="#E7E9F2"/>
<path d="M902.118 525.056L803.854 581.225V561.212L902.118 505.069V525.056Z" fill="#B1B4C4"/>
<path d="M902.118 505.069L803.907 561.238L789.2 552.782L887.411 496.614L902.118 505.069Z" fill="#E7E9F2"/>
<path d="M814.039 494.254L750.745 510.874L718.248 492.159L811.246 472.624L814.039 474.267V494.254Z" fill="#B1B4C4"/>
<path d="M814.039 474.269L725.933 496.588L706.999 485.667L795.769 463.083L814.039 474.269Z" fill="#E7E9F2"/>
<path d="M671.256 392.201V412.188L679.5 469.735L691.734 477.289L671.256 392.201Z" fill="#D6D8E5"/>
<path d="M707.504 485.851L691.654 403.944L671.256 392.201L683.649 472.916L707.504 485.851Z" fill="#E7E9F2"/>
<path d="M671.256 412.187L607.989 428.807L575.492 410.093L668.491 390.557L671.256 392.201V412.187Z" fill="#B1B4C4"/>
<path d="M671.256 392.202L583.177 414.521L564.242 403.626L653.013 381.016L671.256 392.202Z" fill="#E7E9F2"/>
<path d="M527.995 309.684V329.671L536.213 387.218L548.472 394.799L527.995 309.684Z" fill="#D6D8E5"/>
<path d="M564.243 403.334L548.393 321.427L527.995 309.684L540.361 390.399L564.243 403.334Z" fill="#E7E9F2"/>
<path d="M527.995 329.67L464.728 346.29L432.23 327.576L525.229 308.04L527.995 309.684V329.67Z" fill="#B1B4C4"/>
<path d="M527.995 309.684L439.889 332.003L420.955 321.108L509.752 298.498L527.995 309.684Z" fill="#E7E9F2"/>
<path d="M384.734 227.221V247.207L392.951 304.754L405.211 312.309L384.734 227.221Z" fill="#D6D8E5"/>
<path d="M420.955 320.871L405.131 238.963L384.734 227.221L397.1 307.935L420.955 320.871Z" fill="#E7E9F2"/>
<path d="M384.734 247.207L321.467 263.827L288.969 245.113L381.968 225.577L384.734 227.22V247.207Z" fill="#B1B4C4"/>
<path d="M384.734 227.22L296.628 249.539L277.693 238.645L366.464 216.034L384.734 227.22Z" fill="#E7E9F2"/>
<path opacity="0.4" d="M84.4357 916.17L13.297 874.58C5.31888 869.862 6.22307 861.618 15.5575 856.184L51.7252 834.978C61.0597 829.677 75.1544 828.961 83.239 833.679L154.484 875.269C162.462 879.961 161.531 888.205 152.223 893.665L116.056 914.871C106.615 920.305 92.4936 920.888 84.4357 916.17Z" fill="#D6D8E5"/>
<path d="M172.86 875.164V774.622L20.6899 757.313V858.491C20.7191 860.222 21.2323 861.911 22.172 863.367C23.1116 864.824 24.4404 865.99 26.0087 866.735L97.3335 908.325C105.312 913.043 119.539 912.46 128.847 906.999L165.015 885.793C170.334 882.719 172.993 878.769 172.727 875.19L172.86 875.164Z" fill="#D6D8E5"/>
<path d="M172.701 785.596V774.622H160.999L96.057 736.664C88.0788 731.945 73.8511 732.555 64.5433 737.989L28.3756 759.195C27.7228 759.564 27.0923 759.971 26.4874 760.414L20.6899 757.313C20.6899 757.313 20.6899 768.896 20.6899 769.294C20.73 771.019 21.248 772.7 22.1867 774.15C23.1253 775.6 24.4481 776.764 26.0087 777.511L97.3335 819.075C105.312 823.793 119.539 823.183 128.847 817.749L165.015 796.543C170.334 793.389 172.993 789.307 172.701 785.49V785.596Z" fill="#EDF0F9"/>
<path d="M97.3338 807.146L26.1154 765.556C18.1372 760.838 19.0414 752.594 28.3759 747.16L64.5436 725.954C73.8514 720.653 87.9728 719.91 96.0573 724.629L167.302 766.219C175.281 770.937 174.35 779.181 165.015 784.615L128.848 805.82C119.673 811.254 105.418 811.864 97.3338 807.146Z" fill="#E2E5F2"/>
<path d="M81.2977 750.368V746.365H78.8777L78.1065 745.888C75.7269 744.661 73.0868 744.02 70.4075 744.02C67.7283 744.02 65.0882 744.661 62.7086 745.888C62.2539 746.145 61.8262 746.447 61.4321 746.789L59.5439 746.365V750.368C59.6074 751.335 59.9361 752.267 60.4941 753.062C61.0521 753.856 61.818 754.483 62.7086 754.874C65.0921 756.088 67.7307 756.722 70.4075 756.722C73.0844 756.722 75.723 756.088 78.1065 754.874C78.9886 754.468 79.7479 753.838 80.3081 753.047C80.8683 752.256 81.2096 751.332 81.2977 750.368Z" fill="#9FCC29"/>
<path d="M70.4208 752.726C76.428 752.726 81.2977 749.878 81.2977 746.364C81.2977 742.851 76.428 740.003 70.4208 740.003C64.4137 740.003 59.5439 742.851 59.5439 746.364C59.5439 749.878 64.4137 752.726 70.4208 752.726Z" fill="#9FCC29"/>
<path d="M107.572 765.45V761.447H105.152L104.407 760.97C102.028 759.743 99.3878 759.103 96.7086 759.103C94.0293 759.103 91.3892 759.743 89.0096 760.97C88.5425 761.221 88.1053 761.523 87.7065 761.871L85.8184 761.447V765.45C85.9065 766.414 86.2478 767.338 86.808 768.129C87.3682 768.92 88.1276 769.55 89.0096 769.956C91.3931 771.171 94.0317 771.804 96.7086 771.804C99.3854 771.804 102.024 771.171 104.407 769.956C105.298 769.565 106.064 768.939 106.622 768.144C107.18 767.35 107.509 766.418 107.572 765.45Z" fill="#9FCC29"/>
<path d="M96.6953 767.808C102.702 767.808 107.572 764.96 107.572 761.447C107.572 757.933 102.702 755.085 96.6953 755.085C90.6881 755.085 85.8184 757.933 85.8184 761.447C85.8184 764.96 90.6881 767.808 96.6953 767.808Z" fill="#9FCC29"/>
<path d="M133.9 781.566V777.564H131.453L130.709 777.087C128.329 775.859 125.689 775.219 123.01 775.219C120.331 775.219 117.69 775.859 115.311 777.087C114.85 777.346 114.413 777.648 114.008 777.988L112.12 777.564V781.566C112.202 782.532 112.542 783.459 113.102 784.251C113.663 785.042 114.426 785.671 115.311 786.073C117.69 787.3 120.331 787.94 123.01 787.94C125.689 787.94 128.329 787.3 130.709 786.073C131.594 785.671 132.356 785.042 132.917 784.251C133.478 783.459 133.817 782.532 133.9 781.566Z" fill="#9FCC29"/>
<path d="M122.997 783.925C129.004 783.925 133.873 781.077 133.873 777.564C133.873 774.05 129.004 771.202 122.997 771.202C116.989 771.202 112.12 774.05 112.12 777.564C112.12 781.077 116.989 783.925 122.997 783.925Z" fill="#9FCC29"/>
</svg>
