<svg width="233" height="371" viewBox="0 0 233 371" fill="none" xmlns="http://www.w3.org/2000/svg">
<path opacity="0.15" d="M2.22374 352.088C2.22374 352.088 5.51111 369.55 53.3471 369.55C101.183 369.55 138.085 368.036 163.82 369.55C189.555 371.064 236.698 369.349 232.766 355.857C228.834 342.366 203.97 340.216 179.387 340.538C154.804 340.86 141.107 343.647 127.941 343.76C114.776 343.872 113.785 329.809 84.8188 330.421C55.8529 331.042 36.9103 340.626 25.7107 340.071C14.503 339.507 0.684804 348.955 2.22374 352.088Z" fill="black"/>
<path d="M194.365 70.2043C194.365 70.2043 217.272 127.013 214.589 137.355C211.906 147.697 183.561 139.272 183.561 139.272L192.883 72.0407" fill="#1957C2"/>
<path d="M81.2334 323.865V161.446" stroke="#4E405C" stroke-width="5.5952" stroke-miterlimit="10"/>
<path d="M37.571 261.62C37.571 248.716 121.286 248.716 121.286 261.62" stroke="#4E405C" stroke-width="5.5952" stroke-miterlimit="10"/>
<path d="M102.513 155.453L135.145 336.76" stroke="#4E405C" stroke-width="5.5952" stroke-miterlimit="10"/>
<path d="M142.396 335.399H126.83V344.339H142.396V335.399Z" fill="#4E405C"/>
<path d="M89.0168 320.981H73.4502V330.421H89.0168V320.981Z" fill="#4E405C"/>
<path d="M55.7484 155.453L23.1165 336.76" stroke="#4E405C" stroke-width="5.5952" stroke-miterlimit="10"/>
<path d="M15.8679 344.343H31.4346V333.937H15.8679L15.8679 344.343Z" fill="#4E405C"/>
<path d="M37.571 259.332C37.571 272.236 121.286 272.236 121.286 259.332" stroke="#4E405C" stroke-width="5.5952" stroke-miterlimit="10"/>
<path d="M139.544 151.104C139.544 146.311 113.664 142.437 81.7411 142.437C49.8182 142.437 23.9382 146.311 23.9382 151.096V151.104V151.112V151.12V151.128V151.136V151.144V151.152V151.16V151.168V151.176V151.184V151.192V151.2V151.208V151.217V151.225V151.233V151.241V151.249V151.257V151.265V151.273V151.281V151.289V151.297V151.305V151.313V151.321V151.329V151.337V151.345V151.353V151.362V151.37V151.378V151.386V151.394V151.402V151.41V151.418V151.426V151.434V151.442V151.45V151.458V151.466V151.474V151.482V151.49V151.498V151.506V151.515V151.523V151.531V151.539V151.547V151.555V151.563V151.571V151.579V151.587V151.595V151.603V151.611V151.619V151.627V151.635V151.643V151.651V151.66V151.668V151.676V151.684V151.692V151.7V151.708V151.716V151.724V151.732V151.74V151.748V151.756V151.764V151.772V151.78V151.788V151.796V151.805V151.813V151.821V151.829V151.837V151.845V151.853V151.861V151.869V151.877V151.885V151.893V151.901V151.909V151.917V151.925V151.933V151.941V151.949V151.958V151.966V151.974V151.982V151.99V151.998V152.006V152.014V152.022V152.03V152.038V152.046V152.054V152.062V152.07V152.078V152.086V152.094V152.103V152.111V152.119V152.127V152.135V152.143V152.151V152.159V152.167V152.175V152.183V152.191V152.199V152.207V152.215V152.223V152.231V152.239V152.248V152.256V152.264V152.272V152.28V152.288V152.296V152.304V152.312V152.32V152.328V152.336V152.344V152.352V152.36V152.368V152.376V152.384V152.392V152.401V152.409V152.417V152.425V152.433V152.441V152.449V152.457V152.465V152.473V152.481V152.489V152.497V152.505V152.513V152.521V152.529V152.537V152.546V152.554V152.562V152.57V152.578V152.586V152.594V152.602V152.61V152.618V152.626V152.634V152.642V152.65V152.658V152.666V152.674V152.682V152.691V152.699V152.707V152.715V152.723V152.731V152.739V152.747V152.755V152.763V152.771V152.779V152.787V152.795V152.803V152.811V152.819V152.827V152.835V152.844V152.852V152.86V152.868V152.876V152.884V152.892V152.9V152.908V152.916V152.924V152.932V152.94V152.948V152.956V152.964V152.972V152.98V152.989V152.997V153.005V153.013V153.021V153.029V153.037V153.045V153.053V153.061V153.069V153.077V153.085V153.093V153.101V153.109V153.117V153.125V153.133V153.142V153.15V153.158V153.166V153.174V153.182V153.19V153.198V153.206V153.214V153.222V153.23V153.238V153.246V153.254V153.262V153.27V153.278V153.287V153.295V153.303V153.311V153.319V153.327V153.335V153.343V153.351V153.359V153.367V153.375V153.383V153.391V153.399V153.407V153.415V153.423V153.432V153.44V153.448V153.456V153.464V153.472V153.48V153.488V153.496V153.504V153.512V153.52V153.528V153.536V153.544V153.552V153.56V153.568V153.576V153.585V153.593V153.601V153.609V153.617V153.625V153.633V153.641V153.649V153.657V153.665V153.673V153.681V153.689V153.697V153.705V153.713V153.721V153.73V153.738V153.746V153.754V153.762V153.77V153.778V153.786V153.794V153.802V153.81V153.818V153.826V153.834V153.842V153.85V153.858V153.866V153.875V153.883V153.891V153.899V153.907V153.915V153.923V153.931V153.939V153.947V153.955V153.963V153.971V153.979V153.987V153.995V154.003V154.011V154.019V154.028V154.036V154.044V154.052V154.06V154.068V154.076V154.084V154.092V154.1V154.108V154.116V154.124V154.132V154.14V154.148V154.156V154.164V154.173V154.181V154.189V154.197V154.205V154.213V154.221V154.229V154.237V154.245V154.253V154.261V154.269V154.277V154.285V154.293V154.301V154.309V154.318V154.326V154.334V154.342V154.35V154.358V154.366V154.374V154.382V154.39V154.398V154.406V154.414V154.422V154.43V154.438V154.446V154.454V154.462V154.471V154.479V154.487V154.495V154.503V154.511V154.519V154.527V154.535V154.543V154.551V154.559V154.567V154.575V154.583V154.591V154.599V154.607V154.616V154.624V154.632V154.64V154.648V154.656V154.664V154.672V154.68V154.688V154.696V154.704V154.712V154.72V154.728V154.736V154.744V154.752V154.761V154.769V154.777V154.785V154.793V154.801V154.809V154.817V154.825V154.833V154.841V154.849V154.857V154.865V154.873V154.881V154.889V154.897V154.905V154.914V154.922V154.93V154.938V154.946V154.954V154.962V154.97V154.978V154.986V154.994V155.002V155.01V155.018V155.026V155.034V155.042V155.05V155.059V155.067V155.075V155.083V155.091V155.099V155.107V155.115V155.123V155.131V155.139V155.147V155.155V155.163V155.171V155.179V155.187V155.195V155.204V155.212V155.22V155.228V155.236V155.244V155.252V155.26V155.268V155.276V155.284V155.292V155.3V155.308V155.316V155.324V155.332V155.34V155.348V155.357V155.365V155.373V155.381V155.389V155.397V155.405V155.413V155.421V155.429V155.437V155.445V155.453V155.461V155.469V155.477V155.485V155.493V155.502V155.51V155.518V155.526V155.534V155.542V155.55V155.558V155.566V155.574V155.582V155.59V155.598V155.606V155.614V155.622V155.63V155.638V155.647V155.655V155.663V155.671V155.679V155.687V155.695V155.703V155.711V155.719V155.727V155.735V155.743V155.751V155.759V155.767V155.775V155.783V155.791V155.8V155.808V155.816V155.824V155.832V155.84V155.848V155.856V155.864V155.872V155.88V155.888V155.896V155.904V155.912V155.92V155.928V155.936V155.945C23.9382 160.729 49.8182 164.603 81.7411 164.603C113.664 164.603 139.544 160.729 139.544 155.945V155.936V155.928V155.92V155.912V155.904V155.896V155.888V155.88V155.872V155.864V155.856V155.848V155.84V155.832V155.824V155.816V155.808V155.8V155.791V155.783V155.775V155.767V155.759V155.751V155.743V155.735V155.727V155.719V155.711V155.703V155.695V155.687V155.679V155.671V155.663V155.655V155.647V155.638V155.63V155.622V155.614V155.606V155.598V155.59V155.582V155.574V155.566V155.558V155.55V155.542V155.534V155.526V155.518V155.51V155.502V155.493V155.485V155.477V155.469V155.461V155.453V155.445V155.437V155.429V155.421V155.413V155.405V155.397V155.389V155.381V155.373V155.365V155.357V155.348V155.34V155.332V155.324V155.316V155.308V155.3V155.292V155.284V155.276V155.268V155.26V155.252V155.244V155.236V155.228V155.22V155.212V155.204V155.195V155.187V155.179V155.171V155.163V155.155V155.147V155.139V155.131V155.123V155.115V155.107V155.099V155.091V155.083V155.075V155.067V155.059V155.05V155.042V155.034V155.026V155.018V155.01V155.002V154.994V154.986V154.978V154.97V154.962V154.954V154.946V154.938V154.93V154.922V154.914V154.905V154.897V154.889V154.881V154.873V154.865V154.857V154.849V154.841V154.833V154.825V154.817V154.809V154.801V154.793V154.785V154.777V154.769V154.761V154.752V154.744V154.736V154.728V154.72V154.712V154.704V154.696V154.688V154.68V154.672V154.664V154.656V154.648V154.64V154.632V154.624V154.616V154.607V154.599V154.591V154.583V154.575V154.567V154.559V154.551V154.543V154.535V154.527V154.519V154.511V154.503V154.495V154.487V154.479V154.471V154.462V154.454V154.446V154.438V154.43V154.422V154.414V154.406V154.398V154.39V154.382V154.374V154.366V154.358V154.35V154.342V154.334V154.326V154.318V154.309V154.301V154.293V154.285V154.277V154.269V154.261V154.253V154.245V154.237V154.229V154.221V154.213V154.205V154.197V154.189V154.181V154.173V154.164V154.156V154.148V154.14V154.132V154.124V154.116V154.108V154.1V154.092V154.084V154.076V154.068V154.06V154.052V154.044V154.036V154.028V154.019V154.011V154.003V153.995V153.987V153.979V153.971V153.963V153.955V153.947V153.939V153.931V153.923V153.915V153.907V153.899V153.891V153.883V153.875V153.866V153.858V153.85V153.842V153.834V153.826V153.818V153.81V153.802V153.794V153.786V153.778V153.77V153.762V153.754V153.746V153.738V153.73V153.721V153.713V153.705V153.697V153.689V153.681V153.673V153.665V153.657V153.649V153.641V153.633V153.625V153.617V153.609V153.601V153.593V153.585V153.576V153.568V153.56V153.552V153.544V153.536V153.528V153.52V153.512V153.504V153.496V153.488V153.48V153.472V153.464V153.456V153.448V153.44V153.432V153.423V153.415V153.407V153.399V153.391V153.383V153.375V153.367V153.359V153.351V153.343V153.335V153.327V153.319V153.311V153.303V153.295V153.287V153.278V153.27V153.262V153.254V153.246V153.238V153.23V153.222V153.214V153.206V153.198V153.19V153.182V153.174V153.166V153.158V153.15V153.142V153.133V153.125V153.117V153.109V153.101V153.093V153.085V153.077V153.069V153.061V153.053V153.045V153.037V153.029V153.021V153.013V153.005V152.997V152.989V152.98V152.972V152.964V152.956V152.948V152.94V152.932V152.924V152.916V152.908V152.9V152.892V152.884V152.876V152.868V152.86V152.852V152.844V152.835V152.827V152.819V152.811V152.803V152.795V152.787V152.779V152.771V152.763V152.755V152.747V152.739V152.731V152.723V152.715V152.707V152.699V152.691V152.682V152.674V152.666V152.658V152.65V152.642V152.634V152.626V152.618V152.61V152.602V152.594V152.586V152.578V152.57V152.562V152.554V152.546V152.537V152.529V152.521V152.513V152.505V152.497V152.489V152.481V152.473V152.465V152.457V152.449V152.441V152.433V152.425V152.417V152.409V152.401V152.392V152.384V152.376V152.368V152.36V152.352V152.344V152.336V152.328V152.32V152.312V152.304V152.296V152.288V152.28V152.272V152.264V152.256V152.248V152.239V152.231V152.223V152.215V152.207V152.199V152.191V152.183V152.175V152.167V152.159V152.151V152.143V152.135V152.127V152.119V152.111V152.103V152.094V152.086V152.078V152.07V152.062V152.054V152.046V152.038V152.03V152.022V152.014V152.006V151.998V151.99V151.982V151.974V151.966V151.958V151.949V151.941V151.933V151.925V151.917V151.909V151.901V151.893V151.885V151.877V151.869V151.861V151.853V151.845V151.837V151.829V151.821V151.813V151.805V151.796V151.788V151.78V151.772V151.764V151.756V151.748V151.74V151.732V151.724V151.716V151.708V151.7V151.692V151.684V151.676V151.668V151.66V151.651V151.643V151.635V151.627V151.619V151.611V151.603V151.595V151.587V151.579V151.571V151.563V151.555V151.547V151.539V151.531V151.523V151.515V151.506V151.498V151.49V151.482V151.474V151.466V151.458V151.45V151.442V151.434V151.426V151.418V151.41V151.402V151.394V151.386V151.378V151.37V151.362V151.353V151.345V151.337V151.329V151.321V151.313V151.305V151.297V151.289V151.281V151.273V151.265V151.257V151.249V151.241V151.233V151.225V151.217V151.208V151.2V151.192V151.184V151.176V151.168V151.16V151.152V151.144V151.136V151.128V151.12C139.544 151.12 139.544 151.112 139.544 151.104C139.544 151.112 139.544 151.104 139.544 151.104Z" fill="#9E8FAE"/>
<path d="M81.7491 142.437C113.672 142.437 139.552 146.311 139.552 151.096C139.552 155.88 113.672 159.754 81.7491 159.754C49.8262 159.754 23.9463 155.88 23.9463 151.096C23.9463 146.311 49.8262 142.437 81.7491 142.437Z" fill="#D4D3E7"/>
<path d="M112.528 149.896H47.7794L33.4375 107.327H98.1776L112.528 149.896Z" fill="white"/>
<path d="M106.307 143.339H50.1081L38.6748 110.211H94.8742L106.307 143.339Z" fill="#FF654D"/>
<path opacity="0.15" d="M94.8742 110.211H38.6748L38.844 110.71H94.4553L105.711 143.339H106.307L94.8742 110.211Z" fill="#14255E"/>
<path d="M112.528 149.896H47.7794L45.9746 144.531H110.715L112.528 149.896Z" fill="#E6E7E8"/>
<path d="M127.957 148.269H47.6426L33.4376 107.327C32.4627 109.865 32.4143 112.668 33.3006 115.245L45.4268 150.379C45.7491 151.321 46.6435 151.949 47.6345 151.949H127.949C128.965 151.949 129.794 151.128 129.794 150.105C129.803 149.09 128.973 148.269 127.957 148.269Z" fill="#F1F2F2"/>
<path d="M47.6435 148.269H53.3481V151.949H47.6435C46.6444 151.949 45.7581 151.321 45.4359 150.379L33.3097 115.245C32.4234 112.676 32.4717 109.873 33.4466 107.327L47.6435 148.269Z" fill="#CCCCCC"/>
<path d="M48.1422 150.024C48.1422 150.427 47.8119 150.757 47.409 150.757C47.0061 150.757 46.6758 150.427 46.6758 150.024C46.6758 149.622 47.0061 149.291 47.409 149.291C47.8119 149.299 48.1422 149.622 48.1422 150.024Z" fill="white"/>
<path d="M94.3183 146.295H62.3229C61.7186 146.295 61.1707 145.941 60.929 145.385L60.2522 143.839H94.4633L95.0435 145.168C95.2852 145.699 94.8904 146.295 94.3183 146.295Z" fill="white"/>
<path d="M67.1331 148.269C65.4008 148.269 65.4008 151.949 67.1331 151.949H47.6426C49.7939 151.949 49.7939 148.269 47.6426 148.269H67.1331Z" fill="#999999"/>
<path d="M55.1036 149.557H61.0659C61.3963 149.557 61.6622 149.823 61.6622 150.153V150.371C61.6622 150.701 61.3963 150.967 61.0659 150.967H55.1036C54.7732 150.967 54.5073 150.701 54.5073 150.371V150.153C54.5073 149.823 54.7732 149.557 55.1036 149.557Z" fill="#808080"/>
<path d="M47.7634 317.429L39.0696 315.424L16.5173 329.116L20.264 331.976L43.5253 335.399L47.1511 330.655L47.7634 317.429Z" fill="#FEBAC7"/>
<path d="M0 330.188C0 330.188 6.4861 339.563 14.5031 339.507C22.5281 339.45 35.17 339.394 35.17 339.394L25.9041 351.516L29.8119 354.504C29.8119 354.504 41.3418 351.854 44.8065 343.566C48.2711 335.27 47.8763 328.569 47.8763 328.569L37.9497 325.645C37.9497 325.645 27.2094 334.199 22.2542 330.856C17.299 327.514 17.6615 326.459 17.6615 326.459C17.6615 326.459 9.34643 333.579 0 330.188Z" fill="#031162"/>
<path d="M145.675 315.504L137.545 319.185L127.941 343.76H132.663L153.217 332.354V326.386L145.675 315.504Z" fill="#EB8195"/>
<path d="M115.477 354.641C115.477 354.641 126.322 358.153 132.663 353.24C139.004 348.327 149.011 340.602 149.011 340.602V355.857H153.926C153.926 355.857 161.476 346.756 159.195 338.065C156.915 329.374 152.524 324.284 152.524 324.284L142.871 327.989C142.871 327.989 139.536 341.303 133.565 341.657C127.595 342.012 127.248 340.957 127.248 340.957C127.248 340.957 124.952 351.653 115.477 354.641Z" fill="#031162"/>
<path d="M190.796 199.519C190.796 199.519 167.696 212.568 148.334 211.786C128.973 211.005 118.764 209.04 118.764 209.04C118.764 209.04 133.678 216.104 137.997 227.871C142.315 239.639 148.334 316.994 148.334 316.994L134.862 320.981C134.862 320.981 91.2968 216.885 88.5493 203.941C85.8017 190.998 106.606 190.998 112.101 190.603C117.588 190.208 190.796 199.519 190.796 199.519Z" fill="#031162"/>
<path d="M171.604 340.071V214.847" stroke="#4E405C" stroke-width="5.5952" stroke-miterlimit="10"/>
<path d="M127.941 292.082C127.941 282.135 211.656 282.135 211.656 292.082" stroke="#4E405C" stroke-width="5.5952" stroke-miterlimit="10"/>
<path d="M192.883 210.232L225.515 350.01" stroke="#9E8FAE" stroke-width="5.5952" stroke-miterlimit="10"/>
<path d="M232.766 345.749H217.2V355.857H232.766V345.749Z" fill="#4E405C"/>
<path d="M179.387 335.012H163.82V345.121H179.387V335.012Z" fill="#4E405C"/>
<path d="M146.118 210.232L113.487 350.01" stroke="#9E8FAE" stroke-width="5.5952" stroke-miterlimit="10"/>
<path d="M106.238 355.852H121.804V345.744H106.238V355.852Z" fill="#4E405C"/>
<path d="M127.941 290.318C127.941 300.265 211.656 300.265 211.656 290.318" stroke="#9E8FAE" stroke-width="5.5952" stroke-miterlimit="10"/>
<path d="M228.513 209.072C228.513 206.809 222.656 201.63 210.078 201.702C202.408 201.743 169.848 199.826 120.361 202.451C120.361 202.451 114.704 203.313 114.704 209.072C114.704 214.831 124.518 215.983 127.709 216.627C130.899 217.272 206.992 221.138 219.062 216.627C228.981 212.914 228.513 209.072 228.513 209.072Z" fill="#1957C2"/>
<path d="M188.274 201.461C169.936 201.042 145.885 201.098 120.36 202.451C120.36 202.451 115.968 203.12 114.921 207.22C123.792 209.008 171.402 217.666 188.274 201.461Z" fill="#031162"/>
<path d="M114.695 216.619C114.695 226.687 228.512 226.687 228.512 216.619V209.064C228.512 219.132 114.695 219.132 114.695 209.064V216.619Z" fill="#031162"/>
<path d="M198.692 169.653C198.692 169.653 209.038 205.504 164.989 208.251C131.986 210.304 97.5734 200.8 97.5734 200.8C97.5734 200.8 101.497 228.04 91.2968 251.882C81.0963 275.731 52.4447 320.973 52.4447 320.973L32.0356 316.986C32.0356 316.986 68.9299 182.742 70.1062 175.291C71.2826 167.841 148.334 168.228 148.334 168.228L198.692 169.653Z" fill="#1957C2"/>
<path d="M120.061 32.2434C120.061 32.2434 126.072 37.7205 126.072 43.3103C126.072 48.9001 132.494 59.1374 141.075 54.4255L141.937 64.3487L159.123 60.4261C159.123 60.4261 153.088 52.581 153.394 43.9949C153.692 35.4088 143.282 6.83947 131.599 11.4789C119.924 16.1102 114.937 24.4064 120.061 32.2434Z" fill="#FEBAC7"/>
<path d="M114.695 88.4235C114.695 88.4235 115.557 64.3405 168.236 48.4409C191.022 41.5624 197.29 77.5902 201.488 102.342C205.686 127.093 199.288 149.533 199.288 149.533L202.648 163.379C204.082 177.289 143.081 183.571 141.647 169.661C141.647 169.661 149.76 131.708 141.647 105.491C132.574 76.229 114.695 88.4235 114.695 88.4235Z" fill="#FF654D"/>
<path d="M138.351 85.9186C134.081 71.8071 112.769 76.2854 114.824 90.8883C114.856 91.138 114.897 91.3957 114.945 91.6535C117.886 108.012 126.692 141.567 126.692 141.567L109.071 132.385C109.071 132.385 105.244 120.134 101.457 121.818C97.6702 123.501 97.1062 127.005 97.1062 127.005C97.1062 127.005 93.0372 122.518 91.0713 125.603C89.1053 128.688 89.8063 131.217 89.8063 131.217C89.8063 131.217 87.7033 127.987 85.7374 129.671C83.7714 131.354 84.3354 137.669 83.3524 140.472C82.3694 143.275 82.5064 144.539 85.1734 142.856C87.8403 141.173 88.4043 136.541 88.4043 136.541C88.4043 136.541 87.8403 141.173 95.9862 141.873C104.124 142.574 104.124 142.574 104.124 142.574C104.124 142.574 133.598 166.142 143.419 163.62C151.557 161.526 149.39 122.365 138.351 85.9186Z" fill="#FEBAC7"/>
<path d="M110.425 21.4181C110.425 21.4181 112.085 33.9107 129.093 30.1572C141.904 27.3301 124.058 59.0085 131.752 70.2043C138.416 62.633 147.81 57.9534 157.874 57.3815C165.174 56.9707 172.272 53.0401 169.42 38.1554C167.551 28.3933 163.627 18.0996 159.083 9.81961C147.408 -11.4282 110.014 6.19508 110.425 21.4181Z" fill="#031162"/>
<path d="M114.824 90.8802C114.856 91.1299 114.897 91.3876 114.945 91.6454C117.886 108.004 126.692 141.559 126.692 141.559L113.35 134.608C111.19 136.227 108.418 139.529 108.314 145.796C116.806 152.159 135.886 165.554 143.419 163.62C151.557 161.526 149.39 122.373 138.351 85.9186C134.073 71.8071 112.769 76.2854 114.824 90.8802Z" fill="#1957C2"/>
</svg>
