<svg width="909" height="938" viewBox="0 0 909 938" fill="none" xmlns="http://www.w3.org/2000/svg">
<path opacity="0.4" d="M130.943 583C202.709 583 260.886 549.392 260.886 507.935C260.886 466.478 202.709 432.871 130.943 432.871C59.1776 432.871 1 466.478 1 507.935C1 549.392 59.1776 583 130.943 583Z" fill="#D6D8E5"/>
<path d="M273.651 497.279V297.158L14.2928 303.683L14.8518 488.237C10.0069 510.452 22.3056 533.661 51.8409 550.719C102.588 580.017 184.859 580.048 235.606 550.719C261.104 535.898 273.775 516.573 273.651 497.279Z" fill="#A6CE28"/>
<path d="M143.708 372.129C215.473 372.129 273.651 338.522 273.651 297.065C273.651 255.608 215.473 222 143.708 222C71.9418 222 13.7642 255.608 13.7642 297.065C13.7642 338.522 71.9418 372.129 143.708 372.129Z" fill="#BCD64D"/>
<path d="M253.122 297.158C253.122 309.368 242.966 322.2 225.326 332.422C206.07 343.483 179.765 350.318 152.062 351.437C149.298 351.437 146.534 351.623 143.739 351.623C112.992 351.623 83.2703 344.602 62.1203 332.422C44.4799 322.2 34.3242 309.368 34.3242 297.158C34.3242 284.948 44.4799 272.116 62.1203 261.894C83.2703 249.683 112.992 242.661 143.707 242.661C146.503 242.661 149.298 242.661 152.062 242.848C179.765 243.966 206.07 250.802 225.326 261.894C242.966 272.022 253.122 284.73 253.122 297.158Z" fill="#28221C"/>
<path opacity="0.07" d="M253.122 297.158C253.122 309.368 242.966 322.2 225.326 332.422C206.07 343.483 179.765 350.318 152.062 351.437C124.359 350.318 98.0222 343.483 78.7979 332.422C61.1264 322.014 50.9707 309.275 50.9707 297.158C50.9707 285.041 61.0953 272.116 78.7358 261.894C97.9912 250.802 124.328 243.966 152.031 242.848C179.734 243.966 206.039 250.802 225.294 261.894C242.966 272.022 253.122 284.73 253.122 297.158Z" fill="white"/>
<path d="M254.644 389.777L227.065 373.807L213.648 381.575L227.065 389.342V394.437L252.936 409.351L252.159 414.136C255.917 417.243 269.303 442.099 269.303 442.099L270.235 441.229V505.636C270.235 522.538 260.327 516.821 256.104 514.367L227.065 497.589L213.648 505.326L227.065 513.062V518.157L256.104 534.935C259.038 536.695 262.164 538.113 265.421 539.161L263.682 547.239L278.713 538.757H278.931H279.148C285.36 535.09 287.999 526.173 287.999 516.169V448.592C288.124 420.039 266.228 397.638 254.644 389.777Z" fill="#8DA01F"/>
<path d="M242.687 542.796L213.648 526.018V505.326L242.687 522.103C246.911 524.527 256.818 530.275 256.818 513.342V446.075C256.818 430.168 242.438 419.169 239.985 417.429L213.648 402.205V381.575L241.227 397.544C252.843 405.405 274.583 427.837 274.583 456.391V523.719C274.583 541.895 266.29 556.404 242.687 542.796Z" fill="#99B524"/>
<path opacity="0.4" d="M509.331 859.182L378.979 783.894C369.566 778.464 370.757 768.979 381.612 762.701L466.071 713.922L630.478 808.959L546.042 857.738C535.164 864.016 518.744 864.68 509.331 859.182Z" fill="#D6D8E5"/>
<path d="M518.858 853.66L388.483 778.349C379.094 772.919 380.284 763.457 391.117 757.179L475.576 708.4L639.982 803.346L555.523 852.148C544.668 858.402 528.248 859.182 518.858 853.66Z" fill="#B1B4C4"/>
<path d="M639.982 803.346V798.374L632.401 802.75L639.982 803.346Z" fill="#B1B4C4"/>
<path d="M382.139 769.391V764.327L389.948 767.558L382.139 769.391Z" fill="#B1B4C4"/>
<path d="M518.858 848.688L388.483 773.378C379.094 767.947 380.284 758.462 391.117 752.207L475.576 703.383L639.982 798.351L555.523 847.13C544.668 853.431 528.248 854.095 518.858 848.688Z" fill="#D6D8E5"/>
<path d="M476.033 703.634L455.674 636.091L621.867 731.472L639.982 798.374L476.033 703.634Z" fill="#9EA1AF"/>
<path d="M635.172 801.146L639.981 798.374L632.768 792.738L635.172 801.146Z" fill="#9EA1AF"/>
<path d="M470.789 706.178L450.43 638.634L616.623 734.015L635.173 801.146L470.789 706.178Z" fill="#B1B4C4"/>
<path d="M892.672 914.971L249.359 543.391C240.336 538.167 233.031 524.191 233.031 512.162V14.316C233.031 2.2874 240.336 -3.25721 249.359 1.96664L892.672 373.455C901.695 378.656 909 392.632 909 404.684V902.714C909 914.65 901.695 920.195 892.672 914.971Z" fill="#C4C7D6"/>
<path d="M895.969 920.103L903.114 916.002L900.023 894.855L895.969 920.103Z" fill="#C4C7D6"/>
<path d="M231.863 5.01459L238.87 0.982147L248.947 6.73296C248.947 6.73296 238.206 8.35968 237.954 8.29095C237.702 8.22222 231.863 5.01459 231.863 5.01459Z" fill="#B1B4C4"/>
<path d="M886.765 918.385L243.452 546.805C234.429 541.581 227.101 527.605 227.101 515.576V17.7298C227.101 5.67831 234.429 0.15662 243.452 5.35755L886.742 376.938C895.765 382.162 903.093 396.138 903.093 408.189V906.013C903.116 918.064 895.788 923.586 886.765 918.385Z" fill="#E4E7F2"/>
<path d="M885.641 919.027L242.328 547.446C233.305 542.222 226 528.246 226 516.218V18.3255C226 6.29689 233.305 0.752281 242.328 5.97613L885.641 377.602C894.664 382.803 901.969 396.779 901.969 408.831V906.677C901.969 918.752 894.664 924.25 885.641 919.027Z" fill="#201D38"/>
<path opacity="0.3" d="M893.13 888.76L234.153 508.13L234.496 20.3647C234.496 15.3699 238 13.3537 242.328 15.7823L885.641 387.431C887.921 388.916 889.819 390.919 891.18 393.276C892.541 395.632 893.326 398.277 893.473 400.995L893.13 888.76Z" fill="url(#paint0_linear)"/>
<path d="M634.188 325.524L590.516 300.299V284.536L634.188 309.761V325.524Z" fill="#A298E2"/>
<path d="M735.135 383.88L642.363 330.244V314.481L735.135 368.117V383.88Z" fill="#F4CE2C"/>
<path d="M634.188 375.953L590.516 350.75V334.987L634.188 360.19V375.953Z" fill="#A298E2"/>
<path d="M673.096 398.819L642.363 380.696V364.932L673.096 383.055V398.819Z" fill="#4D3BFF"/>
<path d="M634.188 401.178L590.516 375.953V360.19L634.188 385.415V401.178Z" fill="#A298E2"/>
<path d="M694.211 435.844L642.363 405.898V390.135L694.211 420.081V435.844Z" fill="#4D3BFF"/>
<path d="M634.188 426.381L590.516 401.178V385.415L634.188 410.641V426.381Z" fill="#A298E2"/>
<path d="M779.105 509.917L642.363 431.124V415.361L779.105 494.177V509.917Z" fill="#FF8657"/>
<path d="M634.188 350.75L590.516 325.524V309.761L634.188 334.987V350.75Z" fill="#A298E2"/>
<path d="M812.701 453.967L642.363 355.47V339.707L812.701 438.204V453.967Z" fill="#A298E2"/>
<path d="M634.188 451.607L590.516 426.381V410.618L634.188 435.844V451.607Z" fill="#A298E2"/>
<path d="M789.708 543.024L642.363 456.35V440.586L789.708 527.261V543.024Z" fill="#C33AFC"/>
<path d="M634.188 502.058L590.516 476.833V461.069L634.188 486.295V502.058Z" fill="#A298E2"/>
<path d="M814.281 606.077L642.363 506.778V491.015L814.281 590.314V606.077Z" fill="#A298E2"/>
<path d="M634.188 527.261L590.516 502.058V486.295L634.188 511.498V527.261Z" fill="#A298E2"/>
<path d="M694.211 561.949L642.363 531.981V516.241L694.211 546.186V561.949Z" fill="#C33AFC"/>
<path d="M634.188 552.487L590.516 527.261V511.498L634.188 536.724V552.487Z" fill="#A298E2"/>
<path d="M748.303 618.678L642.363 557.207V541.443L748.303 602.915V618.678Z" fill="#4D3BFF"/>
<path d="M634.188 476.833L590.516 451.607V435.844L634.188 461.069V476.833Z" fill="#A298E2"/>
<path d="M661.463 492.596L642.363 481.552V465.789L661.463 476.833V492.596Z" fill="#4D3BFF"/>
<path d="M634.188 577.712L590.516 552.487V536.724L634.188 561.949V577.712Z" fill="#A298E2"/>
<path d="M710.746 621.84L642.363 582.432V566.669L710.746 606.077V621.84Z" fill="#C33AFC"/>
<path d="M634.188 628.141L590.516 602.915V587.152L634.188 612.378V628.141Z" fill="#A298E2"/>
<path d="M742.143 689.773L642.363 632.861V617.097L742.143 674.01V689.773Z" fill="#FF8657"/>
<path d="M634.188 653.367L590.516 628.141V612.378L634.188 637.603V653.367Z" fill="#A298E2"/>
<path d="M654.821 665.968L642.363 658.086V642.323L654.821 650.205V665.968Z" fill="#A298E2"/>
<path d="M634.188 678.569L590.516 653.367V637.603L634.188 662.806V678.569Z" fill="#A298E2"/>
<path d="M699.593 716.282L642.363 683.312V667.549L699.593 700.519V716.282Z" fill="#F4CE2C"/>
<path d="M634.188 602.915L590.516 577.712V561.926L634.188 587.152V602.915Z" fill="#A298E2"/>
<path d="M721.99 653.367L642.363 607.635V591.895L721.99 637.603V653.367Z" fill="#4D3BFF"/>
<path d="M351.727 167.915L308.054 142.69V126.927L351.727 152.152V167.915Z" fill="#A298E2"/>
<path d="M545.469 279.816L359.902 172.635V156.872L545.469 264.053V279.816Z" fill="#C33AFC"/>
<path d="M351.727 218.344L308.054 193.118V177.355L351.727 202.581V218.344Z" fill="#A298E2"/>
<path d="M482.698 293.998L359.902 223.064V207.3L482.698 278.235V293.998Z" fill="#F4CE2C"/>
<path d="M351.727 243.57L308.054 218.344V202.581L351.727 227.806V243.57Z" fill="#A298E2"/>
<path d="M512.721 336.545L359.902 248.289V232.526L512.721 320.782V336.545Z" fill="#FF8657"/>
<path d="M351.727 268.772L308.054 243.57V227.806L351.727 253.009V268.772Z" fill="#A298E2"/>
<path d="M466.323 334.987L359.902 273.515V257.752L466.323 319.224V334.987Z" fill="#A298E2"/>
<path d="M351.727 193.118L308.054 167.893V152.152L351.727 177.355V193.118Z" fill="#A298E2"/>
<path d="M452.674 251.451L359.902 197.861V182.098L452.674 235.688V251.451Z" fill="#4D3BFF"/>
<path d="M351.727 293.998L308.054 268.772V253.009L351.727 278.235V293.998Z" fill="#A298E2"/>
<path d="M414.475 330.244L359.902 298.718V282.955L414.475 314.481V330.244Z" fill="#C33AFC"/>
<path d="M351.727 344.426L308.054 319.201V303.46L351.727 328.663V344.426Z" fill="#A298E2"/>
<path d="M531.82 448.468L359.902 349.169V333.406L531.82 432.705V448.468Z" fill="#F4CE2C"/>
<path d="M351.727 369.652L308.054 344.426V328.663L351.727 353.889V369.652Z" fill="#A298E2"/>
<path d="M411.75 404.317L359.902 374.372V358.609L411.75 388.554V404.317Z" fill="#FF8657"/>
<path d="M351.727 394.878L308.054 369.652V353.889L351.727 379.115V394.878Z" fill="#A298E2"/>
<path d="M512.721 487.853L359.902 399.598V383.834L512.721 472.113V487.853Z" fill="#A298E2"/>
<path d="M351.727 319.224L308.054 293.998V278.235L351.727 303.46V319.224Z" fill="#A298E2"/>
<path d="M504.522 407.479L359.902 323.943V308.18L504.522 391.716V407.479Z" fill="#4D3BFF"/>
<path d="M351.727 420.081L308.054 394.855V379.115L351.727 404.317V420.081Z" fill="#A298E2"/>
<path d="M379.002 435.844L359.902 424.823V409.06L379.002 420.081V435.844Z" fill="#C33AFC"/>
<path d="M351.727 470.532L308.054 445.306V429.543L351.727 454.769V470.532Z" fill="#A298E2"/>
<path d="M395.376 495.735L359.902 475.252V459.489L395.376 479.972V495.735Z" fill="#F4CE2C"/>
<path d="M351.727 495.735L308.054 470.532V454.769L351.727 479.972V495.735Z" fill="#A298E2"/>
<path d="M452.674 554.068L359.902 500.477V484.714L452.674 538.304V554.068Z" fill="#FF8657"/>
<path d="M351.727 520.96L308.054 495.735V479.971L351.727 505.197V520.96Z" fill="#A298E2"/>
<path d="M507.247 610.797L359.902 525.68V509.917L507.247 595.034V610.797Z" fill="#A298E2"/>
<path d="M351.727 445.306L308.054 420.081V404.317L351.727 429.543V445.306Z" fill="#A298E2"/>
<path d="M545.469 557.207L359.902 450.026V434.263L545.469 541.443V557.207Z" fill="#4D3BFF"/>
<path opacity="0.4" d="M396.171 938C431.729 938 460.555 921.349 460.555 900.809C460.555 880.269 431.729 863.617 396.171 863.617C360.612 863.617 331.787 880.269 331.787 900.809C331.787 921.349 360.612 938 396.171 938Z" fill="#D6D8E5"/>
<path d="M405.356 931.116C440.914 931.116 469.74 914.465 469.74 893.925C469.74 873.385 440.914 856.734 405.356 856.734C369.797 856.734 340.971 873.385 340.971 893.925C340.971 914.465 369.797 931.116 405.356 931.116Z" fill="#D6D8E5"/>
<path d="M319.16 766.795L341.687 896.495H469.584L491.552 767.734L319.16 766.795Z" fill="#D6D8E5"/>
<path d="M405.356 815.005C453.01 815.005 491.641 792.7 491.641 765.186C491.641 737.671 453.01 715.367 405.356 715.367C357.702 715.367 319.071 737.671 319.071 765.186C319.071 792.7 357.702 815.005 405.356 815.005Z" fill="#E4E6EF"/>
<path d="M405.356 804.009C384.215 804.009 364.504 799.36 349.844 790.889C337.262 783.647 330.066 774.26 330.066 765.186C330.066 756.112 337.262 746.724 349.844 739.483C364.482 731.012 384.215 726.363 405.356 726.363C426.497 726.363 446.23 731.012 460.868 739.483C473.45 746.724 480.646 756.112 480.646 765.186C480.646 774.26 473.562 783.759 460.868 790.889C446.23 799.405 426.631 804.009 405.356 804.009Z" fill="#28221C"/>
<path d="M442.476 725.938C443.697 709.178 441.028 692.362 434.678 676.804C428.328 661.245 418.469 647.364 405.87 636.246L405.624 636V636.469C393.013 647.589 383.145 661.476 376.79 677.043C370.436 692.611 367.769 709.437 368.996 726.207L319.629 721.446C340.457 799.919 405.87 793.169 405.87 793.169V793.012C410.809 793.392 471.818 796.544 491.775 721.267L442.476 725.938Z" fill="#99B524"/>
<path d="M405.87 793.169C405.87 793.169 401.4 732.062 319.428 690.915C319.361 690.915 300.008 792.431 405.87 793.169Z" fill="#A6CE28"/>
<path d="M405.356 793.169C405.356 793.169 409.825 732.062 491.797 690.915C491.797 690.915 511.218 792.431 405.356 793.169Z" fill="#A6CE28"/>
<path opacity="0.4" d="M105.86 938L0 877.746L158.394 787.562L264.205 847.767L105.86 938Z" fill="#D6D8E5"/>
<path d="M108.041 816.555L20.3691 766.212L108.041 715.869L195.663 766.212L108.041 816.555Z" fill="#D6D8E5"/>
<path d="M108.041 917.241L20.3691 866.898V766.212L108.041 816.555V917.241Z" fill="#B1B6C4"/>
<path d="M195.713 866.898L108.041 917.241V816.555L195.713 766.212V866.898Z" fill="#C4C7D6"/>
<path d="M225.845 835.44C233.426 837.54 241.535 836.565 248.395 832.728C253.847 832.728 283.384 820.352 287.399 830.904C290.918 840.124 278.131 848.704 271.292 850.331C256.424 853.93 245.322 861.327 239.326 862.609C237.042 863.423 234.592 863.669 232.19 863.326C229.789 862.982 227.508 862.058 225.548 860.636C221.286 856.198 221.682 840.716 225.845 835.44Z" fill="#38226D"/>
<path d="M239.326 859.798C245.322 858.516 256.374 851.12 271.292 847.521C276.991 846.14 286.854 839.927 287.845 832.482C289.183 841.012 277.636 848.556 271.292 850.085C256.424 853.684 245.322 861.08 239.326 862.362C237.042 863.177 234.592 863.423 232.19 863.079C229.789 862.736 227.508 861.812 225.548 860.39C224.603 859.395 223.937 858.171 223.615 856.84C225.82 858.518 228.389 859.66 231.117 860.174C233.845 860.688 236.656 860.559 239.326 859.798Z" fill="#9C73FF"/>
<path d="M172.618 806.989C180.199 809.09 188.308 808.114 195.168 804.277C200.619 804.277 229.86 791.901 234.122 802.453C237.641 811.674 224.854 820.253 218.065 821.88C203.197 825.48 192.095 832.876 186.098 834.158C183.814 834.973 181.365 835.219 178.963 834.875C176.562 834.531 174.281 833.608 172.321 832.186C168.058 827.994 168.505 812.512 172.618 806.989Z" fill="#38226D"/>
<path d="M186.098 831.594C192.095 830.312 203.147 822.916 218.065 819.316C223.764 817.936 233.627 811.723 234.618 804.277C235.956 812.808 224.408 820.352 218.065 821.88C203.197 825.48 192.095 832.876 186.098 834.158C183.815 834.973 181.365 835.219 178.963 834.875C176.562 834.531 174.281 833.608 172.321 832.186C171.387 831.202 170.722 829.997 170.388 828.685C172.601 830.348 175.172 831.477 177.899 831.981C180.625 832.486 183.432 832.354 186.098 831.594Z" fill="#9C73FF"/>
<path d="M89.7042 770.453C112.75 780.314 134.308 782.089 152.199 772.622L170.537 762.07C171.627 785.639 172.668 808.272 172.668 808.272C172.668 808.272 186.743 818.873 197.448 809.406C197.448 809.406 199.728 776.37 202.057 743.826L221.286 732.781C220.823 734.52 220.573 736.308 220.543 738.107C220.543 744.27 225.003 836.131 225.003 836.131C225.003 836.131 239.177 844.513 250.13 835.095C250.13 835.095 257.515 728.64 259.2 711.826C261.083 692.694 239.772 683.276 226.242 688.158L205.625 695.801L206.616 683.967C208.549 664.835 187.189 655.418 173.709 660.299C161.418 664.786 78.3549 695.751 78.3549 695.751C78.8717 703.706 79.848 711.625 81.2789 719.468L48.4702 716.707C46.7356 747.229 66.7083 760.394 89.7042 770.453ZM146.996 717.545L168.951 704.972C168.585 706.511 168.353 708.078 168.257 709.656L146.996 717.545Z" fill="#8C50FF"/>
<path d="M30.7285 623.417C30.7285 623.417 33.4048 663.997 38.7573 669.865C44.1097 675.732 62.2487 679.726 62.2487 679.726L76.1751 702.309C76.1751 702.309 63.4382 629.925 60.6628 628.348C57.8874 626.77 30.7285 623.417 30.7285 623.417Z" fill="#FFCEA9"/>
<path d="M57.5395 578.3C54.1623 576.732 50.326 576.442 46.7495 577.486C43.1731 578.53 40.102 580.835 38.112 583.971C33.156 592.402 27.6548 621.445 27.1592 626.375C29.2191 629.143 31.9479 631.349 35.0927 632.789C38.2375 634.228 41.6966 634.854 45.1495 634.61L57.5395 578.3Z" fill="#EDEDED"/>
<path d="M62.446 579.04C69.4835 579.385 74.7369 581.16 75.6289 579.04C76.3845 575.427 76.9142 571.771 77.2149 568.093C76.4219 566.023 75.7281 563.853 75.7281 563.853C66.8568 558.429 64.0814 549.061 62.892 537.819C60.9096 518.835 71.2181 502.268 90.2492 500.295C108.19 498.422 121.373 510.946 124.941 528.154C126.824 536.635 130.591 552.808 125.486 566.663C122.661 574.454 118.994 580.667 115.574 581.85C112.024 581.776 108.482 581.48 104.969 580.963C104.969 580.963 104.027 586.239 103.383 589.592C102.738 592.945 102.937 594.769 109.726 598.911C116.516 603.053 99.5169 611.583 88.4154 610.745C77.314 609.906 64.8248 603.25 61.4052 595.952C57.2917 587.964 57.5891 578.596 62.446 579.04Z" fill="#FFCEA9"/>
<path d="M241.16 703.049C241.156 704.049 240.888 705.031 240.384 705.896C239.879 706.761 239.156 707.48 238.285 707.98L184.512 738.847C183.64 739.354 182.648 739.621 181.638 739.621C180.628 739.621 179.636 739.354 178.764 738.847L103.432 695.554C102.555 695.062 101.826 694.345 101.32 693.478C100.815 692.611 100.552 691.626 100.558 690.624V690.229L241.16 703.049Z" fill="#E5E5E5"/>
<path d="M238.286 707.98L184.513 738.846C183.647 739.37 182.652 739.643 181.639 739.635V703.049H241.111C241.112 704.044 240.852 705.023 240.356 705.887C239.861 706.752 239.147 707.473 238.286 707.98Z" fill="#E5E5E5"/>
<path d="M183.67 736.036C183.063 736.396 182.369 736.587 181.663 736.587C180.956 736.587 180.262 736.396 179.656 736.036L101.301 691.067C100.31 690.475 100.31 689.539 101.301 688.996L158.989 655.812L241.16 703.049L183.67 736.036Z" fill="#F4F4F4"/>
<path d="M133.466 703.049L133.863 703.246L158.99 717.693L172.767 709.755L173.164 709.558L147.64 694.913L133.466 703.049Z" fill="#BFBFBF"/>
<path d="M133.863 703.249L158.99 717.696L172.768 709.758L147.641 695.36L133.863 703.249Z" fill="#E5E5E5"/>
<path d="M219.849 705.366L223.467 707.437C223.642 707.532 223.838 707.582 224.037 707.582C224.236 707.582 224.432 707.532 224.607 707.437L228.076 705.465C228.423 705.465 228.473 704.972 228.076 704.824L224.458 702.704C224.28 702.62 224.085 702.577 223.888 702.577C223.691 702.577 223.497 702.62 223.318 702.704L219.849 704.725C219.601 704.923 219.552 705.218 219.849 705.366Z" fill="#3A2C6D"/>
<path d="M214.744 702.31L218.362 704.381C218.537 704.475 218.733 704.525 218.932 704.525C219.131 704.525 219.327 704.475 219.502 704.381L222.971 702.408C223.318 702.408 223.318 701.915 222.971 701.767L219.353 699.696C219.179 699.601 218.983 699.551 218.784 699.551C218.584 699.551 218.388 699.601 218.214 699.696L214.744 701.668C214.497 701.964 214.447 702.31 214.744 702.31Z" fill="#3A2C6D"/>
<path d="M209.59 699.499L213.208 701.57C213.395 701.654 213.597 701.698 213.802 701.698C214.008 701.698 214.21 701.654 214.397 701.57L217.817 699.598C218.164 699.598 218.213 699.104 217.817 698.907L214.199 696.836C214.024 696.741 213.828 696.692 213.629 696.692C213.43 696.692 213.234 696.741 213.059 696.836L209.59 698.809C209.342 699.006 209.293 699.302 209.59 699.499Z" fill="#3A2C6D"/>
<path d="M204.486 696.54L208.104 698.611C208.282 698.695 208.476 698.738 208.673 698.738C208.871 698.738 209.065 698.695 209.243 698.611L212.713 696.639C213.06 696.639 213.109 696.146 212.713 695.949L209.095 693.878C208.908 693.793 208.705 693.75 208.5 693.75C208.295 693.75 208.092 693.793 207.905 693.878L204.486 695.85C204.238 696.047 204.188 696.343 204.486 696.54Z" fill="#3A2C6D"/>
<path d="M199.331 693.582L202.999 695.653C203.174 695.748 203.37 695.797 203.569 695.797C203.768 695.797 203.964 695.748 204.139 695.653L207.558 693.68C207.905 693.68 207.955 693.187 207.558 693.039L203.94 690.919C203.762 690.836 203.568 690.792 203.37 690.792C203.173 690.792 202.979 690.836 202.801 690.919L199.331 692.941C199.084 693.138 199.034 693.434 199.331 693.582Z" fill="#3A2C6D"/>
<path d="M194.226 690.624L197.844 692.744C198.022 692.827 198.217 692.871 198.414 692.871C198.611 692.871 198.806 692.827 198.984 692.744L202.453 690.722C202.8 690.722 202.85 690.229 202.453 690.081L198.835 688.01C198.652 687.915 198.448 687.866 198.241 687.866C198.034 687.866 197.83 687.915 197.646 688.01L194.226 689.983C193.979 690.18 193.929 690.476 194.226 690.624Z" fill="#3A2C6D"/>
<path d="M189.122 687.517L192.74 689.588C192.918 689.672 193.112 689.715 193.31 689.715C193.507 689.715 193.701 689.672 193.879 689.588L197.349 687.616C197.696 687.616 197.696 687.123 197.349 686.926L193.731 684.855C193.553 684.771 193.358 684.728 193.161 684.728C192.964 684.728 192.769 684.771 192.591 684.855L189.122 686.827C188.824 687.221 188.824 687.517 189.122 687.517Z" fill="#3A2C6D"/>
<path d="M183.968 684.756L187.585 686.827C187.76 686.922 187.956 686.972 188.155 686.972C188.355 686.972 188.551 686.922 188.725 686.827L192.195 684.854C192.541 684.854 192.591 684.361 192.195 684.213L188.577 682.093C188.398 682.01 188.204 681.967 188.007 681.967C187.81 681.967 187.615 682.01 187.437 682.093L183.968 684.115C183.72 684.312 183.67 684.608 183.968 684.756Z" fill="#3A2C6D"/>
<path d="M178.863 681.797L182.481 683.868C182.655 683.963 182.851 684.013 183.051 684.013C183.25 684.013 183.446 683.963 183.62 683.868L187.09 681.896C187.437 681.896 187.437 681.403 187.09 681.255L183.373 679.135C183.198 679.04 183.002 678.99 182.803 678.99C182.604 678.99 182.408 679.04 182.233 679.135L178.764 681.107C178.417 681.354 178.417 681.649 178.863 681.797Z" fill="#3A2C6D"/>
<path d="M173.709 678.888L177.327 680.959C177.513 681.044 177.716 681.087 177.921 681.087C178.126 681.087 178.329 681.044 178.516 680.959L181.936 678.987C182.283 678.987 182.332 678.494 181.936 678.296L178.417 676.176C178.242 676.081 178.046 676.032 177.847 676.032C177.648 676.032 177.452 676.081 177.277 676.176L173.808 678.149C173.461 678.395 173.461 678.691 173.709 678.888Z" fill="#3A2C6D"/>
<path d="M168.505 675.93L172.123 678.001C172.301 678.084 172.496 678.127 172.693 678.127C172.89 678.127 173.084 678.084 173.263 678.001L176.732 676.028C177.079 676.028 177.128 675.535 176.732 675.338L173.461 673.218C173.274 673.133 173.071 673.09 172.866 673.09C172.661 673.09 172.458 673.133 172.271 673.218L168.852 675.19C168.505 675.437 168.505 675.732 168.505 675.93Z" fill="#3A2C6D"/>
<path d="M163.549 672.971L167.216 675.042C167.391 675.137 167.587 675.187 167.786 675.187C167.985 675.187 168.181 675.137 168.356 675.042L171.825 673.07C172.123 673.07 172.172 672.577 171.825 672.429L168.207 670.309C168.029 670.225 167.835 670.182 167.637 670.182C167.44 670.182 167.246 670.225 167.068 670.309L163.598 672.33C163.202 672.725 163.202 672.725 163.549 672.971Z" fill="#3A2C6D"/>
<path d="M158.593 670.013L162.211 672.133C162.389 672.217 162.583 672.26 162.78 672.26C162.978 672.26 163.172 672.217 163.35 672.133L166.82 670.112C167.167 670.112 167.216 669.618 166.82 669.471L163.202 667.4C163.018 667.305 162.814 667.255 162.607 667.255C162.4 667.255 162.196 667.305 162.012 667.4L158.593 669.372C158.097 669.569 158.047 669.865 158.593 670.013Z" fill="#3A2C6D"/>
<path d="M150.762 665.674L156.858 669.175C157.036 669.258 157.231 669.302 157.428 669.302C157.625 669.302 157.82 669.258 157.998 669.175L161.467 667.202C161.814 667.202 161.814 666.709 161.467 666.512L155.421 662.863C155.243 662.78 155.048 662.736 154.851 662.736C154.654 662.736 154.459 662.78 154.281 662.863L150.812 664.885C150.76 664.882 150.707 664.889 150.658 664.906C150.609 664.922 150.563 664.949 150.524 664.983C150.485 665.017 150.453 665.059 150.43 665.106C150.407 665.152 150.394 665.203 150.39 665.255C150.387 665.306 150.394 665.358 150.411 665.408C150.428 665.457 150.455 665.502 150.489 665.541C150.524 665.58 150.565 665.612 150.612 665.634C150.659 665.657 150.71 665.671 150.762 665.674Z" fill="#3A2C6D"/>
<path d="M207.261 703.838L210.929 705.909C211.103 706.004 211.299 706.054 211.499 706.054C211.698 706.054 211.894 706.004 212.068 705.909L215.538 703.936C215.835 703.936 215.885 703.444 215.538 703.296L211.92 701.225C211.745 701.13 211.549 701.08 211.35 701.08C211.151 701.08 210.955 701.13 210.78 701.225L207.311 703.197C207.013 703.394 207.013 703.69 207.261 703.838Z" fill="#3A2C6D"/>
<path d="M202.157 700.879L205.774 703C205.953 703.083 206.147 703.126 206.344 703.126C206.541 703.126 206.736 703.083 206.914 703L210.384 700.978C210.73 700.978 210.78 700.485 210.384 700.337L206.766 698.266C206.582 698.171 206.378 698.122 206.171 698.122C205.964 698.122 205.76 698.171 205.576 698.266L202.157 700.238C201.909 700.436 201.859 700.732 202.157 700.879Z" fill="#3A2C6D"/>
<path d="M197.002 697.97L200.62 700.041C200.806 700.126 201.009 700.169 201.214 700.169C201.42 700.169 201.622 700.126 201.809 700.041L205.229 698.069C205.576 698.069 205.625 697.576 205.229 697.379L201.611 695.308C201.433 695.224 201.238 695.181 201.041 695.181C200.844 695.181 200.649 695.224 200.471 695.308L197.002 697.28C196.754 697.379 196.704 697.773 197.002 697.97Z" fill="#3A2C6D"/>
<path d="M191.897 695.012L195.515 697.083C195.694 697.166 195.888 697.21 196.085 697.21C196.282 697.21 196.477 697.166 196.655 697.083L200.124 695.111C200.471 695.111 200.471 694.617 200.124 694.42L196.506 692.349C196.328 692.266 196.134 692.223 195.936 692.223C195.739 692.223 195.545 692.266 195.367 692.349L191.897 694.322C191.6 694.519 191.6 694.815 191.897 695.012Z" fill="#3A2C6D"/>
<path d="M186.792 692.054L190.41 694.174C190.588 694.257 190.783 694.3 190.98 694.3C191.177 694.3 191.372 694.257 191.55 694.174L195.019 692.152C195.366 692.152 195.416 691.659 195.019 691.511L191.401 689.44C191.218 689.345 191.014 689.296 190.807 689.296C190.6 689.296 190.396 689.345 190.212 689.44L186.792 691.413C186.544 691.61 186.495 691.906 186.792 692.054Z" fill="#3A2C6D"/>
<path d="M181.638 689.144L185.256 691.215C185.443 691.3 185.646 691.343 185.851 691.343C186.056 691.343 186.259 691.3 186.446 691.215L189.865 689.243C190.212 689.243 190.262 688.75 189.865 688.552L186.248 686.482C186.069 686.398 185.875 686.355 185.678 686.355C185.481 686.355 185.286 686.398 185.108 686.482L181.638 688.454C181.391 688.651 181.341 688.947 181.638 689.144Z" fill="#3A2C6D"/>
<path d="M176.534 686.186L180.151 688.257C180.33 688.34 180.524 688.384 180.721 688.384C180.918 688.384 181.113 688.34 181.291 688.257L184.761 686.284C185.107 686.284 185.107 685.791 184.761 685.594L181.143 683.523C180.964 683.44 180.77 683.396 180.573 683.396C180.376 683.396 180.181 683.44 180.003 683.523L176.534 685.495C176.236 685.693 176.236 685.989 176.534 686.186Z" fill="#3A2C6D"/>
<path d="M171.379 683.227L174.997 685.298C175.172 685.393 175.368 685.443 175.567 685.443C175.766 685.443 175.962 685.393 176.137 685.298L179.606 683.326C179.953 683.326 180.003 682.833 179.606 682.685L175.988 680.565C175.801 680.48 175.599 680.436 175.394 680.436C175.188 680.436 174.986 680.48 174.799 680.565L171.379 682.586C171.131 682.586 171.082 683.079 171.379 683.227Z" fill="#3A2C6D"/>
<path d="M166.225 680.269L169.892 682.34C170.067 682.435 170.263 682.485 170.462 682.485C170.662 682.485 170.858 682.435 171.032 682.34L174.502 680.368C174.799 680.368 174.848 679.875 174.502 679.727L170.884 677.656C170.709 677.561 170.513 677.511 170.314 677.511C170.115 677.511 169.919 677.561 169.744 677.656L166.275 679.628C165.977 679.825 165.977 680.121 166.225 680.269Z" fill="#3A2C6D"/>
<path d="M161.121 677.311L164.739 679.431C164.917 679.514 165.112 679.558 165.309 679.558C165.506 679.558 165.7 679.514 165.879 679.431L169.348 677.409C169.695 677.409 169.744 676.916 169.348 676.768L165.73 674.697C165.546 674.602 165.342 674.553 165.135 674.553C164.928 674.553 164.724 674.602 164.541 674.697L161.121 676.669C160.873 676.867 160.824 677.163 161.121 677.311Z" fill="#3A2C6D"/>
<path d="M155.966 674.401L159.583 676.472C159.77 676.557 159.973 676.6 160.178 676.6C160.383 676.6 160.586 676.557 160.773 676.472L164.193 674.5C164.54 674.5 164.589 674.007 164.193 673.809L160.575 671.739C160.396 671.655 160.202 671.612 160.005 671.612C159.808 671.612 159.613 671.655 159.435 671.739L155.966 673.711C155.718 673.908 155.668 674.204 155.966 674.401Z" fill="#3A2C6D"/>
<path d="M150.861 671.443L154.479 673.514C154.657 673.597 154.852 673.641 155.049 673.641C155.246 673.641 155.441 673.597 155.619 673.514L159.088 671.541C159.435 671.541 159.435 671.048 159.088 670.851L155.47 668.78C155.292 668.697 155.097 668.653 154.9 668.653C154.703 668.653 154.509 668.697 154.33 668.78L150.861 670.752C150.564 670.95 150.564 671.245 150.861 671.443Z" fill="#3A2C6D"/>
<path d="M212.415 706.796L218.511 710.297C218.689 710.381 218.884 710.424 219.081 710.424C219.278 710.424 219.473 710.381 219.651 710.297L223.12 708.325C223.467 708.325 223.517 707.832 223.12 707.634L217.024 704.133C216.837 704.049 216.635 704.005 216.429 704.005C216.224 704.005 216.021 704.049 215.835 704.133L212.415 706.155C212.167 706.352 212.118 706.648 212.415 706.796Z" fill="#3A2C6D"/>
<path d="M150.415 665.822L154.033 667.893C154.331 667.893 154.331 668.336 154.033 668.534L150.366 670.605C150.209 670.701 150.029 670.751 149.845 670.751C149.662 670.751 149.481 670.701 149.325 670.605H149.028C148.873 670.53 148.704 670.492 148.532 670.492C148.36 670.492 148.191 670.53 148.036 670.605L144.171 672.823C143.998 672.897 143.813 672.934 143.626 672.934C143.438 672.934 143.253 672.897 143.08 672.823L140.801 671.492C140.503 671.492 140.503 671.048 140.801 670.851L144.419 668.78L145.162 668.386L145.707 668.04L146.252 667.745L149.325 665.97C149.477 665.851 149.658 665.775 149.85 665.749C150.042 665.723 150.237 665.748 150.415 665.822Z" fill="#3A2C6D"/>
<path d="M199.976 716.757L203.594 718.828C203.768 718.923 203.964 718.972 204.163 718.972C204.363 718.972 204.559 718.923 204.733 718.828L208.203 716.855C208.55 716.855 208.55 716.362 208.203 716.214L204.585 714.143C204.41 714.048 204.214 713.999 204.015 713.999C203.816 713.999 203.62 714.048 203.445 714.143L199.976 716.116C199.728 716.313 199.678 716.609 199.976 716.757Z" fill="#3A2C6D"/>
<path d="M194.87 713.847L198.488 715.918C198.667 716.002 198.861 716.045 199.058 716.045C199.255 716.045 199.45 716.002 199.628 715.918L203.097 713.946C203.444 713.946 203.444 713.453 203.097 713.256L199.48 711.185C199.301 711.101 199.107 711.058 198.91 711.058C198.713 711.058 198.518 711.101 198.34 711.185L194.87 713.157C194.573 713.354 194.573 713.65 194.87 713.847Z" fill="#3A2C6D"/>
<path d="M189.717 710.889L193.384 712.96C193.559 713.055 193.755 713.105 193.954 713.105C194.153 713.105 194.349 713.055 194.524 712.96L197.993 710.988C198.291 710.988 198.34 710.494 197.993 710.347L194.376 708.275C194.201 708.181 194.005 708.131 193.806 708.131C193.606 708.131 193.411 708.181 193.236 708.275L189.767 710.297C189.469 710.445 189.469 710.741 189.717 710.889Z" fill="#3A2C6D"/>
<path d="M146.203 685.89L149.821 687.961C150.004 688.056 150.208 688.106 150.416 688.106C150.623 688.106 150.827 688.056 151.01 687.961L154.43 685.989C154.777 685.989 154.826 685.495 154.43 685.347L150.812 683.227C150.634 683.144 150.439 683.1 150.242 683.1C150.045 683.1 149.85 683.144 149.672 683.227L146.203 685.249C145.955 685.446 145.906 685.742 146.203 685.89Z" fill="#3A2C6D"/>
<path d="M141.098 682.981L144.716 685.052C144.894 685.135 145.089 685.179 145.286 685.179C145.483 685.179 145.677 685.135 145.856 685.052L149.325 683.03C149.672 683.03 149.721 682.586 149.325 682.389L145.707 680.318C145.523 680.223 145.319 680.173 145.112 680.173C144.905 680.173 144.701 680.223 144.518 680.318L141.098 682.29C140.85 682.586 140.801 682.586 141.098 682.981Z" fill="#3A2C6D"/>
<path d="M135.993 680.022L139.611 682.093C139.786 682.188 139.982 682.238 140.181 682.238C140.38 682.238 140.576 682.188 140.751 682.093L144.22 680.121C144.567 680.121 144.617 679.628 144.22 679.48L140.603 677.36C140.416 677.275 140.213 677.231 140.008 677.231C139.803 677.231 139.6 677.275 139.413 677.36L135.993 679.381C135.746 679.578 135.696 679.874 135.993 680.022Z" fill="#3A2C6D"/>
<path d="M130.889 677.064L134.507 679.184C134.685 679.268 134.88 679.311 135.077 679.311C135.274 679.311 135.468 679.268 135.647 679.184L139.116 677.162C139.463 677.162 139.463 676.669 139.116 676.521L135.448 674.45C135.274 674.355 135.078 674.306 134.878 674.306C134.679 674.306 134.483 674.355 134.309 674.45L130.839 676.423C130.641 676.62 130.591 676.916 130.889 677.064Z" fill="#3A2C6D"/>
<path d="M183.373 707.24L188.329 710.1C188.516 710.185 188.718 710.228 188.924 710.228C189.129 710.228 189.332 710.185 189.518 710.1L192.938 708.128C193.285 708.128 193.334 707.635 192.938 707.438L187.982 704.627C187.807 704.532 187.611 704.482 187.412 704.482C187.213 704.482 187.017 704.532 186.842 704.627L183.373 706.599C183.075 706.747 183.026 707.24 183.373 707.24Z" fill="#3A2C6D"/>
<path d="M151.308 688.848L156.264 691.659C156.438 691.754 156.634 691.804 156.834 691.804C157.033 691.804 157.229 691.754 157.404 691.659L160.873 689.687C161.22 689.687 161.269 689.194 160.873 688.996L155.917 686.186C155.738 686.102 155.544 686.059 155.347 686.059C155.15 686.059 154.955 686.102 154.777 686.186L151.308 688.158C151.06 688.355 151.01 688.651 151.308 688.848Z" fill="#3A2C6D"/>
<path d="M157.75 692.448L181.836 706.303C182.014 706.387 182.209 706.43 182.406 706.43C182.603 706.43 182.797 706.387 182.976 706.303L186.445 704.331C186.792 704.331 186.792 703.838 186.445 703.641L162.408 689.835C162.225 689.74 162.021 689.69 161.814 689.69C161.606 689.69 161.402 689.74 161.219 689.835L157.799 691.807C157.502 692.053 157.452 692.448 157.75 692.448Z" fill="#3A2C6D"/>
<path d="M200.917 705.909L204.535 707.98C204.71 708.075 204.906 708.125 205.105 708.125C205.304 708.125 205.5 708.075 205.675 707.98L209.144 706.008C209.491 706.008 209.541 705.514 209.144 705.317L205.526 703.246C205.34 703.162 205.137 703.118 204.932 703.118C204.726 703.118 204.524 703.162 204.337 703.246L200.917 705.219C200.669 705.416 200.62 705.712 200.917 705.909Z" fill="#3A2C6D"/>
<path d="M195.812 702.95L199.43 705.021C199.605 705.116 199.801 705.166 200 705.166C200.199 705.166 200.395 705.116 200.57 705.021L204.039 703.049C204.386 703.049 204.386 702.556 204.039 702.408L200.421 700.337C200.247 700.242 200.051 700.192 199.851 700.192C199.652 700.192 199.456 700.242 199.281 700.337L195.812 702.309C195.564 702.309 195.515 702.802 195.812 702.95Z" fill="#3A2C6D"/>
<path d="M190.658 700.041L194.326 702.112C194.504 702.196 194.698 702.239 194.895 702.239C195.093 702.239 195.287 702.196 195.465 702.112L198.935 700.14C199.232 700.14 199.282 699.647 198.935 699.45L195.317 697.379C195.138 697.295 194.944 697.252 194.747 697.252C194.55 697.252 194.355 697.295 194.177 697.379L190.708 699.351C190.41 699.548 190.41 699.844 190.658 700.041Z" fill="#3A2C6D"/>
<path d="M185.553 697.083L189.171 699.154C189.346 699.249 189.542 699.299 189.741 699.299C189.94 699.299 190.136 699.249 190.311 699.154L193.78 697.181C194.127 697.181 194.177 696.688 193.78 696.491L190.163 694.42C189.984 694.337 189.79 694.293 189.593 694.293C189.396 694.293 189.201 694.337 189.023 694.42L185.553 696.442C185.306 696.639 185.256 696.935 185.553 697.083Z" fill="#3A2C6D"/>
<path d="M180.449 694.124L184.067 696.195C184.242 696.29 184.438 696.34 184.637 696.34C184.836 696.34 185.032 696.29 185.207 696.195L188.676 694.174C189.023 694.174 189.073 693.681 188.676 693.533L185.059 691.462C184.875 691.367 184.671 691.317 184.464 691.317C184.257 691.317 184.053 691.367 183.869 691.462L180.449 693.434C180.202 693.681 180.152 693.976 180.449 694.124Z" fill="#3A2C6D"/>
<path d="M175.344 691.215L178.961 693.286C179.14 693.37 179.334 693.413 179.531 693.413C179.728 693.413 179.923 693.37 180.101 693.286L183.571 691.314C183.868 691.314 183.917 690.821 183.571 690.623L179.953 688.552C179.774 688.469 179.58 688.426 179.383 688.426C179.186 688.426 178.991 688.469 178.813 688.552L175.344 690.525C175.046 690.722 175.046 691.018 175.344 691.215Z" fill="#3A2C6D"/>
<path d="M170.19 688.257L173.808 690.328C173.992 690.423 174.196 690.472 174.403 690.472C174.61 690.472 174.814 690.423 174.998 690.328L178.417 688.355C178.764 688.355 178.814 687.862 178.417 687.714L174.799 685.594C174.621 685.511 174.426 685.467 174.229 685.467C174.032 685.467 173.838 685.511 173.659 685.594L170.19 687.616C169.942 687.813 169.893 688.109 170.19 688.257Z" fill="#3A2C6D"/>
<path d="M165.085 685.298L168.505 687.517C168.683 687.601 168.878 687.644 169.075 687.644C169.272 687.644 169.467 687.601 169.645 687.517L173.114 685.496C173.461 685.496 173.511 685.002 173.114 684.854L169.496 682.784C169.312 682.689 169.108 682.639 168.901 682.639C168.694 682.639 168.49 682.689 168.307 682.784L164.887 684.756C164.838 684.855 164.788 685.15 165.085 685.298Z" fill="#3A2C6D"/>
<path d="M159.981 682.586L163.598 684.657C163.777 684.741 163.971 684.784 164.168 684.784C164.365 684.784 164.56 684.741 164.738 684.657L168.208 682.685C168.554 682.685 168.554 682.192 168.208 681.995L164.59 679.924C164.411 679.84 164.217 679.797 164.02 679.797C163.823 679.797 163.628 679.84 163.45 679.924L159.981 681.896C159.683 681.896 159.683 682.192 159.981 682.586Z" fill="#3A2C6D"/>
<path d="M154.826 679.43L158.444 681.501C158.628 681.597 158.832 681.646 159.039 681.646C159.246 681.646 159.45 681.597 159.633 681.501L163.053 679.529C163.4 679.529 163.449 679.036 163.053 678.888L159.435 676.768C159.257 676.684 159.062 676.641 158.865 676.641C158.668 676.641 158.473 676.684 158.295 676.768L154.826 678.79C154.578 678.987 154.529 679.283 154.826 679.43Z" fill="#3A2C6D"/>
<path d="M149.722 676.472L153.34 678.592C153.518 678.676 153.712 678.719 153.91 678.719C154.107 678.719 154.301 678.676 154.479 678.592L157.949 676.571C158.296 676.571 158.345 676.077 157.949 675.93L154.331 673.859C154.147 673.764 153.943 673.714 153.736 673.714C153.529 673.714 153.325 673.764 153.141 673.859L149.722 675.831C149.474 676.028 149.424 676.324 149.722 676.472Z" fill="#3A2C6D"/>
<path d="M144.617 673.563L148.234 675.634C148.413 675.718 148.607 675.761 148.804 675.761C149.001 675.761 149.196 675.718 149.374 675.634L152.844 673.662C153.19 673.662 153.19 673.169 152.844 672.971L149.226 670.901C149.047 670.817 148.853 670.774 148.656 670.774C148.459 670.774 148.264 670.817 148.086 670.901L144.617 672.873C144.319 673.07 144.319 673.366 144.617 673.563Z" fill="#3A2C6D"/>
<path d="M206.021 708.867L213.554 713.157C213.733 713.241 213.927 713.284 214.124 713.284C214.321 713.284 214.516 713.241 214.694 713.157L218.114 711.185C218.461 711.185 218.51 710.692 218.114 710.494L210.63 706.205C210.456 706.11 210.26 706.06 210.06 706.06C209.861 706.06 209.665 706.11 209.49 706.205L206.021 708.177C205.773 708.374 205.724 708.67 206.021 708.867Z" fill="#3A2C6D"/>
<path d="M198.489 710.199L202.106 712.319C202.285 712.402 202.479 712.446 202.676 712.446C202.873 712.446 203.068 712.402 203.246 712.319L206.716 710.297C207.062 710.297 207.112 709.804 206.716 709.656L203.098 707.585C202.923 707.49 202.727 707.44 202.528 707.44C202.329 707.44 202.133 707.49 201.958 707.585L198.489 709.558C198.241 709.755 198.241 710.051 198.489 710.199Z" fill="#3A2C6D"/>
<path d="M193.285 707.24L196.903 709.311C197.081 709.395 197.276 709.438 197.473 709.438C197.67 709.438 197.865 709.395 198.043 709.311L201.512 707.339C201.859 707.339 201.909 706.846 201.512 706.648L197.845 704.577C197.666 704.494 197.472 704.451 197.275 704.451C197.078 704.451 196.883 704.494 196.705 704.577L193.285 706.55C193.285 706.796 193.285 707.24 193.285 707.24Z" fill="#3A2C6D"/>
<path d="M188.329 704.331L191.946 706.402C192.121 706.497 192.317 706.547 192.516 706.547C192.716 706.547 192.912 706.497 193.086 706.402L196.556 704.429C196.853 704.429 196.902 703.936 196.556 703.788L192.938 701.668C192.759 701.585 192.565 701.541 192.368 701.541C192.171 701.541 191.976 701.585 191.798 701.668L188.329 703.69C187.982 703.887 187.982 704.183 188.329 704.331Z" fill="#3A2C6D"/>
<path d="M183.373 701.373L186.991 703.493C187.178 703.577 187.38 703.621 187.586 703.621C187.791 703.621 187.994 703.577 188.18 703.493L191.6 701.471C191.947 701.471 191.996 700.978 191.6 700.83L187.982 698.759C187.807 698.664 187.611 698.614 187.412 698.614C187.213 698.614 187.017 698.664 186.842 698.759L183.373 700.732C182.877 700.929 182.828 701.225 183.373 701.373Z" fill="#3A2C6D"/>
<path d="M178.021 698.463L181.639 700.534C181.817 700.618 182.012 700.661 182.209 700.661C182.406 700.661 182.6 700.618 182.779 700.534L186.248 698.562C186.595 698.562 186.644 698.069 186.248 697.872L182.63 695.801C182.443 695.716 182.24 695.673 182.035 695.673C181.83 695.673 181.627 695.716 181.44 695.801L178.021 697.773C177.773 697.97 177.723 698.266 178.021 698.463Z" fill="#3A2C6D"/>
<path d="M172.916 695.505L176.534 697.576C176.709 697.671 176.905 697.72 177.104 697.72C177.303 697.72 177.499 697.671 177.674 697.576L181.143 695.604C181.49 695.604 181.49 695.11 181.143 694.963L177.525 692.892C177.35 692.797 177.154 692.747 176.955 692.747C176.756 692.747 176.56 692.797 176.385 692.892L172.916 694.864C172.619 695.061 172.619 695.357 172.916 695.505Z" fill="#3A2C6D"/>
<path d="M167.761 692.448L171.379 694.519C171.566 694.603 171.769 694.647 171.974 694.647C172.179 694.647 172.382 694.603 172.569 694.519L175.988 692.546C176.335 692.546 176.385 692.053 175.988 691.856L172.371 689.785C172.196 689.69 172 689.641 171.801 689.641C171.602 689.641 171.406 689.69 171.231 689.785L167.761 691.757C167.514 692.103 167.464 692.448 167.761 692.448Z" fill="#3A2C6D"/>
<path d="M162.657 689.637L166.274 691.708C166.449 691.803 166.645 691.853 166.844 691.853C167.044 691.853 167.239 691.803 167.414 691.708L170.883 689.736C171.23 689.736 171.28 689.243 170.883 689.046L167.266 686.975C167.079 686.89 166.876 686.847 166.671 686.847C166.466 686.847 166.263 686.89 166.076 686.975L162.657 688.996C162.409 689.144 162.359 689.44 162.657 689.637Z" fill="#3A2C6D"/>
<path d="M157.552 686.679L161.17 688.75C161.347 688.837 161.542 688.882 161.74 688.882C161.938 688.882 162.133 688.837 162.31 688.75L165.779 686.728C166.126 686.728 166.126 686.235 165.779 686.087L162.112 684.016C161.937 683.921 161.741 683.872 161.542 683.872C161.343 683.872 161.147 683.921 160.972 684.016L157.503 685.989C157.304 686.235 157.255 686.531 157.552 686.679Z" fill="#3A2C6D"/>
<path d="M152.447 683.77L156.065 685.841C156.243 685.924 156.438 685.967 156.635 685.967C156.832 685.967 157.027 685.924 157.205 685.841L160.674 683.868C160.971 683.868 161.021 683.375 160.674 683.178L157.056 681.107C156.878 681.024 156.683 680.98 156.486 680.98C156.289 680.98 156.095 681.024 155.916 681.107L152.447 683.079C152.15 683.277 152.15 683.572 152.447 683.77Z" fill="#3A2C6D"/>
<path d="M147.293 680.811L150.911 682.882C151.095 682.977 151.299 683.027 151.506 683.027C151.713 683.027 151.917 682.977 152.1 682.882L155.52 680.91C155.867 680.91 155.916 680.417 155.52 680.269L151.902 678.149C151.724 678.065 151.529 678.022 151.332 678.022C151.135 678.022 150.94 678.065 150.762 678.149L147.293 680.17C147.045 680.368 146.996 680.663 147.293 680.811Z" fill="#3A2C6D"/>
<path d="M135.845 674.253L145.757 679.973C145.935 680.056 146.13 680.1 146.327 680.1C146.524 680.1 146.718 680.056 146.897 679.973L150.366 677.951C150.713 677.951 150.762 677.458 150.366 677.31L140.454 671.591C140.27 671.495 140.066 671.446 139.859 671.446C139.652 671.446 139.448 671.495 139.264 671.591L135.845 673.563C135.597 673.76 135.547 674.056 135.845 674.253Z" fill="#3A2C6D"/>
<path d="M203.594 713.157L208.55 716.017C208.728 716.101 208.923 716.144 209.12 716.144C209.317 716.144 209.511 716.101 209.69 716.017L213.159 713.995C213.506 713.995 213.555 713.502 213.159 713.354L208.203 710.495C208.025 710.411 207.83 710.368 207.633 710.368C207.436 710.368 207.241 710.411 207.063 710.495L203.594 712.516C203.197 712.713 203.197 713.009 203.594 713.157Z" fill="#3A2C6D"/>
<path d="M241.159 703.049L158.989 655.812V591.712L159.633 590.233L160.277 589.937C161.14 589.429 162.125 589.162 163.127 589.162C164.13 589.162 165.114 589.429 165.977 589.937L241.159 633.081C242.017 633.591 242.728 634.313 243.223 635.177C243.718 636.041 243.98 637.017 243.984 638.012V698.365C243.439 701.274 242.844 702.013 241.159 703.049Z" fill="#E5E5E5"/>
<path d="M233.626 640.724L158.989 593.832V591.712L159.633 590.233L160.277 589.937C161.14 589.429 162.125 589.162 163.127 589.162C164.13 589.162 165.114 589.429 165.977 589.937L241.159 633.081C242.084 633.605 242.827 634.396 243.29 635.349L233.626 640.724Z" fill="#E5E5E5"/>
<path d="M160.872 590.085L239.772 635.399C240.187 635.643 240.533 635.988 240.776 636.402C241.018 636.817 241.151 637.286 241.16 637.765V703.049L158.989 655.812V591.17C158.983 590.948 159.038 590.729 159.146 590.536C159.255 590.342 159.414 590.182 159.607 590.071C159.8 589.96 160.019 589.902 160.242 589.905C160.464 589.907 160.682 589.97 160.872 590.085Z" fill="#DCEEFF"/>
<path d="M160.872 590.085L239.772 635.399C240.187 635.643 240.533 635.988 240.776 636.402C241.018 636.817 241.151 637.286 241.16 637.765V703.049L158.989 655.812V591.17C158.983 590.948 159.038 590.729 159.146 590.536C159.255 590.342 159.414 590.182 159.607 590.071C159.8 589.96 160.019 589.902 160.242 589.905C160.464 589.907 160.682 589.97 160.872 590.085Z" fill="#F4F4F4"/>
<path d="M241.16 703.049V700.682L158.989 653.495V655.812L241.16 703.049Z" fill="#DBDBDB"/>
<path d="M161.124 652.41V593.487L162.117 594.029V651.917L161.124 652.41Z" fill="#1E3779"/>
<path d="M162.117 594.03V651.917L238.539 695.653V637.913L162.117 594.03Z" fill="#3A2C6D"/>
<path d="M161.124 652.41L238.537 696.836V695.653L162.115 651.917L161.124 652.41Z" fill="#031F60"/>
<path d="M72.6548 579.878C70.6724 584.809 75.678 590.627 88.9105 594.67C102.143 598.714 103.332 593.487 103.332 593.487C112.158 597.422 120.762 601.833 129.104 606.701C137.033 612.224 140.552 628.249 141.642 655.269C142.881 686.531 142.981 732.88 141.94 740.917C141.94 740.917 127.072 755.709 108.09 754.082C89.1087 752.455 57.0434 735.789 49.312 722.87C49.312 695.455 52.7316 690.968 48.2712 675.19C38.0618 639.047 32.6598 624.255 37.6654 600.193C41.7293 580.47 47.5774 577.955 55.3583 578.152C61.1502 578.425 66.9237 579.001 72.6548 579.878Z" fill="#F4F4F4"/>
<path d="M172.915 688.848C157.304 692.793 153.636 682.981 151.604 674.894C146.648 655.171 143.972 637.519 140.255 626.375C135.894 613.259 131.334 611.139 124.892 608.575C117.408 605.567 110.916 611.928 113.394 628.643C116.484 648.056 121.277 667.161 127.716 685.742C129.996 694.106 134.399 701.747 140.503 707.93C148.581 714.439 160.723 714.143 179.061 709.607C189.815 705.963 200.257 701.461 210.284 696.146C214.248 694.321 217.321 693.089 225.152 689.539C232.909 686.166 239.716 680.951 244.976 674.352C248.94 668.583 249.486 665.871 248.693 664.49C247.9 663.109 245.818 663.208 243.737 665.624C240.66 669.705 236.865 673.197 232.536 675.93C232.536 675.93 237.492 670.999 240.119 667.597C242.526 664.591 244.51 661.273 246.016 657.735C247.454 654.382 244.53 649.846 242.299 652.213C240.069 654.579 239.078 657.143 235.014 662.074C232.892 664.643 230.462 666.945 227.778 668.928C230.293 665.563 232.531 662.001 234.469 658.277C236.208 655.288 237.05 651.866 236.897 648.416C236.897 646.69 234.271 644.619 231.941 647.923C229.528 652.632 226.531 657.021 223.02 660.989C219.452 664.687 216.429 666.808 216.33 665.92C216.231 665.033 218.511 662.863 219.75 658.623C220.989 654.382 219.75 649.796 217.371 649.303C214.992 648.81 215.438 648.909 213.555 652.952C210.909 657.064 208.541 661.347 206.467 665.772C205.245 669.902 203.034 673.675 200.025 676.768C196.258 680.663 187.783 685.15 172.915 688.848Z" fill="#FFCEA9"/>
<path d="M118.944 605.913C129.351 604.384 136.736 609.068 141.345 624.748C145.954 640.428 149.126 653.347 149.126 653.347C145.012 659.275 138.767 663.405 131.681 664.885C119.241 667.893 114.731 661.976 114.731 661.976C114.731 661.976 111.262 645.507 109.131 634.314C107 623.121 106.256 607.786 118.944 605.913Z" fill="#EDEDED"/>
<path d="M124.296 525.492C124.296 525.492 140.75 500.591 105.067 495.513C79.3453 491.864 62.7923 508.283 60.909 526.133C59.0752 543.193 69.6315 560.895 77.2142 567.946C84.7064 569.843 92.6404 568.894 99.4667 565.283C99.8921 560.628 100.058 555.953 99.9623 551.28C99.9623 551.28 87.4236 525.048 124.296 525.492Z" fill="#3A2C6D"/>
<path d="M195.713 840.618V765.818L135.993 800.481L158.989 847.767L195.713 840.618Z" fill="#C4C7D6"/>
<path d="M156.561 770.107L179.457 756.893L195.663 766.212L171.924 779.624L156.561 770.107Z" fill="#D6D8E5"/>
<defs>
<linearGradient id="paint0_linear" x1="234.153" y1="451.767" x2="893.473" y2="451.767" gradientUnits="userSpaceOnUse">
<stop offset="0.21" stop-color="white" stop-opacity="0"/>
<stop offset="1" stop-color="white" stop-opacity="0.2"/>
</linearGradient>
</defs>
</svg>
