<svg width="335" height="377" viewBox="0 0 335 377" fill="none" xmlns="http://www.w3.org/2000/svg">
<path opacity="0.4" d="M48.2571 215.48C74.7054 215.48 96.1459 203.059 96.1459 187.736C96.1459 172.413 74.7054 159.992 48.2571 159.992C21.8087 159.992 0.368164 172.413 0.368164 187.736C0.368164 203.059 21.8087 215.48 48.2571 215.48Z" fill="#D6D8E5"/>
<path d="M100.85 183.797V109.831L5.26707 112.243L5.47308 180.455C3.68755 188.666 8.22006 197.244 19.1049 203.549C37.8072 214.378 68.1269 214.389 86.8292 203.549C96.2262 198.071 100.896 190.928 100.85 183.797Z" fill="#A6CE28"/>
<path d="M52.9612 137.541C79.4095 137.541 100.85 125.12 100.85 109.797C100.85 94.4741 79.4095 82.0526 52.9612 82.0526C26.5129 82.0526 5.07227 94.4741 5.07227 109.797C5.07227 125.12 26.5129 137.541 52.9612 137.541Z" fill="#BCD64D"/>
<path d="M93.2845 109.831C93.2845 114.344 89.5417 119.087 83.0406 122.865C75.9442 126.953 66.2497 129.48 56.0401 129.893C55.0214 129.893 54.0028 129.962 52.9727 129.962C41.6414 129.962 30.6878 127.367 22.8933 122.865C16.3921 119.087 12.6494 114.344 12.6494 109.831C12.6494 105.318 16.3921 100.576 22.8933 96.7975C30.6878 92.2845 41.6414 89.6892 52.9612 89.6892C53.9913 89.6892 55.0214 89.6892 56.0401 89.7581C66.2497 90.1715 75.9442 92.6979 83.0406 96.7975C89.5417 100.541 93.2845 105.238 93.2845 109.831Z" fill="#28221C"/>
<path opacity="0.07" d="M93.2843 109.831C93.2843 114.344 89.5415 119.087 83.0404 122.865C75.9441 126.953 66.2495 129.48 56.0399 129.893C45.8304 129.48 36.1244 126.953 29.0395 122.865C22.5269 119.018 18.7842 114.31 18.7842 109.831C18.7842 105.353 22.5155 100.576 29.0166 96.7975C36.113 92.6978 45.8189 90.1714 56.0285 89.758C66.2381 90.1714 75.9326 92.6978 83.0289 96.7975C89.5415 100.541 93.2843 105.238 93.2843 109.831Z" fill="white"/>
<path d="M93.8456 144.064L83.6819 138.161L78.7373 141.032L83.6819 143.903V145.787L93.2161 151.299L92.93 153.067C94.3149 154.215 99.248 163.402 99.248 163.402L99.5914 163.081V186.886C99.5914 193.133 95.9402 191.02 94.3836 190.113L83.6819 183.912L78.7373 186.771L83.6819 189.631V191.514L94.3836 197.715C95.4649 198.366 96.617 198.89 97.8173 199.277L97.1764 202.263L102.716 199.128H102.796H102.876C105.165 197.773 106.138 194.477 106.138 190.779V165.802C106.184 155.249 98.1149 146.969 93.8456 144.064Z" fill="#8DA01F"/>
<path d="M89.4391 200.621L78.7373 194.42V186.771L89.4391 192.973C90.9957 193.868 94.6469 195.993 94.6469 189.734V164.872C94.6469 158.993 89.3475 154.927 88.4433 154.284L78.7373 148.657V141.032L88.9011 146.935C93.1818 149.84 101.194 158.131 101.194 168.685V193.57C101.194 200.288 98.1378 205.65 89.4391 200.621Z" fill="#99B524"/>
<path opacity="0.4" d="M187.707 317.559L139.667 289.732C136.198 287.725 136.637 284.219 140.637 281.899L171.764 263.87L232.353 298.996L201.236 317.025C197.227 319.346 191.175 319.591 187.707 317.559Z" fill="#D6D8E5"/>
<path d="M191.218 315.518L143.17 287.683C139.71 285.676 140.149 282.178 144.141 279.858L175.267 261.829L235.857 296.922L204.731 314.959C200.73 317.271 194.679 317.559 191.218 315.518Z" fill="#B1B4C4"/>
<path d="M235.857 296.922V295.084L233.062 296.701L235.857 296.922Z" fill="#B1B4C4"/>
<path d="M140.832 284.372V282.5L143.711 283.694L140.832 284.372Z" fill="#B1B4C4"/>
<path d="M191.218 313.68L143.17 285.845C139.71 283.838 140.149 280.332 144.141 278.02L175.267 259.975L235.857 295.076L204.731 313.104C200.73 315.433 194.679 315.679 191.218 313.68Z" fill="#D6D8E5"/>
<path d="M175.436 260.068L167.933 235.103L229.181 270.357L235.857 295.084L175.436 260.068Z" fill="#9EA1AF"/>
<path d="M234.085 296.109L235.858 295.084L233.198 293.001L234.085 296.109Z" fill="#9EA1AF"/>
<path d="M173.503 261.008L166 236.043L227.248 271.297L234.084 296.109L173.503 261.008Z" fill="#B1B4C4"/>
<path d="M328.983 338.179L91.8985 200.841C88.5732 198.91 85.8809 193.744 85.8809 189.298V5.29128C85.8809 0.845437 88.5732 -1.20388 91.8985 0.726881L328.983 138.031C332.308 139.954 335.001 145.119 335.001 149.574V333.648C335.001 338.06 332.308 340.11 328.983 338.179Z" fill="#C4C7D6"/>
<path d="M330.197 340.076L332.831 338.56L331.692 330.744L330.197 340.076Z" fill="#C4C7D6"/>
<path d="M85.4502 1.85324L88.0328 0.362823L91.7463 2.48836C91.7463 2.48836 87.788 3.08961 87.6952 3.0642C87.6024 3.0388 85.4502 1.85324 85.4502 1.85324Z" fill="#B1B4C4"/>
<path d="M326.805 339.441L89.7204 202.102C86.3951 200.172 83.6943 195.006 83.6943 190.56V6.55303C83.6943 2.09872 86.3951 0.0578642 89.7204 1.98016L326.796 139.319C330.122 141.249 332.822 146.415 332.822 150.869V334.868C332.831 339.322 330.13 341.363 326.805 339.441Z" fill="#E4E7F2"/>
<path d="M326.391 339.678L89.3067 202.339C85.9814 200.409 83.2891 195.243 83.2891 190.797V6.77321C83.2891 2.32737 85.9814 0.278049 89.3067 2.20881L326.391 139.564C329.716 141.486 332.409 146.652 332.409 151.106V335.114C332.409 339.576 329.716 341.609 326.391 339.678Z" fill="#201D38"/>
<path opacity="0.3" d="M329.151 328.491L86.2939 187.808L86.4205 7.5269C86.4205 5.68081 87.7118 4.9356 89.307 5.83324L326.391 143.197C327.232 143.746 327.931 144.486 328.433 145.357C328.934 146.228 329.224 147.206 329.278 148.21L329.151 328.491Z" fill="url(#paint0_linear)"/>
<path d="M233.721 120.316L217.626 110.992V105.166L233.721 114.49V120.316Z" fill="#A298E2"/>
<path d="M270.924 141.885L236.734 122.06V116.234L270.924 136.058V141.885Z" fill="#F4CE2C"/>
<path d="M233.721 138.955L217.626 129.639V123.813L233.721 133.128V138.955Z" fill="#A298E2"/>
<path d="M248.061 147.406L236.734 140.707V134.881L248.061 141.58V147.406Z" fill="#4D3BFF"/>
<path d="M233.721 148.278L217.626 138.954V133.128L233.721 142.452V148.278Z" fill="#A298E2"/>
<path d="M255.842 161.091L236.734 150.023V144.196L255.842 155.264V161.091Z" fill="#4D3BFF"/>
<path d="M233.721 157.593L217.626 148.278V142.452L233.721 151.775V157.593Z" fill="#A298E2"/>
<path d="M287.129 188.468L236.734 159.346V153.52L287.129 182.651V188.468Z" fill="#FF8657"/>
<path d="M233.721 129.639L217.626 120.316V114.49L233.721 123.813V129.639Z" fill="#A298E2"/>
<path d="M299.51 167.789L236.734 131.384V125.558L299.51 161.963V167.789Z" fill="#A298E2"/>
<path d="M233.721 166.917L217.626 157.593V151.767L233.721 161.091V166.917Z" fill="#A298E2"/>
<path d="M291.037 200.705L236.734 168.67V162.843L291.037 194.879V200.705Z" fill="#C33AFC"/>
<path d="M233.721 185.564L217.626 176.24V170.414L233.721 179.738V185.564Z" fill="#A298E2"/>
<path d="M300.093 224.01L236.734 187.308V181.482L300.093 218.184V224.01Z" fill="#A298E2"/>
<path d="M233.721 194.879L217.626 185.564V179.738L233.721 189.053V194.879Z" fill="#A298E2"/>
<path d="M255.842 207.7L236.734 196.623V190.806L255.842 201.874V207.7Z" fill="#C33AFC"/>
<path d="M233.721 204.203L217.626 194.879V189.053L233.721 198.376V204.203Z" fill="#A298E2"/>
<path d="M275.777 228.667L236.734 205.947V200.121L275.777 222.841V228.667Z" fill="#4D3BFF"/>
<path d="M233.721 176.24L217.626 166.917V161.091L233.721 170.414V176.24Z" fill="#A298E2"/>
<path d="M243.773 182.066L236.734 177.985V172.159L243.773 176.24V182.066Z" fill="#4D3BFF"/>
<path d="M233.721 213.526L217.626 204.203V198.376L233.721 207.7V213.526Z" fill="#A298E2"/>
<path d="M261.936 229.836L236.734 215.271V209.444L261.936 224.01V229.836Z" fill="#C33AFC"/>
<path d="M233.721 232.165L217.626 222.841V217.015L233.721 226.339V232.165Z" fill="#A298E2"/>
<path d="M273.507 254.944L236.734 233.909V228.083L273.507 249.118V254.944Z" fill="#FF8657"/>
<path d="M233.721 241.488L217.626 232.165V226.339L233.721 235.662V241.488Z" fill="#A298E2"/>
<path d="M241.326 246.146L236.734 243.233V237.407L241.326 240.32V246.146Z" fill="#A298E2"/>
<path d="M233.721 250.803L217.626 241.488V235.662L233.721 244.977V250.803Z" fill="#A298E2"/>
<path d="M257.826 264.742L236.734 252.556V246.73L257.826 258.916V264.742Z" fill="#F4CE2C"/>
<path d="M233.721 222.841L217.626 213.526V207.691L233.721 217.015V222.841Z" fill="#A298E2"/>
<path d="M266.08 241.488L236.734 224.586V218.768L266.08 235.662V241.488Z" fill="#4D3BFF"/>
<path d="M129.624 62.0626L113.529 52.739V46.9128L129.624 56.2364V62.0626Z" fill="#A298E2"/>
<path d="M201.025 103.422L132.637 63.807V57.9809L201.025 97.5955V103.422Z" fill="#C33AFC"/>
<path d="M129.624 80.7013L113.529 71.3777V65.5515L129.624 74.8751V80.7013Z" fill="#A298E2"/>
<path d="M177.891 108.663L132.637 82.4457V76.6195L177.891 102.837V108.663Z" fill="#F4CE2C"/>
<path d="M129.624 90.0248L113.529 80.7012V74.8751L129.624 84.1986V90.0248Z" fill="#A298E2"/>
<path d="M188.956 124.389L132.637 91.7693V85.9431L188.956 118.563V124.389Z" fill="#FF8657"/>
<path d="M129.624 99.3399L113.529 90.0248V84.1986L129.624 93.5137V99.3399Z" fill="#A298E2"/>
<path d="M171.857 123.813L132.637 101.093V95.2667L171.857 117.987V123.813Z" fill="#A298E2"/>
<path d="M129.624 71.3777L113.529 62.0541V56.2365L129.624 65.5515V71.3777Z" fill="#A298E2"/>
<path d="M166.827 92.9379L132.637 73.1306V67.3044L166.827 87.1117V92.9379Z" fill="#4D3BFF"/>
<path d="M129.624 108.663L113.529 99.3399V93.5137L129.624 102.837V108.663Z" fill="#A298E2"/>
<path d="M152.749 122.06L132.637 110.408V104.582L152.749 116.234V122.06Z" fill="#C33AFC"/>
<path d="M129.624 127.302L113.529 117.979V112.161L129.624 121.476V127.302Z" fill="#A298E2"/>
<path d="M195.995 165.757L132.637 129.055V123.229L195.995 159.93V165.757Z" fill="#F4CE2C"/>
<path d="M129.624 136.626L113.529 127.302V121.476L129.624 130.8V136.626Z" fill="#A298E2"/>
<path d="M151.745 149.438L132.637 138.37V132.544L151.745 143.612V149.438Z" fill="#FF8657"/>
<path d="M129.624 145.949L113.529 136.626V130.799L129.624 140.123V145.949Z" fill="#A298E2"/>
<path d="M188.956 180.314L132.637 147.694V141.868L188.956 174.496V180.314Z" fill="#A298E2"/>
<path d="M129.624 117.987L113.529 108.663V102.837L129.624 112.161V117.987Z" fill="#A298E2"/>
<path d="M185.934 150.607L132.637 119.731V113.905L185.934 144.781V150.607Z" fill="#4D3BFF"/>
<path d="M129.624 155.264L113.529 145.941V140.123L129.624 149.438V155.264Z" fill="#A298E2"/>
<path d="M139.676 161.091L132.637 157.017V151.191L139.676 155.264V161.091Z" fill="#C33AFC"/>
<path d="M129.624 173.912L113.529 164.588V158.762L129.624 168.085V173.912Z" fill="#A298E2"/>
<path d="M145.71 183.227L132.637 175.656V169.83L145.71 177.4V183.227Z" fill="#F4CE2C"/>
<path d="M129.624 183.227L113.529 173.911V168.085L129.624 177.4V183.227Z" fill="#A298E2"/>
<path d="M166.827 204.787L132.637 184.98V179.153L166.827 198.961V204.787Z" fill="#FF8657"/>
<path d="M129.624 192.55L113.529 183.227V177.4L129.624 186.724V192.55Z" fill="#A298E2"/>
<path d="M186.939 225.754L132.637 194.295V188.469L186.939 219.928V225.754Z" fill="#A298E2"/>
<path d="M129.624 164.588L113.529 155.264V149.438L129.624 158.762V164.588Z" fill="#A298E2"/>
<path d="M201.025 205.947L132.637 166.332V160.506L201.025 200.121V205.947Z" fill="#4D3BFF"/>
<path opacity="0.4" d="M146.003 346.691C159.108 346.691 169.731 340.536 169.731 332.944C169.731 325.353 159.108 319.198 146.003 319.198C132.899 319.198 122.275 325.353 122.275 332.944C122.275 340.536 132.899 346.691 146.003 346.691Z" fill="#D6D8E5"/>
<path d="M149.388 344.146C162.493 344.146 173.116 337.992 173.116 330.4C173.116 322.808 162.493 316.654 149.388 316.654C136.284 316.654 125.66 322.808 125.66 330.4C125.66 337.992 136.284 344.146 149.388 344.146Z" fill="#D6D8E5"/>
<path d="M117.622 283.412L125.924 331.35H173.059L181.155 283.759L117.622 283.412Z" fill="#D6D8E5"/>
<path d="M149.388 301.231C166.95 301.231 181.188 292.987 181.188 282.817C181.188 272.648 166.95 264.404 149.388 264.404C131.826 264.404 117.589 272.648 117.589 282.817C117.589 292.987 131.826 301.231 149.388 301.231Z" fill="#E4E6EF"/>
<path d="M149.388 297.167C141.597 297.167 134.332 295.448 128.93 292.317C124.293 289.641 121.641 286.171 121.641 282.817C121.641 279.464 124.293 275.994 128.93 273.317C134.324 270.187 141.597 268.468 149.388 268.468C157.179 268.468 164.452 270.187 169.846 273.317C174.483 275.994 177.135 279.464 177.135 282.817C177.135 286.171 174.524 289.682 169.846 292.317C164.452 295.465 157.229 297.167 149.388 297.167Z" fill="#28221C"/>
<path d="M163.068 268.311C163.518 262.117 162.535 255.901 160.195 250.151C157.855 244.4 154.221 239.27 149.578 235.16L149.487 235.07V235.243C144.84 239.353 141.203 244.486 138.861 250.239C136.519 255.993 135.536 262.212 135.988 268.41L117.795 266.651C125.471 295.655 149.578 293.16 149.578 293.16V293.102C151.398 293.243 173.882 294.407 181.237 266.585L163.068 268.311Z" fill="#99B524"/>
<path d="M149.578 293.16C149.578 293.16 147.93 270.575 117.721 255.367C117.696 255.367 110.564 292.888 149.578 293.16Z" fill="#A6CE28"/>
<path d="M149.388 293.16C149.388 293.16 151.035 270.575 181.245 255.367C181.245 255.367 188.402 292.888 149.388 293.16Z" fill="#A6CE28"/>
<path opacity="0.4" d="M39.0135 346.691L0 324.42L58.3741 291.088L97.3693 313.34L39.0135 346.691Z" fill="#D6D8E5"/>
<path d="M39.8171 301.804L7.50684 283.197L39.8171 264.59L72.1092 283.197L39.8171 301.804Z" fill="#D6D8E5"/>
<path d="M39.8171 339.018L7.50684 320.411V283.197L39.8171 301.804V339.018Z" fill="#B1B6C4"/>
<path d="M72.1277 320.411L39.8174 339.018V301.804L72.1277 283.197V320.411Z" fill="#C4C7D6"/>
<path d="M83.2329 308.784C86.0268 309.56 89.0152 309.2 91.5433 307.781C93.5524 307.781 104.438 303.207 105.918 307.107C107.214 310.515 102.502 313.686 99.9816 314.288C94.5022 315.618 90.4109 318.352 88.2009 318.825C87.3591 319.127 86.4564 319.218 85.5713 319.09C84.6862 318.963 83.8458 318.622 83.1233 318.096C81.5525 316.456 81.6986 310.734 83.2329 308.784Z" fill="#38226D"/>
<path d="M88.2011 317.787C90.4111 317.313 94.4841 314.579 99.9818 313.249C102.082 312.739 105.717 310.442 106.082 307.69C106.575 310.843 102.32 313.632 99.9818 314.197C94.5024 315.527 90.4111 318.261 88.2011 318.734C87.3593 319.035 86.4565 319.127 85.5715 318.999C84.6864 318.872 83.846 318.531 83.1235 318.005C82.7753 317.638 82.5297 317.185 82.4111 316.693C83.2238 317.314 84.1707 317.736 85.176 317.926C86.1814 318.115 87.2174 318.068 88.2011 317.787Z" fill="#9C73FF"/>
<path d="M63.6169 298.268C66.4109 299.045 69.3993 298.684 71.9274 297.266C73.9365 297.266 84.7127 292.692 86.2835 296.592C87.5802 300 82.8679 303.171 80.3657 303.772C74.8863 305.102 70.795 307.836 68.5849 308.31C67.7432 308.611 66.8404 308.702 65.9554 308.575C65.0703 308.448 64.2298 308.107 63.5074 307.581C61.9366 306.032 62.101 300.309 63.6169 298.268Z" fill="#38226D"/>
<path d="M68.5848 307.362C70.7949 306.888 74.8679 304.155 80.3656 302.824C82.466 302.314 86.1007 300.018 86.466 297.266C86.9591 300.419 82.7035 303.207 80.3656 303.772C74.8862 305.102 70.7949 307.836 68.5848 308.31C67.7431 308.611 66.8403 308.702 65.9553 308.575C65.0702 308.448 64.2297 308.107 63.5072 307.581C63.1632 307.217 62.918 306.772 62.7949 306.287C63.6105 306.902 64.558 307.319 65.5629 307.506C66.5677 307.692 67.6023 307.643 68.5848 307.362Z" fill="#9C73FF"/>
<path d="M33.0602 284.764C41.5533 288.409 49.4985 289.065 56.092 285.566L62.85 281.666C63.2518 290.377 63.6354 298.742 63.6354 298.742C63.6354 298.742 68.8225 302.66 72.7677 299.161C72.7677 299.161 73.6079 286.951 74.4663 274.923L81.5531 270.84C81.3823 271.483 81.2903 272.144 81.2791 272.809C81.2791 275.087 82.9229 309.039 82.9229 309.039C82.9229 309.039 88.1466 312.137 92.1831 308.656C92.1831 308.656 94.9046 269.31 95.5256 263.095C96.2196 256.024 88.3658 252.543 83.3795 254.347L75.7814 257.172L76.1467 252.798C76.859 245.727 68.9869 242.246 64.0189 244.051C59.4893 245.709 28.8776 257.154 28.8776 257.154C29.0681 260.094 29.4279 263.021 29.9552 265.92L17.864 264.899C17.2247 276.18 24.5854 281.046 33.0602 284.764ZM54.1742 265.209L62.2655 260.562C62.1307 261.131 62.0451 261.71 62.0098 262.293L54.1742 265.209Z" fill="#8C50FF"/>
<path d="M11.3262 230.419C11.3262 230.419 12.3125 245.417 14.2851 247.586C16.2576 249.755 22.9425 251.231 22.9425 251.231L28.0749 259.578C28.0749 259.578 23.3809 232.824 22.3581 232.241C21.3352 231.658 11.3262 230.419 11.3262 230.419Z" fill="#FFCEA9"/>
<path d="M21.206 213.743C19.9614 213.164 18.5476 213.057 17.2295 213.442C15.9115 213.828 14.7797 214.68 14.0463 215.839C12.2198 218.956 10.1924 229.69 10.0098 231.512C10.7689 232.535 11.7746 233.351 12.9336 233.883C14.0925 234.415 15.3673 234.646 16.6399 234.556L21.206 213.743Z" fill="#EDEDED"/>
<path d="M23.0146 214.017C25.6082 214.144 27.5442 214.8 27.873 214.017C28.1514 212.681 28.3466 211.33 28.4575 209.971C28.1652 209.205 27.9095 208.404 27.9095 208.404C24.6401 206.399 23.6173 202.936 23.179 198.781C22.4484 191.765 26.2474 185.641 33.2611 184.912C39.8729 184.22 44.7313 188.849 46.0464 195.209C46.7404 198.344 48.1286 204.321 46.2473 209.442C45.2062 212.322 43.8546 214.618 42.5944 215.056C41.2859 215.028 39.9804 214.919 38.6857 214.727C38.6857 214.727 38.3387 216.677 38.1012 217.917C37.8638 219.156 37.9368 219.83 40.4391 221.361C42.9414 222.892 36.6766 226.045 32.5853 225.735C28.494 225.425 23.8913 222.965 22.631 220.268C21.115 217.315 21.2246 213.853 23.0146 214.017Z" fill="#FFCEA9"/>
<path d="M88.8766 259.851C88.8752 260.221 88.7766 260.584 88.5907 260.904C88.4048 261.223 88.1381 261.489 87.8173 261.674L68 273.082C67.6786 273.27 67.313 273.368 66.9407 273.368C66.5684 273.368 66.2028 273.27 65.8813 273.082L38.119 257.081C37.7956 256.899 37.5269 256.634 37.3406 256.314C37.1543 255.994 37.0573 255.629 37.0596 255.259V255.113L88.8766 259.851Z" fill="#E5E5E5"/>
<path d="M87.817 261.674L67.9998 273.082C67.6807 273.276 67.3138 273.377 66.9404 273.374V259.851H88.8581C88.8585 260.219 88.7627 260.581 88.5801 260.9C88.3975 261.22 88.1345 261.487 87.817 261.674Z" fill="#E5E5E5"/>
<path d="M67.6905 272.043C67.4669 272.177 67.2112 272.247 66.9508 272.247C66.6903 272.247 66.4347 272.177 66.211 272.043L37.3345 255.423C36.9692 255.204 36.9692 254.858 37.3345 254.657L58.5947 242.392L88.8776 259.851L67.6905 272.043Z" fill="#F4F4F4"/>
<path d="M49.1875 259.851L49.3336 259.924L58.5938 265.264L63.6714 262.33L63.8175 262.257L54.4112 256.844L49.1875 259.851Z" fill="#BFBFBF"/>
<path d="M49.335 259.926L58.5952 265.266L63.6728 262.332L54.4126 257.01L49.335 259.926Z" fill="#E5E5E5"/>
<path d="M81.0228 260.708L82.3561 261.473C82.4205 261.508 82.4927 261.527 82.5661 261.527C82.6395 261.527 82.7118 261.508 82.7762 261.473L84.0547 260.744C84.1826 260.744 84.2008 260.562 84.0547 260.507L82.7214 259.724C82.6557 259.693 82.584 259.677 82.5113 259.677C82.4387 259.677 82.367 259.693 82.3013 259.724L81.0228 260.471C80.9314 260.544 80.9132 260.653 81.0228 260.708Z" fill="#3A2C6D"/>
<path d="M79.1419 259.578L80.4752 260.343C80.5397 260.378 80.6119 260.397 80.6853 260.397C80.7587 260.397 80.8309 260.378 80.8953 260.343L82.1739 259.614C82.3017 259.614 82.3017 259.432 82.1739 259.377L80.8405 258.612C80.7761 258.577 80.7039 258.559 80.6305 258.559C80.5571 258.559 80.4849 258.577 80.4204 258.612L79.1419 259.341C79.0506 259.45 79.0323 259.578 79.1419 259.578Z" fill="#3A2C6D"/>
<path d="M77.2415 258.539L78.5748 259.305C78.6437 259.336 78.7184 259.352 78.794 259.352C78.8696 259.352 78.9443 259.336 79.0132 259.305L80.2734 258.576C80.4013 258.576 80.4196 258.393 80.2734 258.32L78.9401 257.555C78.8757 257.52 78.8035 257.502 78.7301 257.502C78.6567 257.502 78.5845 257.52 78.52 257.555L77.2415 258.284C77.1502 258.357 77.1319 258.466 77.2415 258.539Z" fill="#3A2C6D"/>
<path d="M75.3607 257.446L76.694 258.211C76.7597 258.242 76.8314 258.258 76.904 258.258C76.9766 258.258 77.0484 258.242 77.1141 258.211L78.3926 257.482C78.5205 257.482 78.5387 257.3 78.3926 257.227L77.0593 256.462C76.9904 256.43 76.9157 256.414 76.8401 256.414C76.7645 256.414 76.6898 256.43 76.6209 256.462L75.3607 257.191C75.2693 257.263 75.2511 257.373 75.3607 257.446Z" fill="#3A2C6D"/>
<path d="M73.4612 256.352L74.8128 257.118C74.8772 257.153 74.9495 257.171 75.0229 257.171C75.0963 257.171 75.1685 257.153 75.2329 257.118L76.4932 256.389C76.621 256.389 76.6393 256.206 76.4932 256.152L75.1599 255.368C75.0942 255.337 75.0224 255.321 74.9498 255.321C74.8772 255.321 74.8055 255.337 74.7398 255.368L73.4612 256.115C73.3699 256.188 73.3517 256.297 73.4612 256.352Z" fill="#3A2C6D"/>
<path d="M71.5804 255.259L72.9137 256.042C72.9794 256.073 73.0511 256.089 73.1237 256.089C73.1964 256.089 73.2681 256.073 73.3338 256.042L74.6123 255.295C74.7402 255.295 74.7584 255.113 74.6123 255.058L73.279 254.293C73.2113 254.258 73.1361 254.239 73.0598 254.239C72.9835 254.239 72.9083 254.258 72.8406 254.293L71.5804 255.022C71.4891 255.095 71.4708 255.204 71.5804 255.259Z" fill="#3A2C6D"/>
<path d="M69.6984 254.111L71.0317 254.876C71.0974 254.907 71.1692 254.923 71.2418 254.923C71.3144 254.923 71.3861 254.907 71.4518 254.876L72.7303 254.147C72.8582 254.147 72.8582 253.965 72.7303 253.892L71.397 253.127C71.3313 253.096 71.2596 253.08 71.187 253.08C71.1144 253.08 71.0426 253.096 70.9769 253.127L69.6984 253.855C69.5888 254.001 69.5888 254.111 69.6984 254.111Z" fill="#3A2C6D"/>
<path d="M67.7991 253.09L69.1325 253.855C69.1969 253.89 69.2691 253.909 69.3425 253.909C69.4159 253.909 69.4881 253.89 69.5525 253.855L70.8311 253.126C70.9589 253.126 70.9772 252.944 70.8311 252.89L69.4977 252.106C69.432 252.075 69.3603 252.059 69.2877 252.059C69.2151 252.059 69.1434 252.075 69.0777 252.106L67.7991 252.853C67.7078 252.926 67.6895 253.035 67.7991 253.09Z" fill="#3A2C6D"/>
<path d="M65.9183 251.997L67.2516 252.762C67.3161 252.797 67.3883 252.815 67.4617 252.815C67.5351 252.815 67.6073 252.797 67.6717 252.762L68.9503 252.033C69.0781 252.033 69.0781 251.851 68.9503 251.796L67.5804 251.012C67.516 250.977 67.4438 250.959 67.3704 250.959C67.297 250.959 67.2247 250.977 67.1603 251.012L65.8818 251.741C65.7539 251.833 65.7539 251.942 65.9183 251.997Z" fill="#3A2C6D"/>
<path d="M64.0186 250.921L65.3519 251.687C65.4208 251.718 65.4955 251.734 65.5711 251.734C65.6467 251.734 65.7214 251.718 65.7903 251.687L67.0505 250.958C67.1784 250.958 67.1967 250.775 67.0505 250.703L65.7538 249.919C65.6893 249.884 65.6171 249.865 65.5437 249.865C65.4703 249.865 65.3981 249.884 65.3337 249.919L64.0551 250.648C63.9273 250.739 63.9273 250.848 64.0186 250.921Z" fill="#3A2C6D"/>
<path d="M62.1006 249.828L63.4339 250.593C63.4996 250.624 63.5713 250.64 63.644 250.64C63.7166 250.64 63.7883 250.624 63.854 250.593L65.1325 249.864C65.2604 249.864 65.2786 249.682 65.1325 249.609L63.9271 248.825C63.8582 248.794 63.7835 248.778 63.7079 248.778C63.6323 248.778 63.5575 248.794 63.4887 248.825L62.2284 249.554C62.1006 249.646 62.1006 249.755 62.1006 249.828Z" fill="#3A2C6D"/>
<path d="M60.2744 248.734L61.626 249.5C61.6904 249.535 61.7626 249.553 61.836 249.553C61.9094 249.553 61.9817 249.535 62.0461 249.5L63.3246 248.771C63.4342 248.771 63.4525 248.589 63.3246 248.534L61.9913 247.75C61.9256 247.719 61.8539 247.703 61.7812 247.703C61.7086 247.703 61.6369 247.719 61.5712 247.75L60.2926 248.497C60.1465 248.643 60.1465 248.643 60.2744 248.734Z" fill="#3A2C6D"/>
<path d="M58.4476 247.641L59.781 248.425C59.8467 248.455 59.9184 248.471 59.991 248.471C60.0636 248.471 60.1353 248.455 60.201 248.425L61.4796 247.677C61.6074 247.677 61.6257 247.495 61.4796 247.44L60.1462 246.675C60.0786 246.64 60.0034 246.622 59.9271 246.622C59.8508 246.622 59.7756 246.64 59.7079 246.675L58.4476 247.404C58.265 247.477 58.2467 247.586 58.4476 247.641Z" fill="#3A2C6D"/>
<path d="M55.5621 246.037L57.8086 247.331C57.8743 247.362 57.9461 247.378 58.0187 247.378C58.0913 247.378 58.163 247.362 58.2287 247.331L59.5073 246.602C59.6351 246.602 59.6351 246.42 59.5073 246.347L57.279 244.998C57.2133 244.968 57.1415 244.952 57.0689 244.952C56.9963 244.952 56.9246 244.968 56.8589 244.998L55.5803 245.746C55.5612 245.744 55.5419 245.747 55.5237 245.753C55.5055 245.759 55.4888 245.769 55.4743 245.782C55.4599 245.795 55.4482 245.81 55.4397 245.827C55.4313 245.844 55.4263 245.863 55.4251 245.882C55.4239 245.901 55.4265 245.921 55.4327 245.939C55.439 245.957 55.4487 245.974 55.4614 245.988C55.4742 246.002 55.4896 246.014 55.5069 246.023C55.5241 246.031 55.5429 246.036 55.5621 246.037Z" fill="#3A2C6D"/>
<path d="M76.3837 260.143L77.7353 260.908C77.7998 260.943 77.872 260.962 77.9454 260.962C78.0188 260.962 78.091 260.943 78.1554 260.908L79.434 260.179C79.5436 260.179 79.5618 259.997 79.434 259.942L78.1006 259.177C78.0362 259.142 77.964 259.123 77.8906 259.123C77.8172 259.123 77.745 259.142 77.6805 259.177L76.402 259.906C76.2924 259.979 76.2924 260.088 76.3837 260.143Z" fill="#3A2C6D"/>
<path d="M74.5023 259.049L75.8356 259.833C75.9013 259.864 75.973 259.88 76.0456 259.88C76.1182 259.88 76.19 259.864 76.2557 259.833L77.5342 259.086C77.6621 259.086 77.6803 258.904 77.5342 258.849L76.2009 258.083C76.1332 258.048 76.058 258.03 75.9817 258.03C75.9054 258.03 75.8302 258.048 75.7625 258.083L74.5023 258.812C74.4109 258.885 74.3927 258.995 74.5023 259.049Z" fill="#3A2C6D"/>
<path d="M72.6028 257.974L73.9362 258.74C74.005 258.771 74.0797 258.787 74.1553 258.787C74.231 258.787 74.3057 258.771 74.3745 258.74L75.6348 258.011C75.7626 258.011 75.7809 257.828 75.6348 257.755L74.3015 256.99C74.2358 256.959 74.164 256.943 74.0914 256.943C74.0188 256.943 73.9471 256.959 73.8814 256.99L72.6028 257.719C72.5115 257.756 72.4933 257.901 72.6028 257.974Z" fill="#3A2C6D"/>
<path d="M70.7218 256.881L72.0552 257.646C72.1209 257.677 72.1926 257.693 72.2652 257.693C72.3378 257.693 72.4096 257.677 72.4753 257.646L73.7538 256.917C73.8816 256.917 73.8816 256.735 73.7538 256.662L72.4205 255.897C72.3548 255.866 72.283 255.85 72.2104 255.85C72.1378 255.85 72.0661 255.866 72.0004 255.897L70.7218 256.626C70.6123 256.698 70.6123 256.808 70.7218 256.881Z" fill="#3A2C6D"/>
<path d="M68.8401 255.787L70.1735 256.571C70.2392 256.602 70.3109 256.618 70.3835 256.618C70.4561 256.618 70.5279 256.602 70.5936 256.571L71.8721 255.824C72 255.824 72.0182 255.641 71.8721 255.587L70.5388 254.821C70.4711 254.786 70.3959 254.768 70.3196 254.768C70.2433 254.768 70.1681 254.786 70.1004 254.821L68.8401 255.55C68.7488 255.623 68.7306 255.733 68.8401 255.787Z" fill="#3A2C6D"/>
<path d="M66.9407 254.712L68.2741 255.477C68.3429 255.509 68.4176 255.525 68.4932 255.525C68.5688 255.525 68.6436 255.509 68.7124 255.477L69.9727 254.748C70.1005 254.748 70.1188 254.566 69.9727 254.493L68.6394 253.728C68.5737 253.697 68.5019 253.681 68.4293 253.681C68.3567 253.681 68.285 253.697 68.2193 253.728L66.9407 254.457C66.8494 254.53 66.8311 254.639 66.9407 254.712Z" fill="#3A2C6D"/>
<path d="M65.0597 253.619L66.3931 254.384C66.4588 254.415 66.5305 254.431 66.6031 254.431C66.6757 254.431 66.7474 254.415 66.8132 254.384L68.0917 253.655C68.2195 253.655 68.2195 253.473 68.0917 253.4L66.7584 252.634C66.6927 252.603 66.6209 252.587 66.5483 252.587C66.4757 252.587 66.404 252.603 66.3383 252.634L65.0597 253.363C64.9501 253.436 64.9501 253.546 65.0597 253.619Z" fill="#3A2C6D"/>
<path d="M63.1605 252.525L64.4938 253.29C64.5582 253.326 64.6304 253.344 64.7038 253.344C64.7772 253.344 64.8495 253.326 64.9139 253.29L66.1924 252.561C66.3203 252.561 66.3385 252.379 66.1924 252.325L64.8591 251.541C64.7902 251.51 64.7155 251.493 64.6399 251.493C64.5643 251.493 64.4896 251.51 64.4207 251.541L63.1605 252.288C63.0691 252.288 63.0509 252.47 63.1605 252.525Z" fill="#3A2C6D"/>
<path d="M61.2607 251.432L62.6123 252.197C62.6767 252.232 62.7489 252.251 62.8223 252.251C62.8957 252.251 62.968 252.232 63.0324 252.197L64.3109 251.468C64.4205 251.468 64.4388 251.286 64.3109 251.231L62.9776 250.466C62.9132 250.431 62.8409 250.412 62.7675 250.412C62.6942 250.412 62.6219 250.431 62.5575 250.466L61.279 251.195C61.1694 251.268 61.1694 251.377 61.2607 251.432Z" fill="#3A2C6D"/>
<path d="M59.3792 250.338L60.7125 251.122C60.7782 251.153 60.85 251.169 60.9226 251.169C60.9952 251.169 61.0669 251.153 61.1326 251.122L62.4112 250.375C62.539 250.375 62.5573 250.192 62.4112 250.138L61.0778 249.372C61.0101 249.337 60.935 249.319 60.8587 249.319C60.7823 249.319 60.7072 249.337 60.6395 249.372L59.3792 250.101C59.2879 250.174 59.2696 250.283 59.3792 250.338Z" fill="#3A2C6D"/>
<path d="M57.4798 249.263L58.8131 250.028C58.882 250.059 58.9567 250.076 59.0323 250.076C59.1079 250.076 59.1826 250.059 59.2515 250.028L60.5117 249.299C60.6396 249.299 60.6579 249.117 60.5117 249.044L59.1784 248.279C59.1127 248.248 59.041 248.232 58.9684 248.232C58.8958 248.232 58.824 248.248 58.7583 248.279L57.4798 249.008C57.3885 249.081 57.3702 249.19 57.4798 249.263Z" fill="#3A2C6D"/>
<path d="M55.5978 248.169L56.9311 248.935C56.9968 248.966 57.0686 248.982 57.1412 248.982C57.2138 248.982 57.2855 248.966 57.3512 248.935L58.6298 248.206C58.7576 248.206 58.7576 248.024 58.6298 247.951L57.2964 247.185C57.2307 247.154 57.159 247.138 57.0864 247.138C57.0138 247.138 56.942 247.154 56.8763 247.185L55.5978 247.914C55.4882 247.987 55.4882 248.096 55.5978 248.169Z" fill="#3A2C6D"/>
<path d="M78.2835 261.236L80.5301 262.53C80.5958 262.561 80.6675 262.577 80.7401 262.577C80.8127 262.577 80.8845 262.561 80.9502 262.53L82.2287 261.801C82.3566 261.801 82.3748 261.619 82.2287 261.546L79.9821 260.252C79.9133 260.221 79.8386 260.205 79.7629 260.205C79.6873 260.205 79.6126 260.221 79.5438 260.252L78.2835 260.999C78.1922 261.072 78.1739 261.182 78.2835 261.236Z" fill="#3A2C6D"/>
<path d="M55.4341 246.092L56.7675 246.857C56.8771 246.857 56.8771 247.021 56.7675 247.094L55.4159 247.86C55.3582 247.895 55.2918 247.914 55.2241 247.914C55.1564 247.914 55.09 247.895 55.0323 247.86H54.9227C54.8658 247.832 54.8033 247.818 54.7401 247.818C54.6768 247.818 54.6144 247.832 54.5574 247.86L53.1328 248.68C53.0693 248.707 53.0009 248.721 52.9319 248.721C52.8628 248.721 52.7945 248.707 52.731 248.68L51.8908 248.188C51.7812 248.188 51.7812 248.024 51.8908 247.951L53.2241 247.185L53.4981 247.039L53.699 246.912L53.8999 246.803L55.0323 246.147C55.0884 246.103 55.1552 246.074 55.2258 246.065C55.2964 246.055 55.3683 246.065 55.4341 246.092Z" fill="#3A2C6D"/>
<path d="M73.6985 264.918L75.0319 265.683C75.0963 265.718 75.1685 265.737 75.2419 265.737C75.3153 265.737 75.3875 265.718 75.452 265.683L76.7305 264.954C76.8583 264.954 76.8583 264.772 76.7305 264.717L75.3972 263.952C75.3327 263.917 75.2605 263.898 75.1871 263.898C75.1137 263.898 75.0415 263.917 74.9771 263.952L73.6985 264.681C73.6072 264.754 73.589 264.863 73.6985 264.918Z" fill="#3A2C6D"/>
<path d="M71.8175 263.842L73.1509 264.608C73.2166 264.639 73.2883 264.655 73.3609 264.655C73.4335 264.655 73.5053 264.639 73.571 264.608L74.8495 263.879C74.9773 263.879 74.9773 263.697 74.8495 263.624L73.5162 262.858C73.4505 262.827 73.3787 262.811 73.3061 262.811C73.2335 262.811 73.1618 262.827 73.0961 262.858L71.8175 263.587C71.708 263.66 71.708 263.77 71.8175 263.842Z" fill="#3A2C6D"/>
<path d="M69.9179 262.749L71.2695 263.514C71.3339 263.55 71.4062 263.568 71.4796 263.568C71.553 263.568 71.6252 263.55 71.6896 263.514L72.9681 262.785C73.0777 262.785 73.096 262.603 72.9681 262.548L71.6348 261.783C71.5704 261.748 71.4982 261.73 71.4248 261.73C71.3514 261.73 71.2791 261.748 71.2147 261.783L69.9362 262.53C69.8266 262.585 69.8266 262.694 69.9179 262.749Z" fill="#3A2C6D"/>
<path d="M53.8821 253.509L55.2155 254.275C55.2831 254.31 55.3583 254.328 55.4346 254.328C55.5109 254.328 55.5861 254.31 55.6538 254.275L56.9141 253.546C57.0419 253.546 57.0602 253.363 56.9141 253.309L55.5808 252.525C55.5151 252.494 55.4433 252.478 55.3707 252.478C55.2981 252.478 55.2264 252.494 55.1607 252.525L53.8821 253.272C53.7908 253.345 53.7725 253.455 53.8821 253.509Z" fill="#3A2C6D"/>
<path d="M52.0003 252.434L53.3336 253.199C53.3993 253.23 53.4711 253.246 53.5437 253.246C53.6163 253.246 53.688 253.23 53.7537 253.199L55.0322 252.452C55.1601 252.452 55.1784 252.288 55.0322 252.215L53.6989 251.45C53.6312 251.415 53.5561 251.396 53.4797 251.396C53.4034 251.396 53.3283 251.415 53.2606 251.45L52.0003 252.179C51.909 252.288 51.8907 252.288 52.0003 252.434Z" fill="#3A2C6D"/>
<path d="M50.1185 251.34L51.4518 252.106C51.5162 252.141 51.5884 252.159 51.6618 252.159C51.7352 252.159 51.8075 252.141 51.8719 252.106L53.1504 251.377C53.2783 251.377 53.2965 251.195 53.1504 251.14L51.8171 250.356C51.7483 250.325 51.6735 250.309 51.5979 250.309C51.5223 250.309 51.4476 250.325 51.3787 250.356L50.1185 251.104C50.0271 251.176 50.0089 251.286 50.1185 251.34Z" fill="#3A2C6D"/>
<path d="M48.2378 250.247L49.5711 251.031C49.6368 251.061 49.7085 251.077 49.7812 251.077C49.8538 251.077 49.9255 251.061 49.9912 251.031L51.2697 250.283C51.3976 250.283 51.3976 250.101 51.2697 250.046L49.9181 249.281C49.8537 249.246 49.7815 249.228 49.7081 249.228C49.6347 249.228 49.5625 249.246 49.4981 249.281L48.2195 250.01C48.1465 250.083 48.1282 250.192 48.2378 250.247Z" fill="#3A2C6D"/>
<path d="M67.5804 261.4L69.4069 262.457C69.4757 262.489 69.5504 262.505 69.626 262.505C69.7016 262.505 69.7764 262.489 69.8452 262.457L71.1055 261.728C71.2333 261.728 71.2516 261.546 71.1055 261.473L69.279 260.434C69.2146 260.399 69.1424 260.381 69.069 260.381C68.9956 260.381 68.9233 260.399 68.8589 260.434L67.5804 261.163C67.4708 261.218 67.4525 261.4 67.5804 261.4Z" fill="#3A2C6D"/>
<path d="M55.763 254.603L57.5895 255.641C57.6539 255.677 57.7261 255.695 57.7995 255.695C57.8729 255.695 57.9451 255.677 58.0096 255.641L59.2881 254.912C59.4159 254.912 59.4342 254.73 59.2881 254.657L57.4616 253.619C57.3959 253.588 57.3242 253.572 57.2516 253.572C57.179 253.572 57.1072 253.588 57.0415 253.619L55.763 254.348C55.6717 254.42 55.6534 254.53 55.763 254.603Z" fill="#3A2C6D"/>
<path d="M58.1371 255.933L67.0138 261.054C67.0795 261.085 67.1512 261.101 67.2238 261.101C67.2964 261.101 67.3681 261.085 67.4339 261.054L68.7124 260.325C68.8402 260.325 68.8402 260.143 68.7124 260.07L59.854 254.967C59.7863 254.932 59.7111 254.914 59.6348 254.914C59.5585 254.914 59.4833 254.932 59.4156 254.967L58.1554 255.696C58.0458 255.787 58.0275 255.933 58.1371 255.933Z" fill="#3A2C6D"/>
<path d="M74.0452 260.908L75.3786 261.674C75.443 261.709 75.5152 261.727 75.5886 261.727C75.662 261.727 75.7342 261.709 75.7986 261.674L77.0772 260.945C77.205 260.945 77.2233 260.762 77.0772 260.69L75.7438 259.924C75.675 259.893 75.6003 259.877 75.5247 259.877C75.4491 259.877 75.3743 259.893 75.3055 259.924L74.0452 260.653C73.9539 260.726 73.9356 260.835 74.0452 260.908Z" fill="#3A2C6D"/>
<path d="M72.1644 259.815L73.4977 260.58C73.5621 260.615 73.6343 260.634 73.7077 260.634C73.7811 260.634 73.8534 260.615 73.9178 260.58L75.1963 259.851C75.3242 259.851 75.3242 259.669 75.1963 259.614L73.863 258.849C73.7986 258.814 73.7263 258.795 73.6529 258.795C73.5795 258.795 73.5073 258.814 73.4429 258.849L72.1644 259.578C72.073 259.578 72.0548 259.76 72.1644 259.815Z" fill="#3A2C6D"/>
<path d="M70.2646 258.74L71.6162 259.505C71.6819 259.536 71.7536 259.552 71.8262 259.552C71.8989 259.552 71.9706 259.536 72.0363 259.505L73.3148 258.776C73.4244 258.776 73.4427 258.594 73.3148 258.521L71.9815 257.755C71.9158 257.725 71.8441 257.709 71.7714 257.709C71.6988 257.709 71.6271 257.725 71.5614 257.755L70.2829 258.484C70.1733 258.557 70.1733 258.667 70.2646 258.74Z" fill="#3A2C6D"/>
<path d="M68.3831 257.646L69.7164 258.412C69.7809 258.447 69.8531 258.465 69.9265 258.465C69.9999 258.465 70.0721 258.447 70.1365 258.412L71.4151 257.683C71.5429 257.683 71.5612 257.5 71.4151 257.427L70.0817 256.662C70.016 256.631 69.9443 256.615 69.8717 256.615C69.7991 256.615 69.7274 256.631 69.6616 256.662L68.3831 257.409C68.2918 257.482 68.2735 257.591 68.3831 257.646Z" fill="#3A2C6D"/>
<path d="M66.5023 256.553L67.8356 257.318C67.9 257.353 67.9722 257.372 68.0456 257.372C68.119 257.372 68.1912 257.353 68.2557 257.318L69.5342 256.571C69.6621 256.571 69.6803 256.389 69.5342 256.334L68.2009 255.569C68.1332 255.533 68.058 255.515 67.9817 255.515C67.9054 255.515 67.8302 255.533 67.7625 255.569L66.5023 256.298C66.4109 256.389 66.3927 256.498 66.5023 256.553Z" fill="#3A2C6D"/>
<path d="M64.6213 255.477L65.9546 256.243C66.0203 256.274 66.092 256.29 66.1646 256.29C66.2372 256.29 66.309 256.274 66.3747 256.243L67.6532 255.514C67.7628 255.514 67.781 255.332 67.6532 255.259L66.3199 254.493C66.2542 254.462 66.1824 254.446 66.1098 254.446C66.0372 254.446 65.9655 254.462 65.8998 254.493L64.6213 255.222C64.5117 255.295 64.5117 255.405 64.6213 255.477Z" fill="#3A2C6D"/>
<path d="M62.722 254.384L64.0553 255.149C64.123 255.185 64.1982 255.203 64.2745 255.203C64.3508 255.203 64.426 255.185 64.4937 255.149L65.7539 254.42C65.8818 254.42 65.9 254.238 65.7539 254.183L64.4206 253.4C64.3549 253.369 64.2832 253.353 64.2106 253.353C64.1379 253.353 64.0662 253.369 64.0005 253.4L62.722 254.147C62.6307 254.22 62.6124 254.329 62.722 254.384Z" fill="#3A2C6D"/>
<path d="M60.8408 253.29L62.101 254.111C62.1667 254.141 62.2385 254.158 62.3111 254.158C62.3837 254.158 62.4554 254.141 62.5211 254.111L63.7997 253.363C63.9275 253.363 63.9458 253.181 63.7997 253.126L62.4663 252.361C62.3986 252.326 62.3235 252.308 62.2472 252.308C62.1709 252.308 62.0957 252.326 62.028 252.361L60.7677 253.09C60.7494 253.126 60.7312 253.236 60.8408 253.29Z" fill="#3A2C6D"/>
<path d="M58.9591 252.288L60.2925 253.054C60.3582 253.084 60.4299 253.1 60.5025 253.1C60.5751 253.1 60.6469 253.084 60.7126 253.054L61.9911 252.325C62.1189 252.325 62.1189 252.142 61.9911 252.069L60.6578 251.304C60.5921 251.273 60.5203 251.257 60.4477 251.257C60.3751 251.257 60.3034 251.273 60.2377 251.304L58.9591 252.033C58.8496 252.033 58.8496 252.142 58.9591 252.288Z" fill="#3A2C6D"/>
<path d="M57.0599 251.122L58.3932 251.887C58.4609 251.922 58.5361 251.941 58.6124 251.941C58.6887 251.941 58.7639 251.922 58.8316 251.887L60.0918 251.158C60.2197 251.158 60.2379 250.976 60.0918 250.921L58.7585 250.138C58.6928 250.107 58.6211 250.091 58.5485 250.091C58.4758 250.091 58.4041 250.107 58.3384 250.138L57.0599 250.885C56.9685 250.958 56.9503 251.067 57.0599 251.122Z" fill="#3A2C6D"/>
<path d="M55.178 250.028L56.5114 250.812C56.5771 250.843 56.6488 250.859 56.7214 250.859C56.794 250.859 56.8657 250.843 56.9315 250.812L58.21 250.065C58.3378 250.065 58.3561 249.882 58.21 249.828L56.8767 249.062C56.809 249.027 56.7338 249.009 56.6575 249.009C56.5812 249.009 56.506 249.027 56.4383 249.062L55.178 249.791C55.0867 249.864 55.0684 249.974 55.178 250.028Z" fill="#3A2C6D"/>
<path d="M53.297 248.953L54.6304 249.719C54.6961 249.749 54.7678 249.765 54.8404 249.765C54.913 249.765 54.9847 249.749 55.0504 249.719L56.329 248.99C56.4568 248.99 56.4568 248.807 56.329 248.734L54.9957 247.969C54.93 247.938 54.8582 247.922 54.7856 247.922C54.713 247.922 54.6413 247.938 54.5756 247.969L53.297 248.698C53.1874 248.771 53.1874 248.88 53.297 248.953Z" fill="#3A2C6D"/>
<path d="M75.9271 262.002L78.7033 263.587C78.769 263.618 78.8407 263.634 78.9133 263.634C78.986 263.634 79.0577 263.618 79.1234 263.587L80.3836 262.858C80.5115 262.858 80.5298 262.676 80.3836 262.603L77.6257 261.018C77.5613 260.983 77.489 260.964 77.4156 260.964C77.3422 260.964 77.27 260.983 77.2056 261.018L75.9271 261.747C75.8357 261.819 75.8175 261.929 75.9271 262.002Z" fill="#3A2C6D"/>
<path d="M73.1505 262.494L74.4838 263.277C74.5495 263.308 74.6213 263.324 74.6939 263.324C74.7665 263.324 74.8382 263.308 74.9039 263.277L76.1825 262.53C76.3103 262.53 76.3286 262.348 76.1825 262.293L74.8491 261.528C74.7847 261.493 74.7125 261.474 74.6391 261.474C74.5657 261.474 74.4935 261.493 74.4291 261.528L73.1505 262.257C73.0592 262.33 73.0592 262.439 73.1505 262.494Z" fill="#3A2C6D"/>
<path d="M71.2334 261.4L72.5667 262.166C72.6324 262.197 72.7042 262.213 72.7768 262.213C72.8494 262.213 72.9211 262.197 72.9868 262.166L74.2653 261.437C74.3932 261.437 74.4115 261.255 74.2653 261.182L72.9137 260.416C72.848 260.385 72.7763 260.369 72.7037 260.369C72.6311 260.369 72.5594 260.385 72.4937 260.416L71.2334 261.145C71.2334 261.236 71.2334 261.4 71.2334 261.4Z" fill="#3A2C6D"/>
<path d="M69.4064 260.325L70.7398 261.09C70.8042 261.126 70.8764 261.144 70.9498 261.144C71.0232 261.144 71.0954 261.126 71.1598 261.09L72.4384 260.361C72.548 260.361 72.5662 260.179 72.4384 260.125L71.1051 259.341C71.0394 259.31 70.9676 259.294 70.895 259.294C70.8224 259.294 70.7507 259.31 70.685 259.341L69.4064 260.088C69.2786 260.161 69.2786 260.27 69.4064 260.325Z" fill="#3A2C6D"/>
<path d="M67.5804 259.232L68.9138 260.015C68.9826 260.046 69.0573 260.063 69.1329 260.063C69.2086 260.063 69.2833 260.046 69.3521 260.015L70.6124 259.268C70.7402 259.268 70.7585 259.086 70.6124 259.031L69.2791 258.266C69.2146 258.231 69.1424 258.212 69.069 258.212C68.9956 258.212 68.9234 258.231 68.859 258.266L67.5804 258.995C67.3978 259.068 67.3795 259.177 67.5804 259.232Z" fill="#3A2C6D"/>
<path d="M65.6077 258.156L66.9411 258.922C67.0068 258.953 67.0785 258.969 67.1511 258.969C67.2237 258.969 67.2954 258.953 67.3611 258.922L68.6397 258.193C68.7675 258.193 68.7858 258.011 68.6397 257.938L67.3063 257.172C67.2375 257.141 67.1628 257.125 67.0872 257.125C67.0116 257.125 66.9368 257.141 66.868 257.172L65.6077 257.901C65.5164 257.974 65.4981 258.083 65.6077 258.156Z" fill="#3A2C6D"/>
<path d="M63.7257 257.063L65.0591 257.828C65.1235 257.863 65.1957 257.882 65.2691 257.882C65.3425 257.882 65.4147 257.863 65.4792 257.828L66.7577 257.099C66.8855 257.099 66.8855 256.917 66.7577 256.862L65.4244 256.097C65.3599 256.062 65.2877 256.044 65.2143 256.044C65.1409 256.044 65.0687 256.062 65.0043 256.097L63.7257 256.826C63.6162 256.899 63.6162 257.008 63.7257 257.063Z" fill="#3A2C6D"/>
<path d="M61.8265 255.933L63.1598 256.698C63.2286 256.73 63.3034 256.746 63.379 256.746C63.4546 256.746 63.5293 256.73 63.5982 256.698L64.8584 255.969C64.9863 255.969 65.0045 255.787 64.8584 255.714L63.5251 254.949C63.4607 254.914 63.3885 254.895 63.3151 254.895C63.2417 254.895 63.1694 254.914 63.105 254.949L61.8265 255.678C61.7351 255.805 61.7169 255.933 61.8265 255.933Z" fill="#3A2C6D"/>
<path d="M59.9456 254.894L61.2789 255.66C61.3434 255.695 61.4156 255.713 61.489 255.713C61.5624 255.713 61.6346 255.695 61.699 255.66L62.9776 254.931C63.1054 254.931 63.1237 254.748 62.9776 254.675L61.6442 253.91C61.5754 253.879 61.5007 253.863 61.4251 253.863C61.3494 253.863 61.2747 253.879 61.2059 253.91L59.9456 254.657C59.8543 254.712 59.836 254.821 59.9456 254.894Z" fill="#3A2C6D"/>
<path d="M58.064 253.801L59.3973 254.566C59.4626 254.598 59.5345 254.615 59.6073 254.615C59.6802 254.615 59.752 254.598 59.8174 254.566L61.0959 253.819C61.2238 253.819 61.2238 253.637 61.0959 253.582L59.7443 252.817C59.6799 252.782 59.6077 252.763 59.5343 252.763C59.4609 252.763 59.3886 252.782 59.3242 252.817L58.0457 253.546C57.9726 253.637 57.9544 253.746 58.064 253.801Z" fill="#3A2C6D"/>
<path d="M56.1828 252.725L57.5161 253.491C57.5818 253.522 57.6535 253.538 57.7261 253.538C57.7988 253.538 57.8705 253.522 57.9362 253.491L59.2147 252.762C59.3243 252.762 59.3426 252.58 59.2147 252.507L57.8814 251.741C57.8157 251.711 57.744 251.694 57.6714 251.694C57.5987 251.694 57.527 251.711 57.4613 251.741L56.1828 252.47C56.0732 252.543 56.0732 252.653 56.1828 252.725Z" fill="#3A2C6D"/>
<path d="M54.2835 251.632L55.6168 252.397C55.6845 252.433 55.7597 252.451 55.836 252.451C55.9123 252.451 55.9875 252.433 56.0552 252.397L57.3155 251.668C57.4433 251.668 57.4616 251.486 57.3155 251.432L55.9821 250.648C55.9164 250.617 55.8447 250.601 55.7721 250.601C55.6995 250.601 55.6277 250.617 55.562 250.648L54.2835 251.395C54.1922 251.468 54.1739 251.577 54.2835 251.632Z" fill="#3A2C6D"/>
<path d="M50.0648 249.208L53.7177 251.322C53.7834 251.353 53.8551 251.369 53.9277 251.369C54.0004 251.369 54.0721 251.353 54.1378 251.322L55.4163 250.575C55.5442 250.575 55.5624 250.393 55.4163 250.338L51.7634 248.224C51.6957 248.189 51.6205 248.171 51.5442 248.171C51.4679 248.171 51.3927 248.189 51.325 248.224L50.0648 248.953C49.9734 249.026 49.9552 249.135 50.0648 249.208Z" fill="#3A2C6D"/>
<path d="M75.0324 263.587L76.8589 264.644C76.9246 264.675 76.9963 264.691 77.069 264.691C77.1416 264.691 77.2133 264.675 77.279 264.644L78.5575 263.897C78.6854 263.897 78.7036 263.715 78.5575 263.66L76.7311 262.603C76.6654 262.572 76.5936 262.556 76.521 262.556C76.4484 262.556 76.3767 262.572 76.311 262.603L75.0324 263.35C74.8863 263.423 74.8863 263.533 75.0324 263.587Z" fill="#3A2C6D"/>
<path d="M88.8767 259.851L58.5938 242.392V218.7L58.8312 218.154L59.0686 218.044C59.3867 217.857 59.7494 217.758 60.1189 217.758C60.4883 217.758 60.851 217.857 61.1691 218.044L88.8767 233.991C89.1929 234.179 89.4549 234.446 89.6373 234.765C89.8197 235.085 89.9163 235.446 89.9177 235.813V258.12C89.7168 259.195 89.4977 259.469 88.8767 259.851Z" fill="#E5E5E5"/>
<path d="M86.1004 236.816L58.5938 219.484V218.7L58.8312 218.154L59.0686 218.044C59.3867 217.857 59.7494 217.758 60.1189 217.758C60.4883 217.758 60.851 217.857 61.1691 218.044L88.8767 233.991C89.2175 234.184 89.4914 234.477 89.6621 234.829L86.1004 236.816Z" fill="#E5E5E5"/>
<path d="M59.288 218.1L88.3654 234.848C88.5184 234.938 88.6457 235.066 88.7352 235.219C88.8247 235.372 88.8735 235.545 88.8768 235.723V259.852L58.5939 242.393V218.501C58.5918 218.419 58.6118 218.338 58.6518 218.266C58.6919 218.195 58.7505 218.135 58.8216 218.094C58.8926 218.053 58.9734 218.032 59.0555 218.033C59.1376 218.034 59.2179 218.057 59.288 218.1Z" fill="#DCEEFF"/>
<path d="M59.288 218.1L88.3654 234.848C88.5184 234.938 88.6457 235.066 88.7352 235.219C88.8247 235.372 88.8735 235.545 88.8768 235.723V259.852L58.5939 242.393V218.501C58.5918 218.419 58.6118 218.338 58.6518 218.266C58.6919 218.195 58.7505 218.135 58.8216 218.094C58.8926 218.053 58.9734 218.032 59.0555 218.033C59.1376 218.034 59.2179 218.057 59.288 218.1Z" fill="#F4F4F4"/>
<path d="M88.8767 259.851V258.976L58.5938 241.536V242.392L88.8767 259.851Z" fill="#DBDBDB"/>
<path d="M59.3809 241.135V219.356L59.747 219.557V240.952L59.3809 241.135Z" fill="#1E3779"/>
<path d="M59.7471 219.557V240.952L87.9113 257.117V235.777L59.7471 219.557Z" fill="#3A2C6D"/>
<path d="M59.3809 241.135L87.9104 257.555V257.117L59.7462 240.952L59.3809 241.135Z" fill="#031F60"/>
<path d="M26.7768 214.327C26.0462 216.149 27.891 218.299 32.7676 219.794C37.6443 221.288 38.0827 219.356 38.0827 219.356C41.3353 220.811 44.5059 222.441 47.5803 224.241C50.5027 226.282 51.7995 232.205 52.2013 242.192C52.6579 253.746 52.6944 270.877 52.3109 273.847C52.3109 273.847 46.8315 279.315 39.8361 278.713C32.8407 278.112 21.0234 271.952 18.1741 267.177C18.1741 257.045 19.4344 255.386 17.7906 249.554C14.028 236.196 12.0372 230.729 13.8819 221.835C15.3796 214.545 17.5349 213.616 20.4024 213.689C22.537 213.79 24.6647 214.003 26.7768 214.327Z" fill="#F4F4F4"/>
<path d="M63.7265 254.603C57.9731 256.06 56.6215 252.434 55.8726 249.445C54.0462 242.155 53.0599 235.631 51.69 231.512C50.0827 226.664 48.4024 225.881 46.028 224.933C43.27 223.821 40.8773 226.172 41.7905 232.35C42.9296 239.525 44.6958 246.587 47.0691 253.454C47.9091 256.546 49.5319 259.37 51.7814 261.655C54.7585 264.061 59.2334 263.952 65.9913 262.275C69.9548 260.928 73.8029 259.264 77.4981 257.3C78.9593 256.625 80.0917 256.17 82.9775 254.858C85.8363 253.611 88.345 251.684 90.2834 249.245C91.7446 247.112 91.9455 246.11 91.6532 245.6C91.361 245.089 90.5939 245.126 89.8268 246.019C88.6931 247.527 87.2945 248.818 85.6989 249.828C85.6989 249.828 87.5254 248.005 88.4934 246.748C89.3805 245.637 90.1117 244.411 90.6669 243.103C91.1966 241.864 90.119 240.187 89.2971 241.062C88.4752 241.937 88.1099 242.884 86.6122 244.707C85.83 245.656 84.9345 246.507 83.9455 247.24C84.8723 245.996 85.6969 244.68 86.4113 243.303C87.0521 242.199 87.3626 240.934 87.3062 239.659C87.3062 239.021 86.3382 238.255 85.4798 239.476C84.5902 241.217 83.4858 242.839 82.1921 244.306C80.8771 245.673 79.7629 246.456 79.7264 246.128C79.6898 245.8 80.53 244.998 80.9866 243.431C81.4433 241.864 80.9866 240.169 80.1099 239.987C79.2332 239.804 79.3976 239.841 78.7036 241.335C77.7286 242.855 76.856 244.438 76.0917 246.074C75.6411 247.6 74.8264 248.994 73.7173 250.138C72.3292 251.577 69.2059 253.236 63.7265 254.603Z" fill="#FFCEA9"/>
<path d="M43.8354 223.949C47.671 223.384 50.3925 225.115 52.0911 230.911C53.7897 236.706 54.9587 241.481 54.9587 241.481C53.4425 243.672 51.1411 245.199 48.5295 245.746C43.945 246.857 42.2829 244.67 42.2829 244.67C42.2829 244.67 41.0044 238.583 40.219 234.446C39.4336 230.309 39.1597 224.642 43.8354 223.949Z" fill="#EDEDED"/>
<path d="M45.8082 194.225C45.8082 194.225 51.8721 185.022 38.7215 183.145C29.2421 181.796 23.1417 187.865 22.4476 194.462C21.7718 200.768 25.6622 207.31 28.4567 209.916C31.2178 210.618 34.1418 210.267 36.6576 208.932C36.8143 207.212 36.8753 205.484 36.8402 203.756C36.8402 203.756 32.2192 194.061 45.8082 194.225Z" fill="#3A2C6D"/>
<path d="M72.1272 310.697V283.051L50.1182 295.863L58.593 313.34L72.1272 310.697Z" fill="#C4C7D6"/>
<path d="M57.6982 284.636L66.1365 279.752L72.1091 283.197L63.3603 288.154L57.6982 284.636Z" fill="#D6D8E5"/>
<path opacity="0.15" d="M166.662 370.378C166.662 370.378 167.873 376.832 185.503 376.832C203.132 376.832 216.732 376.272 226.216 376.832C235.7 377.392 253.074 376.758 251.625 371.771C250.176 366.785 241.012 365.99 231.953 366.109C222.893 366.228 217.845 367.258 212.993 367.3C208.141 367.341 207.776 362.144 197.101 362.37C186.426 362.599 179.445 366.142 175.317 365.936C171.187 365.728 166.095 369.22 166.662 370.378Z" fill="black"/>
<path d="M237.473 266.192C237.473 266.192 245.915 287.189 244.926 291.011C243.938 294.834 233.491 291.72 233.491 291.72L236.927 266.871" fill="#1957C2"/>
<path d="M195.779 359.947V299.915" stroke="#4E405C" stroke-width="5.5952" stroke-miterlimit="10"/>
<path d="M179.688 336.94C179.688 332.171 210.54 332.171 210.54 336.94" stroke="#4E405C" stroke-width="5.5952" stroke-miterlimit="10"/>
<path d="M203.622 297.7L215.648 364.713" stroke="#4E405C" stroke-width="5.5952" stroke-miterlimit="10"/>
<path d="M218.32 364.21H212.583V367.514H218.32V364.21Z" fill="#4E405C"/>
<path d="M198.648 358.881H192.911V362.37H198.648V358.881Z" fill="#4E405C"/>
<path d="M186.388 297.701L174.362 364.713" stroke="#4E405C" stroke-width="5.5952" stroke-miterlimit="10"/>
<path d="M171.69 367.515H177.427V363.669H171.69V367.515Z" fill="#4E405C"/>
<path d="M179.688 336.095C179.688 340.864 210.54 340.864 210.54 336.095" stroke="#4E405C" stroke-width="5.5952" stroke-miterlimit="10"/>
<path d="M217.269 296.093C217.269 294.322 207.731 292.89 195.967 292.89C184.202 292.89 174.664 294.322 174.664 296.09V296.093V296.096V296.099V296.102V296.105V296.108V296.111V296.114V296.117V296.12V296.123V296.126V296.129V296.132V296.135V296.138V296.141V296.144V296.147V296.15V296.153V296.155V296.158V296.161V296.164V296.167V296.17V296.173V296.176V296.179V296.182V296.185V296.188V296.191V296.194V296.197V296.2V296.203V296.206V296.209V296.212V296.215V296.218V296.221V296.224V296.227V296.23V296.233V296.236V296.239V296.242V296.245V296.248V296.251V296.254V296.257V296.26V296.263V296.266V296.269V296.272V296.275V296.278V296.281V296.283V296.286V296.289V296.292V296.295V296.298V296.301V296.304V296.307V296.31V296.313V296.316V296.319V296.322V296.325V296.328V296.331V296.334V296.337V296.34V296.343V296.346V296.349V296.352V296.355V296.358V296.361V296.364V296.367V296.37V296.373V296.376V296.379V296.382V296.385V296.388V296.391V296.394V296.397V296.4V296.403V296.406V296.409V296.411V296.414V296.417V296.42V296.423V296.426V296.429V296.432V296.435V296.438V296.441V296.444V296.447V296.45V296.453V296.456V296.459V296.462V296.465V296.468V296.471V296.474V296.477V296.48V296.483V296.486V296.489V296.492V296.495V296.498V296.501V296.504V296.507V296.51V296.513V296.516V296.519V296.522V296.525V296.528V296.531V296.534V296.537V296.54V296.542V296.545V296.548V296.551V296.554V296.557V296.56V296.563V296.566V296.569V296.572V296.575V296.578V296.581V296.584V296.587V296.59V296.593V296.596V296.599V296.602V296.605V296.608V296.611V296.614V296.617V296.62V296.623V296.626V296.629V296.632V296.635V296.638V296.641V296.644V296.647V296.65V296.653V296.656V296.659V296.662V296.665V296.668V296.67V296.673V296.676V296.679V296.682V296.685V296.688V296.691V296.694V296.697V296.7V296.703V296.706V296.709V296.712V296.715V296.718V296.721V296.724V296.727V296.73V296.733V296.736V296.739V296.742V296.745V296.748V296.751V296.754V296.757V296.76V296.763V296.766V296.769V296.772V296.775V296.778V296.781V296.784V296.787V296.79V296.793V296.796V296.799V296.801V296.804V296.807V296.81V296.813V296.816V296.819V296.822V296.825V296.828V296.831V296.834V296.837V296.84V296.843V296.846V296.849V296.852V296.855V296.858V296.861V296.864V296.867V296.87V296.873V296.876V296.879V296.882V296.885V296.888V296.891V296.894V296.897V296.9V296.903V296.906V296.909V296.912V296.915V296.918V296.921V296.924V296.927V296.929V296.932V296.935V296.938V296.941V296.944V296.947V296.95V296.953V296.956V296.959V296.962V296.965V296.968V296.971V296.974V296.977V296.98V296.983V296.986V296.989V296.992V296.995V296.998V297.001V297.004V297.007V297.01V297.013V297.016V297.019V297.022V297.025V297.028V297.031V297.034V297.037V297.04V297.043V297.046V297.049V297.052V297.055V297.058V297.06V297.063V297.066V297.069V297.072V297.075V297.078V297.081V297.084V297.087V297.09V297.093V297.096V297.099V297.102V297.105V297.108V297.111V297.114V297.117V297.12V297.123V297.126V297.129V297.132V297.135V297.138V297.141V297.144V297.147V297.15V297.153V297.156V297.159V297.162V297.165V297.168V297.171V297.174V297.177V297.18V297.183V297.186V297.188V297.191V297.194V297.197V297.2V297.203V297.206V297.209V297.212V297.215V297.218V297.221V297.224V297.227V297.23V297.233V297.236V297.239V297.242V297.245V297.248V297.251V297.254V297.257V297.26V297.263V297.266V297.269V297.272V297.275V297.278V297.281V297.284V297.287V297.29V297.293V297.296V297.299V297.302V297.305V297.308V297.311V297.314V297.317V297.319V297.322V297.325V297.328V297.331V297.334V297.337V297.34V297.343V297.346V297.349V297.352V297.355V297.358V297.361V297.364V297.367V297.37V297.373V297.376V297.379V297.382V297.385V297.388V297.391V297.394V297.397V297.4V297.403V297.406V297.409V297.412V297.415V297.418V297.421V297.424V297.427V297.43V297.433V297.436V297.439V297.442V297.445V297.447V297.45V297.453V297.456V297.459V297.462V297.465V297.468V297.471V297.474V297.477V297.48V297.483V297.486V297.489V297.492V297.495V297.498V297.501V297.504V297.507V297.51V297.513V297.516V297.519V297.522V297.525V297.528V297.531V297.534V297.537V297.54V297.543V297.546V297.549V297.552V297.555V297.558V297.561V297.564V297.567V297.57V297.573V297.576V297.578V297.581V297.584V297.587V297.59V297.593V297.596V297.599V297.602V297.605V297.608V297.611V297.614V297.617V297.62V297.623V297.626V297.629V297.632V297.635V297.638V297.641V297.644V297.647V297.65V297.653V297.656V297.659V297.662V297.665V297.668V297.671V297.674V297.677V297.68V297.683V297.686V297.689V297.692V297.695V297.698V297.701V297.704V297.706V297.709V297.712V297.715V297.718V297.721V297.724V297.727V297.73V297.733V297.736V297.739V297.742V297.745V297.748V297.751V297.754V297.757V297.76V297.763V297.766V297.769V297.772V297.775V297.778V297.781V297.784V297.787V297.79V297.793V297.796V297.799V297.802V297.805V297.808V297.811V297.814V297.817V297.82V297.823V297.826V297.829V297.832V297.835V297.837V297.84V297.843V297.846V297.849V297.852V297.855V297.858V297.861V297.864V297.867V297.87V297.873V297.876V297.879V297.882C174.664 299.65 184.202 301.082 195.967 301.082C207.731 301.082 217.269 299.65 217.269 297.882V297.879V297.876V297.873V297.87V297.867V297.864V297.861V297.858V297.855V297.852V297.849V297.846V297.843V297.84V297.837V297.835V297.832V297.829V297.826V297.823V297.82V297.817V297.814V297.811V297.808V297.805V297.802V297.799V297.796V297.793V297.79V297.787V297.784V297.781V297.778V297.775V297.772V297.769V297.766V297.763V297.76V297.757V297.754V297.751V297.748V297.745V297.742V297.739V297.736V297.733V297.73V297.727V297.724V297.721V297.718V297.715V297.712V297.709V297.706V297.704V297.701V297.698V297.695V297.692V297.689V297.686V297.683V297.68V297.677V297.674V297.671V297.668V297.665V297.662V297.659V297.656V297.653V297.65V297.647V297.644V297.641V297.638V297.635V297.632V297.629V297.626V297.623V297.62V297.617V297.614V297.611V297.608V297.605V297.602V297.599V297.596V297.593V297.59V297.587V297.584V297.581V297.578V297.576V297.573V297.57V297.567V297.564V297.561V297.558V297.555V297.552V297.549V297.546V297.543V297.54V297.537V297.534V297.531V297.528V297.525V297.522V297.519V297.516V297.513V297.51V297.507V297.504V297.501V297.498V297.495V297.492V297.489V297.486V297.483V297.48V297.477V297.474V297.471V297.468V297.465V297.462V297.459V297.456V297.453V297.45V297.447V297.445V297.442V297.439V297.436V297.433V297.43V297.427V297.424V297.421V297.418V297.415V297.412V297.409V297.406V297.403V297.4V297.397V297.394V297.391V297.388V297.385V297.382V297.379V297.376V297.373V297.37V297.367V297.364V297.361V297.358V297.355V297.352V297.349V297.346V297.343V297.34V297.337V297.334V297.331V297.328V297.325V297.322V297.319V297.317V297.314V297.311V297.308V297.305V297.302V297.299V297.296V297.293V297.29V297.287V297.284V297.281V297.278V297.275V297.272V297.269V297.266V297.263V297.26V297.257V297.254V297.251V297.248V297.245V297.242V297.239V297.236V297.233V297.23V297.227V297.224V297.221V297.218V297.215V297.212V297.209V297.206V297.203V297.2V297.197V297.194V297.191V297.188V297.186V297.183V297.18V297.177V297.174V297.171V297.168V297.165V297.162V297.159V297.156V297.153V297.15V297.147V297.144V297.141V297.138V297.135V297.132V297.129V297.126V297.123V297.12V297.117V297.114V297.111V297.108V297.105V297.102V297.099V297.096V297.093V297.09V297.087V297.084V297.081V297.078V297.075V297.072V297.069V297.066V297.063V297.06V297.058V297.055V297.052V297.049V297.046V297.043V297.04V297.037V297.034V297.031V297.028V297.025V297.022V297.019V297.016V297.013V297.01V297.007V297.004V297.001V296.998V296.995V296.992V296.989V296.986V296.983V296.98V296.977V296.974V296.971V296.968V296.965V296.962V296.959V296.956V296.953V296.95V296.947V296.944V296.941V296.938V296.935V296.932V296.929V296.927V296.924V296.921V296.918V296.915V296.912V296.909V296.906V296.903V296.9V296.897V296.894V296.891V296.888V296.885V296.882V296.879V296.876V296.873V296.87V296.867V296.864V296.861V296.858V296.855V296.852V296.849V296.846V296.843V296.84V296.837V296.834V296.831V296.828V296.825V296.822V296.819V296.816V296.813V296.81V296.807V296.804V296.801V296.799V296.796V296.793V296.79V296.787V296.784V296.781V296.778V296.775V296.772V296.769V296.766V296.763V296.76V296.757V296.754V296.751V296.748V296.745V296.742V296.739V296.736V296.733V296.73V296.727V296.724V296.721V296.718V296.715V296.712V296.709V296.706V296.703V296.7V296.697V296.694V296.691V296.688V296.685V296.682V296.679V296.676V296.673V296.67V296.668V296.665V296.662V296.659V296.656V296.653V296.65V296.647V296.644V296.641V296.638V296.635V296.632V296.629V296.626V296.623V296.62V296.617V296.614V296.611V296.608V296.605V296.602V296.599V296.596V296.593V296.59V296.587V296.584V296.581V296.578V296.575V296.572V296.569V296.566V296.563V296.56V296.557V296.554V296.551V296.548V296.545V296.542V296.54V296.537V296.534V296.531V296.528V296.525V296.522V296.519V296.516V296.513V296.51V296.507V296.504V296.501V296.498V296.495V296.492V296.489V296.486V296.483V296.48V296.477V296.474V296.471V296.468V296.465V296.462V296.459V296.456V296.453V296.45V296.447V296.444V296.441V296.438V296.435V296.432V296.429V296.426V296.423V296.42V296.417V296.414V296.411V296.409V296.406V296.403V296.4V296.397V296.394V296.391V296.388V296.385V296.382V296.379V296.376V296.373V296.37V296.367V296.364V296.361V296.358V296.355V296.352V296.349V296.346V296.343V296.34V296.337V296.334V296.331V296.328V296.325V296.322V296.319V296.316V296.313V296.31V296.307V296.304V296.301V296.298V296.295V296.292V296.289V296.286V296.283V296.281V296.278V296.275V296.272V296.269V296.266V296.263V296.26V296.257V296.254V296.251V296.248V296.245V296.242V296.239V296.236V296.233V296.23V296.227V296.224V296.221V296.218V296.215V296.212V296.209V296.206V296.203V296.2V296.197V296.194V296.191V296.188V296.185V296.182V296.179V296.176V296.173V296.17V296.167V296.164V296.161V296.158V296.155V296.153V296.15V296.147V296.144V296.141V296.138V296.135V296.132V296.129V296.126V296.123V296.12V296.117V296.114V296.111V296.108V296.105V296.102V296.099C217.269 296.099 217.269 296.096 217.269 296.093C217.269 296.096 217.269 296.093 217.269 296.093Z" fill="#9E8FAE"/>
<path d="M195.97 292.89C207.735 292.89 217.273 294.322 217.273 296.09C217.273 297.858 207.735 299.29 195.97 299.29C184.206 299.29 174.668 297.858 174.668 296.09C174.668 294.322 184.206 292.89 195.97 292.89Z" fill="#D4D3E7"/>
<path d="M207.314 295.646H183.452L178.166 279.913H202.025L207.314 295.646Z" fill="white"/>
<path d="M205.021 293.223H184.309L180.096 280.979H200.807L205.021 293.223Z" fill="#FF654D"/>
<path opacity="0.15" d="M200.807 280.979H180.096L180.158 281.163H200.653L204.801 293.223H205.021L200.807 280.979Z" fill="#14255E"/>
<path d="M207.312 295.646H183.45L182.785 293.664H206.644L207.312 295.646Z" fill="#E6E7E8"/>
<path d="M212.999 295.045H183.4L178.165 279.913C177.806 280.851 177.788 281.887 178.114 282.839L182.583 295.825C182.702 296.173 183.032 296.405 183.397 296.405H212.996C213.37 296.405 213.676 296.102 213.676 295.724C213.679 295.349 213.373 295.045 212.999 295.045Z" fill="#F1F2F2"/>
<path d="M183.401 295.045H185.503V296.405H183.401C183.033 296.405 182.706 296.173 182.587 295.825L178.118 282.839C177.792 281.89 177.81 280.854 178.169 279.913L183.401 295.045Z" fill="#CCCCCC"/>
<path d="M183.585 295.694C183.585 295.843 183.463 295.965 183.314 295.965C183.166 295.965 183.044 295.843 183.044 295.694C183.044 295.545 183.166 295.423 183.314 295.423C183.463 295.426 183.585 295.545 183.585 295.694Z" fill="white"/>
<path d="M200.601 294.315H188.81C188.587 294.315 188.385 294.184 188.296 293.979L188.047 293.408H200.655L200.869 293.899C200.958 294.095 200.812 294.315 200.601 294.315Z" fill="white"/>
<path d="M190.582 295.045C189.944 295.045 189.944 296.405 190.582 296.405H183.399C184.192 296.405 184.192 295.045 183.399 295.045H190.582Z" fill="#999999"/>
<path d="M186.149 295.521H188.348C188.469 295.521 188.567 295.619 188.567 295.742V295.822C188.567 295.944 188.469 296.042 188.348 296.042H186.149C186.028 296.042 185.93 295.944 185.93 295.822V295.742C185.93 295.619 186.028 295.521 186.149 295.521Z" fill="#808080"/>
<path d="M183.444 357.568L180.24 356.827L171.929 361.888L173.309 362.944L181.882 364.21L183.218 362.456L183.444 357.568Z" fill="#FEBAC7"/>
<path d="M165.842 362.283C165.842 362.283 168.232 365.749 171.187 365.728C174.144 365.707 178.803 365.686 178.803 365.686L175.388 370.167L176.829 371.271C176.829 371.271 181.078 370.292 182.355 367.228C183.631 364.162 183.486 361.685 183.486 361.685L179.828 360.604C179.828 360.604 175.869 363.766 174.043 362.531C172.217 361.295 172.351 360.905 172.351 360.905C172.351 360.905 169.286 363.537 165.842 362.283Z" fill="#031162"/>
<path d="M219.529 356.856L216.533 358.217L212.993 367.3H214.733L222.308 363.084V360.878L219.529 356.856Z" fill="#EB8195"/>
<path d="M208.399 371.322C208.399 371.322 212.396 372.62 214.733 370.804C217.07 368.988 220.758 366.133 220.758 366.133V371.771H222.569C222.569 371.771 225.352 368.407 224.511 365.195C223.671 361.983 222.053 360.101 222.053 360.101L218.495 361.471C218.495 361.471 217.266 366.392 215.066 366.523C212.865 366.654 212.738 366.264 212.738 366.264C212.738 366.264 211.891 370.217 208.399 371.322Z" fill="#031162"/>
<path d="M236.157 313.988C236.157 313.988 227.644 318.81 220.508 318.522C213.373 318.233 209.611 317.506 209.611 317.506C209.611 317.506 215.107 320.117 216.699 324.467C218.29 328.816 220.508 357.407 220.508 357.407L215.544 358.881C215.544 358.881 199.488 320.406 198.475 315.622C197.463 310.838 205.13 310.838 207.155 310.692C209.177 310.546 236.157 313.988 236.157 313.988Z" fill="#031162"/>
<path d="M229.084 365.936V319.653" stroke="#4E405C" stroke-width="5.5952" stroke-miterlimit="10"/>
<path d="M212.993 348.199C212.993 344.523 243.845 344.523 243.845 348.199" stroke="#4E405C" stroke-width="5.5952" stroke-miterlimit="10"/>
<path d="M236.927 317.947L248.953 369.61" stroke="#9E8FAE" stroke-width="5.5952" stroke-miterlimit="10"/>
<path d="M251.625 368.035H245.888V371.771H251.625V368.035Z" fill="#4E405C"/>
<path d="M231.953 364.067H226.216V367.803H231.953V364.067Z" fill="#4E405C"/>
<path d="M219.693 317.947L207.667 369.61" stroke="#9E8FAE" stroke-width="5.5952" stroke-miterlimit="10"/>
<path d="M204.995 371.769H210.731V368.033H204.995V371.769Z" fill="#4E405C"/>
<path d="M212.993 347.547C212.993 351.224 243.845 351.224 243.845 347.547" stroke="#9E8FAE" stroke-width="5.5952" stroke-miterlimit="10"/>
<path d="M250.058 317.518C250.058 316.682 247.899 314.768 243.264 314.794C240.437 314.809 228.438 314.101 210.2 315.071C210.2 315.071 208.115 315.39 208.115 317.518C208.115 319.647 211.732 320.073 212.908 320.311C214.084 320.549 242.127 321.978 246.575 320.311C250.23 318.938 250.058 317.518 250.058 317.518Z" fill="#1957C2"/>
<path d="M235.228 314.705C228.469 314.55 219.606 314.571 210.199 315.071C210.199 315.071 208.58 315.318 208.194 316.833C211.464 317.494 229.01 320.694 235.228 314.705Z" fill="#031162"/>
<path d="M208.111 320.308C208.111 324.029 250.057 324.029 250.057 320.308V317.515C250.057 321.237 208.111 321.237 208.111 317.515V320.308Z" fill="#031162"/>
<path d="M239.068 302.949C239.068 302.949 242.88 316.2 226.647 317.215C214.484 317.974 201.802 314.461 201.802 314.461C201.802 314.461 203.248 324.529 199.488 333.341C195.729 342.156 185.17 358.878 185.17 358.878L177.648 357.404C177.648 357.404 191.245 307.787 191.679 305.033C192.112 302.279 220.509 302.422 220.509 302.422L239.068 302.949Z" fill="#1957C2"/>
<path d="M210.088 252.161C210.088 252.161 212.304 254.186 212.304 256.252C212.304 258.318 214.67 262.102 217.833 260.36L218.15 264.028L224.484 262.578C224.484 262.578 222.26 259.678 222.373 256.505C222.483 253.331 218.646 242.772 214.341 244.487C210.038 246.198 208.2 249.265 210.088 252.161Z" fill="#FEBAC7"/>
<path d="M208.111 272.926C208.111 272.926 208.429 264.025 227.843 258.148C236.24 255.606 238.551 268.922 240.098 278.07C241.645 287.218 239.287 295.512 239.287 295.512L240.525 300.63C241.054 305.771 218.573 308.093 218.044 302.952C218.044 302.952 221.034 288.924 218.044 279.234C214.7 268.419 208.111 272.926 208.111 272.926Z" fill="#FF654D"/>
<path d="M216.829 272C215.255 266.784 207.401 268.44 208.159 273.837C208.17 273.929 208.185 274.024 208.203 274.12C209.287 280.166 212.532 292.568 212.532 292.568L206.038 289.174C206.038 289.174 204.628 284.646 203.232 285.269C201.837 285.891 201.629 287.186 201.629 287.186C201.629 287.186 200.129 285.528 199.405 286.668C198.68 287.808 198.939 288.743 198.939 288.743C198.939 288.743 198.164 287.549 197.439 288.171C196.714 288.793 196.922 291.127 196.56 292.163C196.198 293.199 196.248 293.667 197.231 293.044C198.214 292.422 198.422 290.711 198.422 290.711C198.422 290.711 198.214 292.422 201.216 292.681C204.215 292.94 204.215 292.94 204.215 292.94C204.215 292.94 215.077 301.651 218.697 300.719C221.696 299.945 220.897 285.471 216.829 272Z" fill="#FEBAC7"/>
<path d="M206.537 248.16C206.537 248.16 207.149 252.778 213.417 251.39C218.139 250.345 211.562 262.054 214.397 266.192C216.853 263.394 220.315 261.664 224.024 261.453C226.714 261.301 229.33 259.848 228.279 254.346C227.59 250.738 226.144 246.934 224.47 243.873C220.167 236.02 206.386 242.534 206.537 248.16Z" fill="#031162"/>
<path d="M208.159 273.834C208.171 273.926 208.186 274.021 208.204 274.117C209.287 280.163 212.533 292.565 212.533 292.565L207.616 289.996C206.82 290.594 205.798 291.815 205.76 294.131C208.89 296.483 215.921 301.434 218.697 300.719C221.697 299.945 220.898 285.474 216.83 272C215.253 266.784 207.402 268.44 208.159 273.834Z" fill="#1957C2"/>
<defs>
<linearGradient id="paint0_linear" x1="86.2939" y1="166.976" x2="329.278" y2="166.976" gradientUnits="userSpaceOnUse">
<stop offset="0.21" stop-color="white" stop-opacity="0"/>
<stop offset="1" stop-color="white" stop-opacity="0.2"/>
</linearGradient>
</defs>
</svg>
