<svg width="259" height="74" viewBox="0 0 259 74" fill="none" xmlns="http://www.w3.org/2000/svg">
<path d="M32.0012 74C23.5367 74 16.9067 58.3188 16.9067 38.216C16.9067 18.1131 23.5367 2.42407 32.0012 2.42407C40.4658 2.42407 47.0957 18.1447 47.0957 38.216C47.0957 47.5489 45.6469 56.3765 43.0249 62.9853C42.8528 63.3463 42.5506 63.6284 42.1791 63.7745C41.8077 63.9206 41.3948 63.9199 41.0238 63.7725C40.6529 63.6252 40.3516 63.3421 40.1808 62.9805C40.0099 62.6189 39.9824 62.2058 40.1036 61.8246C42.5918 55.5079 43.954 47.1541 43.954 38.216C43.954 22.7717 39.0485 5.56662 32.0012 5.56662C24.954 5.56662 20.0406 22.7875 20.0406 38.216C20.0406 53.6445 24.954 70.8575 32.0012 70.8575C34.2217 70.8575 36.0879 68.8993 37.2611 67.2648C37.37 67.0719 37.5182 66.9042 37.6961 66.7725C37.874 66.6408 38.0775 66.5482 38.2934 66.5006C38.5093 66.453 38.7328 66.4515 38.9494 66.4963C39.1659 66.541 39.3706 66.631 39.5501 66.7603C39.7297 66.8897 39.8801 67.0555 39.9915 67.2469C40.103 67.4384 40.173 67.6513 40.197 67.8716C40.2209 68.092 40.1984 68.315 40.1307 68.5261C40.0631 68.7371 39.9519 68.9316 39.8044 69.0967C37.5131 72.3103 34.8123 74 32.0012 74Z" fill="#FEC200"/>
<g opacity="0.7">
<path opacity="0.7" d="M52.4344 60.3244C45.0171 60.3244 34.8754 57.245 24.5604 51.3784C16.458 46.7751 9.53677 41.1769 5.0722 35.5866C0.292672 29.6332 -1.17189 24.2956 0.946217 20.5372C1.04962 20.3572 1.18735 20.1995 1.35153 20.073C1.51572 19.9465 1.70315 19.8536 1.90313 19.7997C2.1031 19.7458 2.31171 19.732 2.51702 19.7589C2.72234 19.7859 2.92036 19.8531 3.09976 19.9568C3.27917 20.0605 3.43645 20.1986 3.56262 20.3632C3.6888 20.5279 3.78141 20.7158 3.83515 20.9164C3.88889 21.1169 3.90271 21.3261 3.87584 21.532C3.84896 21.7379 3.7819 21.9364 3.6785 22.1163C2.2533 24.6272 3.6785 28.8278 7.51315 33.6364C11.7415 38.9029 18.3399 44.2326 26.1037 48.6385C39.4896 56.2501 56.8124 60.4823 60.3242 54.2998C61.7415 51.7889 60.3242 47.5883 56.4896 42.7798C52.2612 37.5132 45.6549 32.1835 37.899 27.7776C26.4423 21.2715 14.2769 17.9868 7.60764 19.6054C7.21469 19.6707 6.81167 19.5843 6.47975 19.3635C6.14783 19.1427 5.91167 18.804 5.81883 18.4156C5.72599 18.0272 5.78337 17.6179 5.97941 17.2702C6.17545 16.9226 6.49559 16.6623 6.87535 16.5418C14.3714 14.7258 27.1588 18.0579 39.4423 25.0457C47.5368 29.649 54.4581 35.2471 58.9305 40.8374C63.71 46.7909 65.1746 52.1364 63.0486 55.8869C61.3478 58.8715 57.5368 60.3244 52.4344 60.3244Z" fill="#253237"/>
</g>
<path d="M11.5683 60.3244C6.46591 60.3244 2.64701 58.8716 0.946218 55.8632C-1.17189 52.1127 0.292672 46.7672 5.0722 40.8137C9.53677 35.2866 16.458 29.649 24.5604 25.022C41.9699 15.1206 58.8754 13.1782 63.0486 20.5372C64.3636 22.9059 64.3085 25.8748 62.8833 29.2226C62.7002 29.5752 62.3913 29.8455 62.0182 29.9797C61.6451 30.1139 61.2352 30.1021 60.8704 29.9466C60.5056 29.7911 60.2127 29.5034 60.0502 29.1409C59.8876 28.7784 59.8674 28.3677 59.9935 27.9909C60.71 26.3012 61.3478 23.9087 60.3242 22.0848C56.8439 15.9339 39.4974 20.1345 26.1037 27.7461C18.3399 32.1599 11.7415 37.4896 7.51315 42.7482C3.65488 47.5568 2.2533 51.7574 3.6785 54.2683C7.15882 60.4191 24.5053 56.2185 37.899 48.6069C45.8124 44.1458 52.4896 38.7213 56.6943 33.3679C56.8149 33.1866 56.9717 33.0322 57.1547 32.9145C57.3377 32.7969 57.5431 32.7185 57.7578 32.6843C57.9725 32.6502 58.192 32.661 58.4024 32.7161C58.6127 32.7711 58.8094 32.8693 58.9801 33.0043C59.1508 33.1394 59.2917 33.3084 59.394 33.5008C59.4964 33.6932 59.5578 33.9047 59.5746 34.122C59.5914 34.3394 59.5632 34.5579 59.4916 34.7638C59.42 34.9696 59.3067 35.1584 59.1589 35.3182C54.6943 40.9795 47.6943 46.6883 39.4738 51.3784C29.1352 57.245 18.9856 60.3244 11.5683 60.3244Z" fill="#9FCC29"/>
<path d="M59.1273 37.2211C61.3278 37.2211 63.1116 35.4323 63.1116 33.2258C63.1116 31.0192 61.3278 29.2305 59.1273 29.2305C56.9269 29.2305 55.1431 31.0192 55.1431 33.2258C55.1431 35.4323 56.9269 37.2211 59.1273 37.2211Z" fill="url(#paint0_linear)"/>
<path d="M13.8282 39.1108C14.3355 36.9637 13.011 34.8107 10.8699 34.302C8.72873 33.7932 6.5817 35.1214 6.07437 37.2685C5.56704 39.4156 6.89151 41.5685 9.03267 42.0773C11.1738 42.586 13.3209 41.2579 13.8282 39.1108Z" fill="url(#paint1_linear)"/>
<path d="M32.0013 7.9906C34.2018 7.9906 35.9856 6.20185 35.9856 3.9953C35.9856 1.78876 34.2018 0 32.0013 0C29.8009 0 28.0171 1.78876 28.0171 3.9953C28.0171 6.20185 29.8009 7.9906 32.0013 7.9906Z" fill="url(#paint2_linear)"/>
<path d="M25.7573 41.8955C25.9093 41.9073 26.062 41.9073 26.214 41.8955C26.7258 41.8244 27.0014 41.9508 26.9463 42.5429C26.8911 43.1351 27.4345 43.3325 27.9463 43.3325C28.7967 43.4036 29.6471 43.3325 30.5053 43.4431C31.2061 43.5457 31.7652 44.1458 32.3321 44.1853C32.899 44.2248 33.4423 43.5457 34.1431 43.4431C34.8439 43.3404 35.7179 43.3878 36.5683 43.3404C37.5053 43.2852 37.6628 43.1667 37.7888 42.2508C37.8282 41.9666 37.9148 41.8718 38.1904 41.8797C38.7179 41.8797 39.2455 41.8797 39.7652 41.8797C40.0093 41.8797 40.1353 41.935 40.1353 42.2034C40.1826 42.8622 40.1187 43.5242 39.9463 44.1616C39.751 44.7038 39.3902 45.1703 38.9152 45.495C38.4402 45.8196 37.8752 45.9857 37.3006 45.9697C36.466 46.0408 35.6392 46.0645 34.8045 46.0882C34.4307 46.0719 34.0596 46.159 33.7318 46.34C33.4041 46.5211 33.1323 46.7891 32.9463 47.1146C32.5998 47.6832 32.0959 47.6753 31.7494 47.1146C31.5655 46.7948 31.2984 46.5311 30.9767 46.3517C30.6549 46.1723 30.2906 46.0839 29.9226 46.0961C28.9567 46.0977 27.9917 46.0397 27.0329 45.9224C25.3478 45.6539 24.5919 44.7064 24.5368 42.9851C24.5368 42.8746 24.5368 42.7561 24.5368 42.6535C24.4581 42.0771 24.6392 41.7771 25.2691 41.8639C25.4307 41.8876 25.594 41.8982 25.7573 41.8955Z" fill="#FFE161"/>
<path d="M35.4346 41.8954C35.2377 41.8954 34.8833 41.9981 34.9384 41.5954C34.9936 41.1927 34.647 40.8058 35.2298 40.6795C35.5843 40.6005 35.6552 40.3636 35.6788 40.0557C35.5907 39.332 35.7429 38.5994 36.112 37.9712C36.1828 37.8843 36.112 37.8212 36.112 37.7501C35.7867 37.1493 35.6495 36.4642 35.7182 35.784C35.7182 35.5235 35.7182 35.2076 35.4031 35.1366C34.6707 34.9787 35.0408 34.4259 34.9936 34.0312C34.9936 33.9127 35.1117 33.8732 35.2298 33.8495C35.6094 33.7648 36.007 33.8299 36.3399 34.0314C36.6729 34.2328 36.9156 34.5551 37.0177 34.9313C37.0929 35.295 37.1324 35.6653 37.1358 36.0367C37.1358 36.6368 37.1358 37.2211 37.7344 37.6159C37.9707 37.7659 37.9392 38.0422 37.6793 38.2081C37.4835 38.3285 37.3242 38.5002 37.2187 38.7048C37.1132 38.9094 37.0655 39.139 37.0807 39.3688C37.0848 39.7647 37.0611 40.1605 37.0098 40.5531C37.005 40.7487 36.959 40.9411 36.8749 41.1176C36.7908 41.2942 36.6705 41.4509 36.5218 41.5776C36.3731 41.7043 36.1994 41.7982 36.0121 41.8529C35.8247 41.9077 35.6279 41.9222 35.4346 41.8954Z" fill="#FFE161"/>
<path d="M29.8053 34.3628C29.8053 34.7576 29.8683 35.0419 29.4273 35.1524C28.9862 35.2629 29.0728 35.6104 29.0571 35.942C29.0177 36.5895 29.1437 37.2685 28.6633 37.8212C28.6478 37.836 28.6355 37.8537 28.627 37.8734C28.6186 37.8931 28.6143 37.9143 28.6143 37.9357C28.6143 37.9571 28.6186 37.9783 28.627 37.998C28.6355 38.0177 28.6478 38.0354 28.6633 38.0502C29.0084 38.6145 29.1449 39.2824 29.0492 39.9373C29.0492 40.3242 29.1043 40.64 29.6005 40.7743C30.0967 40.9085 29.7502 41.3664 29.8053 41.6823C29.8604 41.9981 29.6084 41.9507 29.4115 41.9586C29.2047 41.9969 28.9921 41.989 28.7887 41.9356C28.5853 41.8823 28.396 41.7847 28.2345 41.6498C28.0729 41.5149 27.9428 41.3461 27.8536 41.1552C27.7644 40.9643 27.7182 40.7561 27.7182 40.5453C27.6709 40.1347 27.6552 39.7557 27.6394 39.3056C27.6527 39.1069 27.6148 38.9081 27.5292 38.7283C27.4437 38.5486 27.3135 38.3939 27.1511 38.2792C26.8282 38.066 26.7967 37.8291 27.1511 37.6159C27.3234 37.499 27.4625 37.3394 27.5549 37.1526C27.6474 36.9658 27.6901 36.7582 27.6788 36.55C27.6866 36.0881 27.7181 35.6269 27.7733 35.1682C27.7974 34.9651 27.862 34.7689 27.9632 34.5913C28.0645 34.4138 28.2004 34.2585 28.3629 34.1347C28.5253 34.0109 28.7109 33.9212 28.9087 33.8708C29.1064 33.8205 29.3122 33.8106 29.5139 33.8417C29.9235 33.9049 29.7738 34.2207 29.8053 34.3628Z" fill="#FFE161"/>
<path d="M30.4736 33.8417C30.9539 33.8417 31.3634 33.8417 31.765 33.8417C32.0406 33.8417 32.0957 34.0075 32.1429 34.197L34.1508 41.4849C34.2295 41.7375 34.2059 41.9191 33.8752 41.8797H33.8043C32.7099 41.9349 32.702 41.9349 32.4106 40.8848C31.7729 38.5792 31.1351 36.2578 30.4736 33.8417Z" fill="#FFE161"/>
<path d="M32.5838 33.3995C32.2805 33.4004 31.9803 33.3386 31.7019 33.2179C31.1556 32.986 30.7207 32.5498 30.4893 32.0019C30.3698 31.7225 30.3081 31.4217 30.3081 31.1176C30.3081 30.8136 30.3698 30.5127 30.4893 30.2333C30.6045 29.9622 30.7702 29.7156 30.9775 29.5069C31.1836 29.2964 31.43 29.1298 31.7019 29.0173C31.9791 28.8929 32.2802 28.8309 32.5838 28.8357C32.8874 28.8319 33.1882 28.8939 33.4657 29.0173C33.7376 29.1298 33.9841 29.2964 34.1901 29.5069C34.3975 29.7156 34.5632 29.9622 34.6783 30.2333C34.7979 30.5127 34.8596 30.8136 34.8596 31.1176C34.8596 31.4217 34.7979 31.7225 34.6783 32.0019C34.447 32.5498 34.0121 32.986 33.4657 33.2179C33.1871 33.3378 32.887 33.3996 32.5838 33.3995ZM32.5838 29.9727C32.4292 29.9722 32.2763 30.0044 32.135 30.0675C32.0001 30.1256 31.8772 30.2086 31.7728 30.3122C31.6546 30.4138 31.5604 30.5406 31.4972 30.6833C31.4336 30.8219 31.4013 30.9729 31.4027 31.1255C31.4022 31.2805 31.4344 31.4339 31.4972 31.5756C31.6129 31.8495 31.8303 32.0676 32.1035 32.1836C32.2448 32.2466 32.3977 32.2789 32.5523 32.2783C32.8481 32.2688 33.1294 32.1475 33.3397 31.9388C33.4431 31.8341 33.5259 31.7109 33.5838 31.5756C33.6467 31.4339 33.6789 31.2805 33.6783 31.1255C33.6797 30.9729 33.6475 30.8219 33.5838 30.6833C33.4682 30.4094 33.2507 30.1913 32.9775 30.0754C32.8542 30.0159 32.7205 29.981 32.5838 29.9727Z" fill="#FFE161"/>
<path d="M82.9694 39.8617C81.6354 39.8686 80.3144 39.6007 79.0889 39.075C76.7066 38.054 74.809 36.1584 73.7889 33.7807C73.2611 32.5614 72.9925 31.2462 73.0002 29.9181C72.9949 28.5826 73.2633 27.2602 73.7889 26.0319C74.2948 24.8573 75.0201 23.7894 75.9263 22.8852C76.835 21.9821 77.905 21.2564 79.0811 20.7455C80.3065 20.2197 81.6275 19.9519 82.9615 19.9588C84.279 19.9638 85.5822 20.2312 86.7946 20.7455C88.0049 21.2505 89.1037 21.9883 90.0283 22.9167L86.5501 26.3466C86.0838 25.8781 85.5252 25.5111 84.9096 25.2689C84.2909 25.0295 83.633 24.9068 82.9694 24.907C82.2991 24.9039 81.6355 25.0406 81.0213 25.3082C80.4332 25.5636 79.8982 25.9264 79.4439 26.3781C78.9814 26.8264 78.6116 27.361 78.3554 27.9514C78.0943 28.5744 77.9598 29.2429 77.9598 29.9181C77.9598 30.5933 78.0943 31.2618 78.3554 31.8848C78.6135 32.4741 78.9831 33.0083 79.4439 33.4581C79.8982 33.9098 80.4332 34.2726 81.0213 34.528C81.6371 34.7848 82.2979 34.9171 82.9654 34.9171C83.6329 34.9171 84.2938 34.7848 84.9096 34.528C85.5232 34.2711 86.0805 33.897 86.5501 33.4267L90.0361 36.9038C89.1116 37.8322 88.0128 38.57 86.8025 39.075C85.59 39.5892 84.2868 39.8567 82.9694 39.8617Z" fill="#2A333A"/>
<path d="M99.2322 39.8617C97.8983 39.8686 96.5772 39.6008 95.3518 39.075C92.9694 38.054 91.0718 36.1585 90.0517 33.7807C89.5311 32.5619 89.2627 31.2508 89.2627 29.926C89.2627 28.6012 89.5311 27.2901 90.0517 26.0713C91.0619 23.685 92.9624 21.7837 95.3518 20.7691C96.5752 20.25 97.891 19.9825 99.2204 19.9825C100.55 19.9825 101.866 20.25 103.089 20.7691C104.268 21.272 105.339 21.9957 106.244 22.901C107.149 23.806 107.874 24.8737 108.381 26.0477C108.902 27.2665 109.17 28.5776 109.17 29.9024C109.17 31.2272 108.902 32.5383 108.381 33.7571C107.361 36.1406 105.456 38.0379 103.065 39.0514C101.856 39.5792 100.552 39.8549 99.2322 39.8617ZM99.2322 24.9621C98.5547 24.9549 97.8831 25.0888 97.2605 25.3554C96.6719 25.61 96.1368 25.973 95.6831 26.4253C95.2317 26.8796 94.8681 27.413 94.6104 27.9987C94.3447 28.6064 94.2104 29.2631 94.2161 29.926C94.2088 30.6018 94.3431 31.2717 94.6104 31.8927C95.1179 33.0915 96.0743 34.0455 97.2763 34.5517C97.9 34.8146 98.5708 34.9484 99.248 34.945C99.9097 34.9468 100.565 34.813 101.172 34.5517C101.76 34.2959 102.295 33.9331 102.75 33.4818C103.203 33.0292 103.567 32.4955 103.822 31.9084C104.086 31.2863 104.22 30.6172 104.217 29.9417C104.219 29.2792 104.084 28.6233 103.822 28.0144C103.565 27.4287 103.201 26.8953 102.75 26.441C102.295 25.9897 101.76 25.6269 101.172 25.3712C100.562 25.0997 99.9007 24.9602 99.2322 24.9621Z" fill="#2A333A"/>
<path d="M130.465 18V29.9732C130.472 31.3037 130.203 32.6213 129.676 33.8436C129.167 35.0146 128.445 36.0815 127.547 36.9903C126.642 37.8897 125.57 38.6057 124.392 39.0986C123.164 39.6239 121.84 39.8917 120.504 39.8853C119.201 39.8909 117.91 39.6393 116.706 39.1452C115.501 38.6511 114.406 37.924 113.484 37.006C112.58 36.1032 111.86 35.0348 111.363 33.8593C110.852 32.6366 110.589 31.3252 110.589 30.0007C110.589 28.6762 110.852 27.3648 111.363 26.1421C112.353 23.7642 114.231 21.863 116.6 20.8399C117.822 20.3143 119.141 20.0465 120.472 20.0532L125.457 24.9778H120.472C119.807 24.9721 119.149 25.1061 118.54 25.3711C117.953 25.6281 117.418 25.9908 116.962 26.441C116.509 26.8935 116.145 27.4273 115.89 28.0144C115.623 28.6329 115.489 29.3 115.495 29.9732C115.49 30.6361 115.624 31.2928 115.89 31.9005C116.146 32.4869 116.51 33.0205 116.962 33.4739C117.418 33.9241 117.953 34.2868 118.54 34.5438C119.15 34.805 119.808 34.9389 120.472 34.9371C121.149 34.9405 121.82 34.8067 122.444 34.5438C123.031 34.2872 123.566 33.9245 124.021 33.4739C124.474 33.0221 124.835 32.488 125.086 31.9005C125.354 31.2934 125.492 30.6367 125.488 29.9732V18H130.465Z" fill="#2A333A"/>
<path d="M138.257 27.3929H146.239C145.805 26.6322 145.176 25.9997 144.417 25.56C143.644 25.087 142.753 24.8416 141.846 24.852C141.169 24.8486 140.498 24.9824 139.874 25.2453C138.662 25.7603 137.691 26.7168 137.161 27.92C136.895 28.5416 136.757 29.2107 136.757 29.8867C136.757 30.5627 136.895 31.2318 137.161 31.8534C137.423 32.4424 137.795 32.9763 138.257 33.4267C138.722 33.89 139.271 34.2611 139.874 34.5202C140.498 34.7831 141.169 34.9169 141.846 34.9135H149.559L144.583 39.8302H141.846C140.491 39.8411 139.149 39.5733 137.902 39.0436C136.724 38.5371 135.653 37.8109 134.747 36.9038C133.837 36.0032 133.111 34.9344 132.61 33.7571C132.09 32.5273 131.821 31.2059 131.821 29.871C131.821 28.536 132.09 27.2146 132.61 25.9848C133.11 24.795 133.835 23.7131 134.747 22.7988C135.655 21.8966 136.726 21.1733 137.902 20.6669C139.137 20.1478 140.463 19.8804 141.802 19.8804C143.142 19.8804 144.468 20.1478 145.703 20.6669C146.879 21.1733 147.95 21.8966 148.857 22.7988C149.77 23.7131 150.495 24.795 150.995 25.9848C151.525 27.2117 151.793 28.5351 151.783 29.871V32.3018H143.234L138.257 27.3929Z" fill="#2A333A"/>
<path d="M163.906 24.9228H163.385C162.691 24.9208 162.004 25.06 161.366 25.3318C160.112 25.8664 159.114 26.8644 158.582 28.1167C158.299 28.753 158.153 29.4421 158.156 30.1384V39.8617H153.274V30.1227C153.266 28.7717 153.534 27.4332 154.063 26.1893C154.577 24.9905 155.313 23.899 156.232 22.9718C157.154 22.051 158.243 21.3141 159.442 20.8006C160.688 20.2709 162.031 20.0031 163.385 20.0139C164.221 20.0114 165.053 20.1171 165.862 20.3286C166.662 20.5292 167.435 20.825 168.165 21.2097L164.379 25.0093C164.226 24.9602 164.067 24.9311 163.906 24.9228Z" fill="#2A333A"/>
<path d="M172.306 39.8617L167.368 34.8978H177.535C177.872 34.8984 178.197 34.7688 178.442 34.536C178.566 34.4254 178.664 34.2894 178.731 34.1374C178.798 33.9854 178.831 33.8208 178.828 33.6549C178.831 33.4889 178.799 33.3242 178.732 33.1721C178.665 33.02 178.566 32.8841 178.442 32.7738C178.199 32.5381 177.873 32.408 177.535 32.4119H173.055C172.241 32.4119 171.436 32.2459 170.689 31.9242C169.204 31.2878 168.023 30.1041 167.392 28.6202C166.911 27.4848 166.782 26.2321 167.019 25.0227C167.256 23.8132 167.85 22.7019 168.725 21.8312C169.288 21.2625 169.954 20.8059 170.689 20.486C171.434 20.1581 172.24 19.9893 173.055 19.9904H178.284V24.9621H173.055C172.89 24.9589 172.727 24.9889 172.574 25.0502C172.422 25.1115 172.283 25.203 172.166 25.319C172.05 25.4351 171.958 25.5734 171.897 25.7257C171.835 25.8779 171.805 26.041 171.809 26.2051C171.808 26.542 171.938 26.8662 172.171 27.1098C172.284 27.2319 172.42 27.3293 172.572 27.3956C172.724 27.462 172.889 27.496 173.055 27.4952H177.543C178.377 27.4886 179.203 27.6519 179.972 27.9751C180.709 28.2913 181.38 28.7422 181.951 29.3046C182.513 29.8733 182.964 30.5399 183.284 31.2713C183.606 32.0165 183.77 32.82 183.765 33.6313C183.772 34.4632 183.608 35.2877 183.284 36.0542C182.653 37.5434 181.465 38.7287 179.972 39.3583C179.203 39.6815 178.377 39.8447 177.543 39.8382L172.306 39.8617Z" fill="#2A333A"/>
<path d="M203.381 19.9904V39.8617H198.499V32.4119H189.886V39.8617H184.957V24.8599L189.886 19.9904V27.4952H198.499V19.9904H203.381Z" fill="#2A333A"/>
<path d="M211.252 27.3929H219.225C218.793 26.6359 218.171 26.0042 217.419 25.5599C216.643 25.0871 215.75 24.8417 214.84 24.8519C214.166 24.8485 213.497 24.9823 212.876 25.2452C212.27 25.5042 211.719 25.8752 211.252 26.3387C210.781 26.7916 210.398 27.3278 210.124 27.9199C209.863 28.5429 209.728 29.2114 209.728 29.8866C209.728 30.5619 209.863 31.2304 210.124 31.8533C210.644 33.0751 211.62 34.048 212.845 34.5673C213.466 34.8303 214.134 34.9641 214.809 34.9607H222.53L217.546 39.8774H214.856C213.205 39.8749 211.58 39.4656 210.125 38.6858C208.671 37.906 207.432 36.7799 206.519 35.4075C205.606 34.0352 205.046 32.4591 204.891 30.8194C204.736 29.1796 204.989 27.527 205.628 26.0083C206.623 23.6098 208.52 21.6952 210.913 20.6747C212.145 20.1554 213.47 19.8879 214.809 19.8879C216.147 19.8879 217.472 20.1554 218.705 20.6747C221.113 21.6813 223.027 23.5911 224.037 25.9926C224.563 27.2206 224.831 28.5432 224.825 29.8788V32.3096H216.236L211.252 27.3929Z" fill="#2A333A"/>
<path d="M236.94 24.9228H236.419C235.725 24.9208 235.038 25.06 234.4 25.3318C233.784 25.6005 233.223 25.9791 232.744 26.4489C232.267 26.9315 231.882 27.4966 231.608 28.1166C231.324 28.753 231.179 29.442 231.182 30.1384V39.8617H226.3V30.1227C226.292 28.7717 226.56 27.4332 227.089 26.1893C227.606 24.9921 228.341 23.9011 229.258 22.9718C230.183 22.0519 231.275 21.3152 232.476 20.8006C233.722 20.2702 235.064 20.0024 236.419 20.0139C237.255 20.0113 238.087 20.1171 238.896 20.3286C239.695 20.5306 240.468 20.8263 241.199 21.2096L237.413 25.0329C237.261 24.9757 237.101 24.9387 236.94 24.9228Z" fill="#2A333A"/>
<path d="M249.062 39.8617C247.731 39.8695 246.412 39.6017 245.19 39.075C244.01 38.5708 242.939 37.8443 242.035 36.9352C241.126 36.0316 240.398 34.9637 239.89 33.7886C239.374 32.5684 239.109 31.2578 239.109 29.9339C239.109 28.6099 239.374 27.2993 239.89 26.0791C240.4 24.9048 241.128 23.8372 242.035 22.9325C242.939 22.0258 244.01 21.3019 245.19 20.8006C246.412 20.2812 247.726 20.0135 249.055 20.0135C250.383 20.0135 251.697 20.2812 252.919 20.8006C254.098 21.3035 255.169 22.0272 256.074 22.9325C256.981 23.8372 257.709 24.9048 258.219 26.0791C258.735 27.2993 259 28.6099 259 29.9339C259 31.2578 258.735 32.5684 258.219 33.7886C257.194 36.1707 255.287 38.0668 252.896 39.0829C251.684 39.6004 250.38 39.8655 249.062 39.8617ZM249.062 24.9621C248.385 24.9548 247.713 25.0888 247.091 25.3554C246.502 25.61 245.967 25.9729 245.513 26.4253C245.062 26.8796 244.698 27.4129 244.441 27.9986C244.179 28.6075 244.044 29.2634 244.046 29.926C244.043 30.6014 244.177 31.2705 244.441 31.8927C244.948 33.0915 245.905 34.0455 247.106 34.5516C247.73 34.8146 248.401 34.9484 249.078 34.945C249.742 34.9468 250.4 34.8129 251.011 34.5516C251.598 34.2946 252.132 33.932 252.588 33.4817C253.041 33.0292 253.405 32.4954 253.661 31.9084C253.928 31.2874 254.062 30.6175 254.055 29.9417C254.061 29.2788 253.926 28.6221 253.661 28.0144C253.146 26.8295 252.198 25.8844 251.011 25.3711C250.398 25.0985 249.734 24.9591 249.062 24.9621Z" fill="#2A333A"/>
<path d="M74.3955 55.8627L75.2552 51.8349C75.2756 51.7151 75.2756 51.5928 75.2552 51.473L74.5769 45.4156H75.5549C75.7126 47.1385 75.9571 49.8368 75.9729 50.5684C76.3594 49.7188 77.6055 47.1857 78.5046 45.4156H79.53L76.2884 51.5832C76.2398 51.6891 76.2028 51.7998 76.178 51.9136L75.3341 55.8469L74.3955 55.8627Z" fill="#2A333A"/>
<path d="M82.5434 50.348L81.873 53.5498C81.5102 55.2805 80.9502 55.9885 79.5779 55.9885C78.3238 55.9885 77.6219 55.2018 78.0005 53.4711L78.7103 50.0963C78.9942 48.7904 79.499 47.8071 80.9502 47.8071C82.4014 47.8071 82.8825 48.7432 82.5434 50.348ZM79.6883 50.0963L78.8996 53.6206C78.6788 54.7062 79.0337 55.1939 79.6883 55.1939C80.3429 55.1939 80.619 54.8557 80.8713 53.715L81.6127 50.2536C81.8257 49.2781 81.6127 48.6803 80.824 48.6803C80.0353 48.6803 79.8855 49.1995 79.6883 50.0963Z" fill="#2A333A"/>
<path d="M86.905 53.7622C86.692 54.7534 86.5343 55.548 86.4791 55.8627H85.509C85.509 55.7211 85.5878 55.3828 85.6509 55.076C85.5189 55.3616 85.304 55.6013 85.0341 55.7639C84.7642 55.9266 84.4516 56.0048 84.1366 55.9885C83.5687 55.9885 82.6538 55.7447 83.064 53.8488L84.318 47.933H85.2881L84.0498 53.7229C83.8369 54.7141 84.0025 55.1232 84.5862 55.1232C85.1698 55.1232 85.7061 54.7377 86.0532 53.1014L87.1416 47.933H88.1275L86.905 53.7622Z" fill="#2A333A"/>
<path d="M89.0422 50.6313C89.3183 49.3648 89.4918 48.4601 89.5864 47.933H90.5092C90.4636 48.3273 90.3951 48.7187 90.3042 49.1052C90.4575 48.7352 90.7148 48.4174 91.045 48.1899C91.3752 47.9624 91.7644 47.835 92.1655 47.8229L91.9131 48.9636C90.8563 49.0186 90.1937 49.7502 89.9098 51.0954L88.8924 55.8627H87.9302L89.0422 50.6313Z" fill="#2A333A"/>
<path d="M96.322 46.2967H94.6815L94.8786 45.4156H99.1061L98.9168 46.2967H97.2921L95.2572 55.8627H94.2871L96.322 46.2967Z" fill="#2A333A"/>
<path d="M98.1282 50.6313C98.4042 49.3648 98.5777 48.4601 98.6724 47.933H99.5952C99.5496 48.3273 99.4811 48.7187 99.3901 49.1052C99.5429 48.7364 99.799 48.4194 100.128 48.192C100.456 47.9646 100.844 47.8364 101.244 47.8229L100.991 48.9636C99.9343 49.0186 99.2718 49.7502 98.9879 51.0954L97.9783 55.8627H97.0161L98.1282 50.6313Z" fill="#2A333A"/>
<path d="M104.603 53.7622C104.383 54.7534 104.225 55.548 104.177 55.8627H103.231C103.231 55.7211 103.31 55.3828 103.365 55.076C103.239 55.3644 103.027 55.607 102.757 55.7703C102.487 55.9337 102.173 56.0099 101.859 55.9885C101.291 55.9885 100.368 55.7447 100.778 53.8488L102.04 47.933H103.002L101.764 53.7229C101.551 54.7141 101.725 55.1232 102.308 55.1232C102.892 55.1232 103.42 54.7377 103.767 53.1014L104.864 47.933H105.842L104.603 53.7622Z" fill="#2A333A"/>
<path d="M106.717 53.5577L106.662 53.8487C106.512 54.6354 106.662 55.1861 107.403 55.1861C107.908 55.1861 108.192 54.9029 108.374 54.1634C108.488 53.7759 108.481 53.3629 108.354 52.9793C108.227 52.5957 107.987 52.2596 107.664 52.0158C106.733 51.1269 106.425 50.5919 106.631 49.4512C106.655 48.9942 106.859 48.5652 107.199 48.2574C107.538 47.9496 107.986 47.7878 108.445 47.8071C109.809 47.8071 110.172 48.8062 109.967 49.876L109.904 50.1907H108.981L109.044 49.8131C109.17 49.0972 109.044 48.6095 108.389 48.6095C107.979 48.6095 107.672 48.8927 107.601 49.5771C107.53 50.2615 107.601 50.5526 108.279 51.2134C109.375 52.2754 109.635 52.9047 109.367 54.2264C109.333 54.7224 109.104 55.1851 108.731 55.5147C108.358 55.8443 107.87 56.0144 107.372 55.9885C105.794 55.9885 105.495 54.958 105.794 53.6993V53.5577H106.717Z" fill="#2A333A"/>
<path d="M110.905 47.933H111.812L112.27 45.9113H113.224L112.775 47.933H113.902L113.721 48.7747H112.609L111.402 54.3208C111.284 54.8951 111.363 55.1625 111.852 55.1625C112.048 55.1606 112.243 55.1395 112.435 55.0996L112.262 55.8863C112.004 55.9513 111.739 55.983 111.473 55.9807C110.684 55.9807 110.172 55.6581 110.424 54.486L111.662 48.7826H110.748L110.905 47.933Z" fill="#2A333A"/>
<path d="M114.644 52.0551C114.588 52.2832 114.415 53.125 114.352 53.4082C114.147 54.3915 114.194 55.1703 114.999 55.1703C115.803 55.1703 115.929 54.5489 116.103 53.7937L116.15 53.5813H117.104L117.049 53.7937C116.813 54.8242 116.481 55.9885 114.904 55.9885C113.153 55.9885 113.153 54.5489 113.437 53.1958L114.044 50.3244C114.305 49.0893 114.715 47.8071 116.276 47.8071C118.011 47.8071 118.059 49.1995 117.806 50.3795C117.759 50.6155 117.507 51.7955 117.444 52.0551H114.644ZM116.679 51.2684C116.726 51.0639 116.892 50.293 116.931 50.0963C117.097 49.3096 116.931 48.6173 116.221 48.6173C115.511 48.6173 115.196 49.4748 115.046 50.1907L114.817 51.2763L116.679 51.2684Z" fill="#2A333A"/>
<path d="M123.958 44.9515L122.065 53.8802C121.876 54.7613 121.75 55.4536 121.671 55.8862H120.732C120.749 55.622 120.783 55.3592 120.835 55.0996C120.707 55.3646 120.506 55.5885 120.257 55.7456C120.007 55.9028 119.718 55.9869 119.423 55.9885C118.209 55.9885 117.964 54.9029 118.28 53.4554L118.966 50.3087C119.242 49.0579 119.754 47.8464 121.032 47.8464C121.29 47.8133 121.551 47.8674 121.774 48C121.997 48.1327 122.169 48.3363 122.263 48.578L123.051 44.9908L123.958 44.9515ZM119.904 50.293L119.226 53.4948C119.045 54.3365 119.053 55.1232 119.833 55.1232C120.614 55.1232 121.024 54.187 121.292 52.9519L121.837 50.4425C122.073 49.349 121.994 48.641 121.15 48.641C120.48 48.641 120.125 49.2467 119.904 50.293Z" fill="#2A333A"/>
<path d="M128.099 46.2967H126.458L126.648 45.4156H130.883L130.686 46.2967H129.061L127.026 55.8627H126.064L128.099 46.2967Z" fill="#2A333A"/>
<path d="M130.315 52.0551C130.26 52.2832 130.086 53.125 130.023 53.4082C129.818 54.3915 129.866 55.1703 130.67 55.1703C131.474 55.1703 131.601 54.5489 131.774 53.7937L131.822 53.5813H132.776L132.721 53.7937C132.484 54.8242 132.153 55.9885 130.575 55.9885C128.824 55.9885 128.824 54.5489 129.108 53.1958L129.716 50.3244C129.976 49.0893 130.386 47.8071 131.948 47.8071C133.683 47.8071 133.73 49.1995 133.478 50.3795C133.43 50.6155 133.178 51.7955 133.115 52.0551H130.315ZM132.35 51.2684C132.397 51.0639 132.563 50.293 132.602 50.0963C132.768 49.3096 132.602 48.6173 131.892 48.6173C131.183 48.6173 130.867 49.4748 130.717 50.1907L130.465 51.2527L132.35 51.2684Z" fill="#2A333A"/>
<path d="M137.563 53.5655L137.516 53.7701C137.295 54.7691 136.956 55.9885 135.371 55.9885C133.659 55.9885 133.659 54.6197 133.912 53.4239L134.59 50.2379C134.874 48.9163 135.292 47.8071 136.735 47.8071C138.368 47.8071 138.486 49.0185 138.313 50.0648L138.234 50.466H137.279L137.358 50.0412C137.54 49.168 137.437 48.6252 136.704 48.6252C135.97 48.6252 135.836 49.168 135.607 50.1986L134.874 53.6049C134.677 54.5567 134.748 55.1782 135.505 55.1782C136.262 55.1782 136.349 54.6747 136.562 53.8409L136.625 53.5813L137.563 53.5655Z" fill="#2A333A"/>
<path d="M141.507 44.9515L140.718 48.6724C140.862 48.408 141.075 48.1876 141.335 48.0351C141.595 47.8826 141.891 47.8038 142.193 47.8071C143.36 47.8071 143.605 48.696 143.36 49.8446L142.075 55.8626H141.104L142.343 50.0413C142.508 49.2546 142.524 48.641 141.759 48.641C140.994 48.641 140.56 49.4277 140.308 50.5919L139.18 55.8626H138.218L140.537 44.9515H141.507Z" fill="#2A333A"/>
<path d="M147.896 45.4156H149.544C151.121 45.4156 151.587 46.4462 151.287 47.9881L151.145 48.7039C150.837 50.2773 150.222 51.064 148.353 51.064H147.643L146.634 55.784H145.671L147.896 45.4156ZM147.817 50.2773H148.479C149.631 50.2773 149.938 49.7345 150.167 48.641L150.301 47.9802C150.506 47.0441 150.475 46.2417 149.37 46.2417H148.676L147.817 50.2773Z" fill="#2A333A"/>
<path d="M154.513 54.2972C154.426 54.7378 154.252 55.5874 154.213 55.8706H153.274C153.274 55.6582 153.338 55.3828 153.385 55.1468C153.264 55.4166 153.063 55.6429 152.809 55.7949C152.555 55.9468 152.261 56.0172 151.965 55.9964C150.814 55.9964 150.569 54.8951 150.83 53.6364C151.192 51.9372 152.084 51.4101 153.929 51.1112L154.245 51.064L154.505 49.8132C154.686 49.0265 154.505 48.5781 153.874 48.5781C153.243 48.5781 153.085 49.0816 152.872 49.8604V50.0256H151.918V49.9312C152.139 48.8849 152.446 47.7836 153.992 47.7836C155.27 47.7836 155.743 48.5702 155.491 49.7188L154.513 54.2972ZM154.079 51.89L153.787 51.9372C152.651 52.1496 152.052 52.4957 151.792 53.66C151.61 54.4467 151.721 55.1232 152.391 55.1232C153.062 55.1232 153.551 54.3838 153.866 52.8969L154.079 51.89Z" fill="#2A333A"/>
<path d="M156.768 50.6313C157.036 49.3648 157.218 48.4601 157.312 47.933H158.235C158.19 48.3273 158.121 48.7187 158.03 49.1052C158.183 48.7364 158.439 48.4194 158.768 48.192C159.096 47.9646 159.484 47.8364 159.884 47.8229L159.647 48.9636C158.59 49.0186 157.928 49.7502 157.644 51.0954L156.634 55.8627H155.664L156.768 50.6313Z" fill="#2A333A"/>
<path d="M160.436 47.933H161.351L161.8 45.9113H162.755L162.305 47.933H163.417L163.236 48.7747H162.124L160.917 54.3208C160.799 54.8951 160.917 55.1625 161.374 55.1625C161.568 55.1602 161.761 55.1391 161.95 55.0996L161.777 55.8863C161.519 55.9513 161.254 55.983 160.988 55.9807C160.199 55.9807 159.686 55.6581 159.939 54.486L161.177 48.7826H160.278L160.436 47.933Z" fill="#2A333A"/>
<path d="M163.772 50.3402C164.111 48.7669 164.206 48.2713 164.269 47.933H165.207C165.207 48.0825 165.144 48.3342 165.073 48.7197C165.232 48.4441 165.462 48.2167 165.74 48.0615C166.018 47.9063 166.333 47.8293 166.651 47.8386C167.487 47.8386 168.078 48.3893 167.794 49.703L166.477 55.8941H165.507L166.777 49.9154C166.943 49.1287 166.84 48.6725 166.185 48.6725C165.531 48.6725 165.002 49.2231 164.703 50.6706L163.591 55.8627H162.628L163.772 50.3402Z" fill="#2A333A"/>
<path d="M169.498 52.0551C169.45 52.2832 169.277 53.125 169.214 53.4082C169.009 54.3915 169.048 55.1703 169.853 55.1703C170.657 55.1703 170.791 54.5489 170.957 53.7937L171.004 53.5813H171.959L171.911 53.7937C171.667 54.8242 171.335 55.9885 169.758 55.9885C168.007 55.9885 168.007 54.5489 168.299 53.1958L168.906 50.3244C169.159 49.0893 169.577 47.8071 171.13 47.8071C172.873 47.8071 172.921 49.1995 172.66 50.3795C172.613 50.6155 172.361 51.7955 172.306 52.0551H169.498ZM171.541 51.2684C171.541 51.0639 171.746 50.293 171.793 50.0963C171.959 49.3096 171.793 48.6173 171.075 48.6173C170.357 48.6173 170.05 49.4748 169.908 50.1907L169.671 51.2763L171.541 51.2684Z" fill="#2A333A"/>
<path d="M173.883 50.6313C174.151 49.3648 174.333 48.4601 174.427 47.933H175.35C175.305 48.3273 175.236 48.7187 175.145 49.1052C175.298 48.7364 175.554 48.4194 175.883 48.192C176.211 47.9646 176.599 47.8364 176.999 47.8229L176.746 48.9636C175.689 49.0186 175.027 49.7502 174.743 51.0954L173.733 55.8627H172.763L173.883 50.6313Z" fill="#2A333A"/>
<defs>
<linearGradient id="paint0_linear" x1="54.6785" y1="28.3145" x2="67.56" y2="42.4521" gradientUnits="userSpaceOnUse">
<stop stop-color="#14434F"/>
<stop offset="0.21" stop-color="#154552"/>
<stop offset="0.35" stop-color="#1A4D5A"/>
<stop offset="0.46" stop-color="#215969"/>
<stop offset="0.56" stop-color="#2C6B7E"/>
<stop offset="0.66" stop-color="#398299"/>
<stop offset="0.75" stop-color="#4A9EBB"/>
<stop offset="0.83" stop-color="#5DBFE1"/>
<stop offset="0.84" stop-color="#61C5E9"/>
</linearGradient>
<linearGradient id="paint1_linear" x1="7.07252" y1="33.1889" x2="15.6435" y2="48.0599" gradientUnits="userSpaceOnUse">
<stop stop-color="#14434F"/>
<stop offset="0.2" stop-color="#154552"/>
<stop offset="0.34" stop-color="#1A4D5B"/>
<stop offset="0.45" stop-color="#225A6A"/>
<stop offset="0.56" stop-color="#2C6C80"/>
<stop offset="0.66" stop-color="#3A849B"/>
<stop offset="0.75" stop-color="#4BA1BE"/>
<stop offset="0.84" stop-color="#61C5E9"/>
</linearGradient>
<linearGradient id="paint2_linear" x1="28.5368" y1="-1.30282" x2="36.2358" y2="10.403" gradientUnits="userSpaceOnUse">
<stop stop-color="#14434F"/>
<stop offset="0.27" stop-color="#154551"/>
<stop offset="0.43" stop-color="#194C5A"/>
<stop offset="0.56" stop-color="#205868"/>
<stop offset="0.68" stop-color="#2B697C"/>
<stop offset="0.78" stop-color="#387F96"/>
<stop offset="0.88" stop-color="#489AB6"/>
<stop offset="0.97" stop-color="#5ABADB"/>
<stop offset="1" stop-color="#61C5E9"/>
</linearGradient>
</defs>
</svg>
