<svg width="753" height="592" viewBox="0 0 753 592" fill="none" xmlns="http://www.w3.org/2000/svg">
<path d="M753 384.9H708.281V402.214H753V384.9Z" fill="#DF382B"/>
<path d="M76.8579 468.566L57.5684 454.362L76.8579 440.158V468.566Z" fill="#34A853"/>
<path d="M353.86 8.65726H281.107V24.6393H353.86V8.65726Z" fill="#FABB05"/>
<path d="M373.216 24.6393C377.64 24.6393 381.226 21.0616 381.226 16.6483C381.226 12.235 377.64 8.65726 373.216 8.65726C368.793 8.65726 365.207 12.235 365.207 16.6483C365.207 21.0616 368.793 24.6393 373.216 24.6393Z" fill="#DF382B"/>
<path d="M358.659 8.51709H281.093V25.5579H358.659V8.51709Z" fill="#FABB05"/>
<path d="M521.859 367.992H70.8574V70.7536H521.859V367.992ZM74.168 364.663H518.522V74.0832H74.1947L74.168 364.663Z" fill="#CECECE"/>
<path d="M521.859 106.547H70.8574V70.7536H521.859V106.547ZM74.1947 103.217H518.522V74.0832H74.1947V103.217Z" fill="#CECECE"/>
<path d="M92.0893 95.2794C95.3922 95.2794 98.0697 92.608 98.0697 89.3128C98.0697 86.0175 95.3922 83.3462 92.0893 83.3462C88.7864 83.3462 86.1089 86.0175 86.1089 89.3128C86.1089 92.608 88.7864 95.2794 92.0893 95.2794Z" fill="#DF382B"/>
<path d="M114.009 95.2794C117.312 95.2794 119.989 92.608 119.989 89.3128C119.989 86.0175 117.312 83.3462 114.009 83.3462C110.706 83.3462 108.028 86.0175 108.028 89.3128C108.028 92.608 110.706 95.2794 114.009 95.2794Z" fill="#FABB05"/>
<path d="M135.928 95.2794C139.231 95.2794 141.908 92.608 141.908 89.3128C141.908 86.0175 139.231 83.3462 135.928 83.3462C132.625 83.3462 129.948 86.0175 129.948 89.3128C129.948 92.608 132.625 95.2794 135.928 95.2794Z" fill="#4285F4"/>
<path d="M579.168 275.903V315.218H633.62V275.903L606.394 254.041L579.168 275.903Z" fill="#FABB05"/>
<path d="M704.736 275.896H650.285V315.212H704.736V275.896Z" fill="#FABB05"/>
<path d="M677.517 301.381L653.395 281.583L655.517 279.012L677.517 297.065L699.51 279.012L701.632 281.583L677.517 301.381Z" fill="white"/>
<path d="M633.538 275.823L606.313 294.175L579.08 275.823H633.538Z" fill="white"/>
<path d="M107.414 333.052L100.259 373.759C100.121 374.542 99.7102 375.25 99.0998 375.761C98.4893 376.271 97.718 376.55 96.9216 376.549H40.3745L44.9066 337.926C44.9982 337.128 45.3807 336.391 45.9812 335.856C46.5817 335.321 47.3585 335.024 48.1638 335.023H75.1891C75.7117 335.024 76.227 334.9 76.6916 334.661C77.1562 334.423 77.5565 334.076 77.859 333.651L80.0549 330.581C80.3593 330.158 80.7601 329.813 81.2242 329.574C81.6884 329.336 82.2027 329.211 82.7248 329.209H104.184C104.663 329.209 105.136 329.313 105.571 329.515C106.005 329.717 106.39 330.011 106.698 330.378C107.006 330.744 107.23 331.173 107.354 331.635C107.477 332.097 107.498 332.581 107.414 333.052Z" fill="#EDA709"/>
<path d="M40.0475 376.549H97.1486C97.4688 376.55 97.7851 376.48 98.0751 376.344C98.3652 376.209 98.6219 376.012 98.827 375.767C99.0321 375.521 99.1806 375.234 99.262 374.925C99.3433 374.616 99.3555 374.293 99.2978 373.979L93.1905 340.65C93.0476 339.888 92.6427 339.2 92.0457 338.704C91.4486 338.208 90.6969 337.935 89.92 337.933H67.44C66.7841 337.934 66.1432 338.128 65.5971 338.49C65.0511 338.853 64.6241 339.367 64.3697 339.97L63.9959 340.869C63.7425 341.474 63.316 341.99 62.7698 342.354C62.2237 342.717 61.5822 342.912 60.9256 342.914H34.7278C34.238 342.918 33.7551 343.029 33.3132 343.24C32.8714 343.451 32.4815 343.756 32.1713 344.134C31.861 344.513 31.638 344.954 31.5181 345.428C31.3981 345.902 31.3842 346.396 31.4773 346.876L36.817 373.892C36.9708 374.636 37.375 375.306 37.9627 375.789C38.5503 376.272 39.286 376.541 40.0475 376.549Z" fill="#FABB05"/>
<path d="M142.162 150.058H0V289.834H142.162V150.058Z" fill="#E3E3E3"/>
<path d="M52.609 183.433C52.609 186.12 51.8104 188.747 50.3143 190.981C48.8181 193.215 46.6916 194.956 44.2035 195.984C41.7155 197.012 38.9778 197.281 36.3365 196.757C33.6952 196.233 31.269 194.939 29.3648 193.039C27.4605 191.139 26.1637 188.719 25.6383 186.084C25.113 183.448 25.3826 180.717 26.4132 178.235C27.4438 175.752 29.189 173.631 31.4281 172.138C33.6673 170.645 36.2999 169.849 38.9929 169.849C40.7825 169.843 42.5554 170.191 44.2098 170.872C45.8642 171.553 47.3673 172.553 48.6327 173.816C49.8982 175.078 50.9009 176.578 51.5833 178.229C52.2657 179.879 52.6143 181.648 52.609 183.433Z" fill="white"/>
<path d="M48.9313 192.723C47.6577 194.079 46.1189 195.16 44.4101 195.898C42.7012 196.637 40.8586 197.018 38.9962 197.018C37.1337 197.018 35.2911 196.637 33.5822 195.898C31.8734 195.16 30.3346 194.079 29.061 192.723C29.5488 190.753 30.6136 188.972 32.1198 187.608C33.6259 186.244 35.5051 185.359 37.5177 185.065C36.3878 184.712 35.4219 183.968 34.7949 182.966C34.168 181.964 33.9216 180.771 34.1004 179.603C34.2791 178.435 34.8712 177.37 35.7694 176.601C36.6675 175.831 37.8123 175.408 38.9962 175.408C40.1801 175.408 41.3248 175.831 42.2229 176.601C43.1211 177.37 43.7132 178.435 43.8919 179.603C44.0707 180.771 43.8243 181.964 43.1974 182.966C42.5704 183.968 41.6045 184.712 40.4746 185.065C42.4869 185.36 44.3656 186.246 45.8716 187.609C47.3776 188.973 48.4427 190.753 48.9313 192.723Z" fill="#4285F4"/>
<path d="M116.785 176.634H63.3818V179.964H116.785V176.634Z" fill="white"/>
<path d="M116.785 186.903H63.3818V190.232H116.785V186.903Z" fill="white"/>
<path d="M52.609 220.938C52.609 223.625 51.8104 226.251 50.3143 228.485C48.8181 230.719 46.6916 232.46 44.2035 233.488C41.7155 234.517 38.9778 234.786 36.3365 234.262C33.6952 233.737 31.269 232.444 29.3648 230.544C27.4605 228.644 26.1637 226.223 25.6383 223.588C25.113 220.953 25.3826 218.221 26.4132 215.739C27.4438 213.257 29.189 211.135 31.4281 209.643C33.6673 208.15 36.2999 207.353 38.9929 207.353C40.7829 207.346 42.5567 207.693 44.2119 208.373C45.8671 209.053 47.3709 210.053 48.6367 211.316C49.9025 212.579 50.9052 214.08 51.5869 215.731C52.2687 217.382 52.6161 219.152 52.609 220.938Z" fill="white"/>
<path d="M48.9313 230.227C47.6577 231.583 46.1189 232.664 44.4101 233.403C42.7012 234.142 40.8586 234.523 38.9962 234.523C37.1337 234.523 35.2911 234.142 33.5822 233.403C31.8734 232.664 30.3346 231.583 29.061 230.227C29.5496 228.258 30.6147 226.477 32.1207 225.114C33.6267 223.75 35.5055 222.864 37.5177 222.569C36.3878 222.217 35.4219 221.472 34.7949 220.47C34.168 219.468 33.9216 218.275 34.1004 217.107C34.2791 215.94 34.8712 214.875 35.7694 214.105C36.6675 213.336 37.8123 212.912 38.9962 212.912C40.1801 212.912 41.3248 213.336 42.2229 214.105C43.1211 214.875 43.7132 215.94 43.8919 217.107C44.0707 218.275 43.8243 219.468 43.1974 220.47C42.5704 221.472 41.6045 222.217 40.4746 222.569C42.4865 222.865 44.3649 223.751 45.8707 225.115C47.3766 226.478 48.4419 228.258 48.9313 230.227Z" fill="#4285F4"/>
<path d="M116.785 214.139H63.3818V217.468H116.785V214.139Z" fill="white"/>
<path d="M116.785 224.407H63.3818V227.737H116.785V224.407Z" fill="white"/>
<path d="M52.609 256.458C52.609 259.145 51.8104 261.771 50.3143 264.005C48.8181 266.239 46.6916 267.98 44.2035 269.009C41.7155 270.037 38.9778 270.306 36.3365 269.782C33.6952 269.257 31.269 267.964 29.3648 266.064C27.4605 264.164 26.1637 261.743 25.6383 259.108C25.113 256.473 25.3826 253.741 26.4132 251.259C27.4438 248.777 29.189 246.655 31.4281 245.163C33.6673 243.67 36.2999 242.873 38.9929 242.873C40.7825 242.868 42.5554 243.216 44.2098 243.896C45.8642 244.577 47.3673 245.578 48.6327 246.84C49.8982 248.103 50.9009 249.602 51.5833 251.253C52.2657 252.904 52.6143 254.672 52.609 256.458Z" fill="white"/>
<path d="M48.9313 265.747C47.6577 267.103 46.1189 268.184 44.4101 268.923C42.7012 269.661 40.8586 270.043 38.9962 270.043C37.1337 270.043 35.2911 269.661 33.5822 268.923C31.8734 268.184 30.3346 267.103 29.061 265.747C29.5488 263.777 30.6136 261.997 32.1198 260.633C33.6259 259.269 35.5051 258.383 37.5177 258.089C36.3878 257.737 35.4219 256.992 34.7949 255.99C34.168 254.988 33.9216 253.795 34.1004 252.627C34.2791 251.46 34.8712 250.395 35.7694 249.625C36.6675 248.856 37.8123 248.432 38.9962 248.432C40.1801 248.432 41.3248 248.856 42.2229 249.625C43.1211 250.395 43.7132 251.46 43.8919 252.627C44.0707 253.795 43.8243 254.988 43.1974 255.99C42.5704 256.992 41.6045 257.737 40.4746 258.089C42.4869 258.384 44.3656 259.27 45.8716 260.634C47.3776 261.997 48.4427 263.778 48.9313 265.747Z" fill="#4285F4"/>
<path d="M116.785 249.659H63.3818V252.988H116.785V249.659Z" fill="white"/>
<path d="M116.785 259.927H63.3818V263.257H116.785V259.927Z" fill="white"/>
<path d="M237.255 193.828H168.867V258.216H237.255V193.828Z" fill="#E3E3E3"/>
<path d="M231.074 199.655H174.707V251.484H231.074V199.655Z" fill="white"/>
<path d="M231.081 231.226V251.477H174.707V231.939L186.054 221.83L197.167 230.094L212.592 212.78L231.081 231.226Z" fill="#4285F4"/>
<path d="M194.444 217.535C196.7 217.535 198.529 215.71 198.529 213.46C198.529 211.209 196.7 209.384 194.444 209.384C192.188 209.384 190.359 211.209 190.359 213.46C190.359 215.71 192.188 217.535 194.444 217.535Z" fill="#FABB05"/>
<path d="M718.039 0H616.985V42.006H628.92V63.7149L651.693 42.006H718.039V0Z" fill="#4285F4"/>
<path d="M648.516 26.9762C651.332 26.9762 653.615 24.6984 653.615 21.8886C653.615 19.0788 651.332 16.801 648.516 16.801C645.7 16.801 643.417 19.0788 643.417 21.8886C643.417 24.6984 645.7 26.9762 648.516 26.9762Z" fill="white"/>
<path d="M667.232 26.9762C670.048 26.9762 672.331 24.6984 672.331 21.8886C672.331 19.0788 670.048 16.801 667.232 16.801C664.415 16.801 662.132 19.0788 662.132 21.8886C662.132 24.6984 664.415 26.9762 667.232 26.9762Z" fill="white"/>
<path d="M685.947 26.9762C688.763 26.9762 691.047 24.6984 691.047 21.8886C691.047 19.0788 688.763 16.801 685.947 16.801C683.131 16.801 680.848 19.0788 680.848 21.8886C680.848 24.6984 683.131 26.9762 685.947 26.9762Z" fill="white"/>
<path d="M178.084 81.648H279.138V123.654H267.21V145.363L244.43 123.654H178.084V81.648Z" fill="#4285F4"/>
<path d="M233.243 95.932H193.389V98.5956H233.243V95.932Z" fill="white"/>
<path d="M263.84 106.587H193.389V109.25H263.84V106.587Z" fill="white"/>
<path d="M631.522 507.761H628.853V405.144C628.486 381.057 632.557 372.021 636.034 368.691C637.977 366.827 639.625 366.82 639.926 366.833L639.852 368.165V369.497C639.766 369.497 631.009 370.163 631.542 405.124L631.522 507.761Z" fill="#34A853"/>
<path d="M631.522 442.921H628.853C628.853 430.389 636.722 425.607 637.056 425.388L638.391 427.685L637.723 426.54L638.391 427.678C638.137 427.851 631.522 431.974 631.522 442.921Z" fill="#34A853"/>
<path d="M631.389 490.261L628.979 489.116C629.093 488.869 640.713 464.097 629.173 450.026L631.235 448.342C643.857 463.724 631.903 489.189 631.389 490.261Z" fill="#34A853"/>
<path d="M615.271 464.676C625.247 460.112 631.564 452.564 629.381 447.817C627.198 443.071 617.343 442.923 607.368 447.487C597.393 452.051 591.076 459.599 593.258 464.346C595.441 469.092 605.296 469.24 615.271 464.676Z" fill="#34A853"/>
<path d="M623.188 398.105C631.15 394.462 636.192 388.438 634.45 384.651C632.709 380.863 624.844 380.746 616.883 384.389C608.922 388.033 603.88 394.056 605.621 397.844C607.362 401.631 615.227 401.748 623.188 398.105Z" fill="#34A853"/>
<path d="M611.023 432.128C615.895 429.038 618.646 424.653 617.168 422.335C615.691 420.016 610.544 420.642 605.673 423.733C600.801 426.823 598.05 431.207 599.528 433.526C601.005 435.844 606.152 435.218 611.023 432.128Z" fill="#34A853"/>
<path d="M618.497 487.042C623.368 483.952 625.933 479.275 624.226 476.597C622.519 473.918 617.186 474.252 612.315 477.343C607.444 480.433 604.878 485.109 606.585 487.788C608.292 490.466 613.625 490.132 618.497 487.042Z" fill="#34A853"/>
<path d="M671.045 441.35C673.009 436.832 666.906 429.84 657.413 425.731C647.92 421.623 638.633 421.955 636.668 426.473C634.704 430.991 640.807 437.984 650.3 442.092C659.793 446.2 669.08 445.868 671.045 441.35Z" fill="#34A853"/>
<path d="M648.491 454.87C649.764 453.119 648.269 449.871 645.152 447.613C642.034 445.356 638.474 444.945 637.201 446.695C635.928 448.445 637.423 451.694 640.541 453.951C643.659 456.209 647.218 456.62 648.491 454.87Z" fill="#34A853"/>
<path d="M667.353 424.529C668.051 423.57 667.232 421.792 665.526 420.556C663.819 419.32 661.871 419.096 661.174 420.054C660.476 421.013 661.295 422.791 663.001 424.027C664.708 425.262 666.656 425.487 667.353 424.529Z" fill="#34A853"/>
<path d="M641.959 495.735C642.77 494.619 641.82 492.549 639.836 491.113C637.852 489.676 635.586 489.417 634.774 490.533C633.962 491.649 634.912 493.718 636.896 495.155C638.88 496.591 641.147 496.851 641.959 495.735Z" fill="#34A853"/>
<path d="M650.753 405.227C654.451 404.151 656.957 401.595 656.35 399.519C655.743 397.443 652.253 396.633 648.555 397.709C644.857 398.785 642.351 401.34 642.958 403.416C643.565 405.492 647.055 406.303 650.753 405.227Z" fill="#34A853"/>
<path d="M653.49 375.982C654.813 373.332 651.041 368.776 645.066 365.806C639.091 362.836 633.174 362.577 631.851 365.227C630.528 367.877 634.299 372.433 640.275 375.403C646.25 378.372 652.167 378.632 653.49 375.982Z" fill="#34A853"/>
<path d="M666.806 472.997C668.288 469.59 664.749 464.776 658.901 462.245C653.054 459.715 647.113 460.426 645.631 463.834C644.15 467.241 647.689 472.055 653.536 474.586C659.383 477.116 665.324 476.405 666.806 472.997Z" fill="#299141"/>
<path d="M667.57 489.354C670.786 484.247 666.29 475.655 657.529 470.163C648.767 464.671 639.057 464.359 635.841 469.466C632.625 474.573 637.121 483.166 645.882 488.658C654.644 494.15 664.354 494.462 667.57 489.354Z" fill="#34A853"/>
<path d="M631.442 475.531L628.919 474.659C628.959 474.532 630.041 471.476 634.626 469.997L635.434 472.534C632.19 473.58 631.469 475.464 631.442 475.531Z" fill="#34A853"/>
<path d="M667.812 504.385H594.238C593.573 504.385 592.915 504.516 592.301 504.77C591.686 505.024 591.128 505.397 590.658 505.866C590.189 506.336 589.816 506.893 589.562 507.506C589.308 508.119 589.178 508.776 589.179 509.44V567.181C589.178 569.945 589.723 572.682 590.783 575.235C591.842 577.789 593.396 580.109 595.355 582.063C597.313 584.017 599.639 585.567 602.198 586.624C604.758 587.681 607.501 588.225 610.271 588.224H651.78C654.55 588.225 657.293 587.681 659.852 586.624C662.412 585.567 664.737 584.017 666.696 582.063C668.655 580.109 670.208 577.789 671.268 575.235C672.327 572.682 672.872 569.945 672.872 567.181V509.426C672.87 508.089 672.336 506.807 671.387 505.861C670.439 504.916 669.153 504.385 667.812 504.385Z" fill="#CCCCCC"/>
<path d="M351.236 588.424H294.616C294.616 588.424 296.472 581.299 307.845 578.928C312.577 577.936 323.47 577.423 326.647 568.446C329.043 561.681 326.414 549.095 326.414 549.095H348.106L351.236 588.424Z" fill="#290C0C"/>
<path d="M431.652 588.424H375.031C375.031 588.424 376.887 581.299 388.261 578.928C392.993 577.936 401.75 578.136 404.947 569.159C407.343 562.387 401.156 549.095 401.156 549.095H422.848L431.652 588.424Z" fill="#290C0C"/>
<path d="M330.939 158.248C330.939 158.248 334.817 171.78 338.048 175.003L338.715 160.18L330.939 158.248Z" fill="#290C0C"/>
<path d="M360.121 175.389V175.456L360.394 179.504L361.729 199.289L332.495 197.158L336.726 166.752C335.73 167.012 334.684 167.022 333.683 166.781C332.681 166.541 331.755 166.057 330.986 165.374C328.049 162.71 325.78 158.475 329.424 155.132L330.866 137.505L363.124 135.874C363.124 135.874 378.736 175.003 360.121 175.389Z" fill="#EFC4B0"/>
<path d="M339.336 142.859C339.336 142.859 380.004 143.192 370.399 133.396C370.399 133.396 376.173 127.65 366.969 125.698C366.969 125.698 369.912 112.234 348.72 124.819C348.72 124.819 348.053 112.167 330.786 129.98C330.786 129.98 313.899 132.058 329.064 155.492C329.064 155.492 333.736 151.623 336.512 158.741C336.512 158.741 339.443 156.777 339.923 154.333C340.404 151.889 340.951 150.644 339.336 142.859Z" fill="#290C0C"/>
<path d="M309.867 302.333L309.594 396.174L320.487 564.444H354.954L356.529 389.075L366.548 306.155L309.867 302.333Z" fill="#001B69"/>
<path d="M334.503 325.886L354.16 410.458L397.785 564.031H432.253L402.784 400.436C402.784 400.436 399.707 333.844 390.897 315.118L334.503 325.886Z" fill="#003180"/>
<path d="M486.787 76.9645L432.011 121.187L489.348 191.879L544.124 147.656L486.787 76.9645Z" fill="#290C0C"/>
<path d="M498.146 75.9759L438.957 113.938L488.177 190.326L547.366 152.364L498.146 75.9759Z" fill="#4285F4"/>
<path d="M474.046 111.668L455.991 123.214L457.072 124.896L475.126 113.35L474.046 111.668Z" fill="white"/>
<path d="M502.91 101.383L460.029 128.806L461.11 130.488L503.99 103.065L502.91 101.383Z" fill="white"/>
<path d="M506.636 107.172L463.755 134.595L464.836 136.277L507.716 108.854L506.636 107.172Z" fill="white"/>
<path d="M510.357 112.964L467.476 140.387L468.557 142.069L511.437 114.646L510.357 112.964Z" fill="white"/>
<path d="M514.073 118.751L471.193 146.174L472.273 147.856L515.154 120.433L514.073 118.751Z" fill="white"/>
<path d="M517.794 124.544L474.914 151.967L475.994 153.649L518.875 126.226L517.794 124.544Z" fill="white"/>
<path d="M521.504 130.331L478.624 157.754L479.704 159.436L522.585 132.012L521.504 130.331Z" fill="white"/>
<path d="M525.225 136.13L482.344 163.553L483.425 165.235L526.306 137.812L525.225 136.13Z" fill="white"/>
<path d="M311.202 248.84L306.61 258.356L293.194 286.124L251.719 345.89H227.209L270.421 276.182L282.088 243.945L283.63 239.67L311.202 248.84Z" fill="#EFC4B0"/>
<path d="M311.202 248.84L306.61 258.356L282.088 243.945L283.63 239.67L311.202 248.84Z" fill="#EF9992"/>
<path d="M487.792 190.765C487.792 190.765 486.263 192.29 480.897 193.822L444.133 250.385C444.133 250.385 439.415 258.762 429.963 253.821C425.291 251.39 420.926 248.966 417.035 246.736C407.45 241.262 400.855 237.006 400.855 237.006L413.11 207.207L426.019 218.834L428.815 221.344L467.882 181.609L469.957 160.866C469.979 160.639 470.065 160.423 470.204 160.243C470.343 160.063 470.53 159.925 470.744 159.846C470.958 159.767 471.189 159.749 471.413 159.795C471.636 159.841 471.842 159.949 472.007 160.106C473.929 161.951 476.539 165.667 475.537 171.673L487.792 190.765Z" fill="#EFC4B0"/>
<path d="M426.019 218.82L417.035 246.722C407.45 241.248 400.855 236.993 400.855 236.993L413.11 207.193L426.019 218.82Z" fill="#EF9992"/>
<path d="M361.302 179.631C361.302 179.631 357.244 200.215 332.748 181.542L308.86 193.575C300.975 197.552 294.835 204.287 291.613 212.494L280.666 240.463L308.239 249.632C308.239 249.632 307.405 267.612 307.271 282.182C307.171 292.837 307.144 327.465 307.144 327.465C307.144 327.465 357.951 340.117 400.649 325.334C400.649 325.334 396.384 293.956 394.742 280.318C393.119 266.786 392.659 253.14 393.367 239.53L406.876 247.661L424.61 216.203L399.781 195.114C396.267 192.123 392.205 189.842 387.82 188.395L361.302 179.631Z" fill="#9FCC29"/>
<path d="M360.408 179.538C353.119 177.34 348.827 170.768 348.674 170.521C351.976 173.177 355.935 174.893 360.134 175.489L360.408 179.538Z" fill="#EF9992"/>
<path d="M733.764 88.7468H550.32V228.816H733.764V88.7468Z" fill="#E5E5E5"/>
<path d="M733.764 88.7468H550.32V102.505H733.764V88.7468Z" fill="#CECECE"/>
<path d="M569.169 169.762L562.32 182.741L551.601 175.05L550.319 174.124L542.824 168.743C539.407 168.077 534.441 164.655 534.441 164.655L546.869 156.49C546.869 156.49 541.456 144.884 540.775 143.232C540.529 142.596 540.425 141.915 540.468 141.234C540.473 141.052 540.53 140.875 540.633 140.725C540.736 140.574 540.881 140.457 541.049 140.386C541.218 140.316 541.403 140.296 541.583 140.328C541.763 140.36 541.93 140.444 542.063 140.568L551.715 149.605L556.166 162.257L557.455 163.003L569.169 169.762Z" fill="#EFC4B0"/>
<path d="M569.169 169.762L562.32 182.741L551.601 175.05L550.326 174.124L557.455 163.003L569.169 169.762Z" fill="#EF9992"/>
<path d="M696.132 148.34C693.616 137.019 685.019 132.79 679.272 130.766C671.156 127.903 668.64 124.819 667.438 121.217C663.641 109.843 658.948 107.379 657.3 106.44C648.102 101.186 637.016 107.033 633.458 111.428C625.075 121.783 637.236 135.281 637.236 135.281L636.982 141.561C624.394 155.625 634.72 167.431 634.72 167.431C649.21 177.007 670.762 173.971 681.682 171.514C684.339 170.92 686.829 169.742 688.97 168.064C691.111 166.386 692.849 164.252 694.057 161.818C695.905 158.075 697.247 153.334 696.132 148.34Z" fill="#290C0C"/>
<path d="M669.2 161.904L647.268 162.024L645.933 147.474L645.746 145.476C645.476 145.606 645.197 145.717 644.912 145.809C642.022 146.768 632.65 148.053 634.359 123.834C634.359 123.834 635.494 117.674 639.766 115.67C639.766 115.67 645.813 125.818 657.64 127.583C657.64 127.583 661.164 122.309 663.934 126.571C664.35 127.906 664.36 129.334 663.965 130.675C663.569 132.016 662.785 133.211 661.712 134.109L669.2 161.904Z" fill="#EFC4B0"/>
<path d="M703.188 228.822H629.273C629.894 226.631 632.817 216.117 632.911 212.234C632.911 210.903 632.324 205.742 631.903 202.372C631.783 201.426 631.683 200.627 631.616 200.095C631.549 199.562 631.523 199.369 631.523 199.369L631.276 199.515L626.79 202.492L610.644 213.2C610.378 213.381 610.099 213.543 609.81 213.686C606.82 215.111 604.657 214.978 602.241 213.719L550.567 185.451L558.616 163.403L602.154 184.086C602.154 184.086 627.071 159.447 629.04 158.155L645.606 149.352C648.015 162.197 665.997 143.672 665.997 143.672L679.733 148.42C692.415 152.648 696.546 162.524 696.573 162.604C702.2 176.248 712.632 217.209 712.632 217.209C712.632 217.209 714.114 225.899 703.188 228.822Z" fill="#4285F4"/>
<path d="M680.908 185.072L684.933 211.562L657.48 228.516L688.15 213.173L680.908 185.072Z" fill="#2967B2"/>
<path d="M603.069 149.299L592.022 138.777H563.322V118.986H608.115V138.777H603.062L603.069 149.299ZM565.331 136.779H592.81L601.053 144.63V136.779H606.106V120.984H565.317L565.331 136.779Z" fill="white"/>
<path d="M593.771 131.405C594.962 131.405 595.928 130.442 595.928 129.254C595.928 128.067 594.962 127.104 593.771 127.104C592.58 127.104 591.615 128.067 591.615 129.254C591.615 130.442 592.58 131.405 593.771 131.405Z" fill="white"/>
<path d="M585.842 131.405C587.033 131.405 587.998 130.442 587.998 129.254C587.998 128.067 587.033 127.104 585.842 127.104C584.651 127.104 583.686 128.067 583.686 129.254C583.686 130.442 584.651 131.405 585.842 131.405Z" fill="white"/>
<path d="M577.919 131.405C579.11 131.405 580.076 130.442 580.076 129.254C580.076 128.067 579.11 127.104 577.919 127.104C576.728 127.104 575.763 128.067 575.763 129.254C575.763 130.442 576.728 131.405 577.919 131.405Z" fill="white"/>
<path d="M631.276 199.515L626.79 202.492C623.667 191.977 628.125 180.87 628.365 180.357C626.904 189.713 629.52 196.339 631.276 199.515Z" fill="#2967B2"/>
<path d="M573.895 97.8898C575.137 97.8898 576.144 96.885 576.144 95.6456C576.144 94.4062 575.137 93.4015 573.895 93.4015C572.652 93.4015 571.645 94.4062 571.645 95.6456C571.645 96.885 572.652 97.8898 573.895 97.8898Z" fill="white"/>
<path d="M566.406 97.8898C567.648 97.8898 568.655 96.885 568.655 95.6456C568.655 94.4062 567.648 93.4015 566.406 93.4015C565.163 93.4015 564.156 94.4062 564.156 95.6456C564.156 96.885 565.163 97.8898 566.406 97.8898Z" fill="white"/>
<path d="M558.917 97.8898C560.159 97.8898 561.166 96.885 561.166 95.6456C561.166 94.4062 560.159 93.4015 558.917 93.4015C557.674 93.4015 556.667 94.4062 556.667 95.6456C556.667 96.885 557.674 97.8898 558.917 97.8898Z" fill="white"/>
<path d="M645.726 145.483C645.456 145.613 645.177 145.724 644.892 145.816C646.354 145.15 650.105 142.786 651.353 141.241C651.293 141.447 650.018 145.969 645.966 148.093L645.726 145.483Z" fill="#EF9992"/>
<path d="M198.429 356.738L179.473 294.335C179.304 293.776 179.268 293.184 179.368 292.608C179.468 292.032 179.702 291.487 180.051 291.018C180.4 290.548 180.854 290.166 181.377 289.903C181.901 289.639 182.478 289.502 183.064 289.501H277.843C278.649 289.502 279.433 289.761 280.08 290.241C280.726 290.721 281.201 291.395 281.434 292.164L300.39 354.574C300.561 355.134 300.599 355.726 300.499 356.302C300.399 356.879 300.165 357.424 299.816 357.894C299.467 358.364 299.012 358.746 298.488 359.009C297.964 359.272 297.386 359.409 296.799 359.409H202.02C201.214 359.407 200.429 359.146 199.782 358.665C199.136 358.185 198.661 357.509 198.429 356.738Z" fill="#010101"/>
<path d="M341.138 351.984H286.88V359.375H341.138V351.984Z" fill="#010101"/>
<path d="M194.184 356.738L175.228 294.335C175.058 293.776 175.022 293.184 175.122 292.608C175.223 292.032 175.457 291.487 175.806 291.018C176.154 290.548 176.609 290.166 177.132 289.903C177.655 289.639 178.233 289.502 178.819 289.501H273.598C274.403 289.503 275.187 289.763 275.833 290.242C276.479 290.722 276.955 291.395 277.189 292.164L296.145 354.574C296.316 355.134 296.353 355.726 296.253 356.302C296.154 356.879 295.92 357.424 295.571 357.894C295.221 358.364 294.767 358.746 294.243 359.009C293.719 359.272 293.14 359.409 292.554 359.409H197.775C196.968 359.408 196.183 359.148 195.536 358.667C194.889 358.186 194.415 357.509 194.184 356.738Z" fill="#CECECE"/>
<path d="M307.518 355.866H303.98V357.278H307.518V355.866Z" fill="white"/>
<path d="M316.015 355.866H312.477V357.278H316.015V355.866Z" fill="white"/>
<path d="M233.734 329.168C236.303 327.938 237.13 324.331 235.582 321.111C234.034 317.891 230.696 316.278 228.127 317.508C225.558 318.738 224.73 322.345 226.279 325.564C227.827 328.784 231.165 330.397 233.734 329.168Z" fill="white"/>
<path d="M564.643 588.584L566.465 366.76H554.177L556 588.584H564.643Z" fill="#CECECE"/>
<path d="M461.167 588.584L462.989 366.76H450.708L452.524 588.584H461.167Z" fill="#E5E5E5"/>
<path d="M240.138 588.584L241.954 366.76H229.673L231.495 588.584H240.138Z" fill="#CECECE"/>
<path d="M136.662 588.584L138.484 366.76H126.197L128.019 588.584H136.662Z" fill="#E5E5E5"/>
<path d="M486.063 359.535H117.459V374.165H486.063V359.535Z" fill="#E5E5E5"/>
<path d="M583.152 359.535H478.621V374.165H583.152V359.535Z" fill="#CECECE"/>
<path d="M730.306 588.005H63.5154V592H730.306V588.005Z" fill="#290C0C"/>
</svg>
