<svg width="420" height="204" viewBox="0 0 420 204" fill="none" xmlns="http://www.w3.org/2000/svg">
<path d="M70 102C70 121.33 54.33 137 35 137C15.67 137 0 121.33 0 102C0 82.67 15.67 67 35 67C54.33 67 70 82.67 70 102ZM11.1311 102C11.1311 115.182 21.8176 125.869 35 125.869C48.1824 125.869 58.8689 115.182 58.8689 102C58.8689 88.8176 48.1824 78.1311 35 78.1311C21.8176 78.1311 11.1311 88.8176 11.1311 102Z" fill="#7A72AD"/>
<path d="M346 35C346 54.33 330.33 70 311 70C291.67 70 276 54.33 276 35C276 15.67 291.67 0 311 0C330.33 0 346 15.67 346 35ZM287.131 35C287.131 48.1824 297.818 58.8689 311 58.8689C324.182 58.8689 334.869 48.1824 334.869 35C334.869 21.8176 324.182 11.1311 311 11.1311C297.818 11.1311 287.131 21.8176 287.131 35Z" fill="#FF8657"/>
<line x1="1.5" y1="-1.5" x2="29.3664" y2="-1.5" transform="matrix(0.712749 -0.701419 0.712749 0.701419 187 204)" stroke="#FEC200" stroke-width="3" stroke-linecap="round"/>
<line x1="1.5" y1="-1.5" x2="29.3664" y2="-1.5" transform="matrix(0.712749 0.701419 -0.712749 0.701419 185 182)" stroke="#9CB94F" stroke-width="3" stroke-linecap="round"/>
<line x1="1.5" y1="-1.5" x2="29.3664" y2="-1.5" transform="matrix(0.712749 -0.701419 0.712749 0.701419 398 167)" stroke="#FEC200" stroke-width="3" stroke-linecap="round"/>
<line x1="1.5" y1="-1.5" x2="29.3664" y2="-1.5" transform="matrix(0.712749 0.701419 -0.712749 0.701419 396 145)" stroke="#9CB94F" stroke-width="3" stroke-linecap="round"/>
</svg>
