<svg width="287" height="524" viewBox="0 0 287 524" fill="none" xmlns="http://www.w3.org/2000/svg">
<path opacity="0.15" d="M269.499 513.622C267.794 502.832 219.255 503.858 192.407 500.565C165.569 497.273 96.5527 499.745 78.2326 500.863C59.9125 501.981 11.3535 501.447 11.3535 513.622C11.3535 513.622 11.9495 523.243 31.2457 523.243C50.5419 523.243 235.13 524.946 245.497 523.243C255.875 521.541 271.205 524.413 269.499 513.622Z" fill="black"/>
<path d="M110.434 490.227V506.566C110.434 509.284 112.643 511.479 115.356 511.479H124.202L124.922 510.34C125.774 508.997 127.758 509.038 128.549 510.422L129.165 511.479H156.209C158.079 511.479 158.952 509.161 157.544 507.93L137.344 490.216H110.434V490.227Z" fill="#031162"/>
<path d="M149.581 473.877L147.588 490.103C147.259 492.801 149.181 495.252 151.873 495.581L160.647 496.657L161.5 495.622C162.517 494.391 164.47 494.678 165.096 496.145L165.569 497.273L192.407 500.565C194.267 500.791 195.417 498.606 194.174 497.201L176.296 477.159L149.581 473.877Z" fill="#031162"/>
<path d="M169.833 220.778L196.24 371.954L176.275 477.149L149.314 473.938C149.314 473.938 157.637 371.616 157.637 369.954C157.637 368.292 124.542 283.437 124.542 283.437L136.337 234.091L169.833 220.778Z" fill="#031162"/>
<path d="M80.2569 220.778C80.2569 220.778 73.7837 273.294 84.0997 321.788C94.4157 370.293 109.725 490.216 109.725 490.216H137.683C137.683 490.216 136.522 287.735 137.683 286.566C138.844 285.407 153.373 279.735 162.24 268.524C174.796 252.657 169.843 220.768 169.843 220.768H80.2569V220.778Z" fill="#1957C2"/>
<path d="M147.722 222.225H126.576V232.799H147.722V222.225Z" fill="#E6E7E8"/>
<path d="M82.3223 231.384H124.542" stroke="#000D41" stroke-width="1.2157" stroke-miterlimit="10" stroke-linecap="round"/>
<path d="M82.3223 223.671H124.542" stroke="#000D41" stroke-width="1.2157" stroke-miterlimit="10" stroke-linecap="round"/>
<path d="M149.088 231.384H168.539" stroke="#000D41" stroke-width="1.2157" stroke-miterlimit="10" stroke-linecap="round"/>
<path d="M149.088 223.671H168.539" stroke="#000D41" stroke-width="1.2157" stroke-miterlimit="10" stroke-linecap="round"/>
<path d="M196.168 124.548L209.402 196.634C209.402 196.634 212.793 208.029 206.936 210.501C201.069 212.963 179.081 210.501 179.081 210.501L177.437 214.05H172.176C172.176 214.05 167.11 202.696 169.741 199.516C172.371 196.336 180.725 195.413 180.725 195.413L168.025 131.718L196.168 124.548Z" fill="#FEBAC7"/>
<path d="M132.248 71.8072C132.248 71.8072 67.2184 68.5045 63.5913 71.8072C59.9746 75.1099 31.2666 127.769 31.2666 127.769C31.2666 127.769 33.075 131.646 42.1271 133.964C51.1793 136.292 81.7573 140.939 81.7573 140.939L75.2533 219.342C75.1095 221.127 76.5274 222.665 78.3152 222.655L171.282 222.255C172.947 222.245 174.313 220.922 174.375 219.26L177.642 132.938L205.313 120.548C205.313 120.548 188.246 80.023 184.629 78.2075C180.992 76.4023 132.248 71.8072 132.248 71.8072Z" fill="#FF654D"/>
<path d="M42.1271 133.881C44.1718 134.404 47.3159 135.05 50.9635 135.727C50.9327 134.497 49.7203 133.245 45.4151 132.773C35.6951 131.686 31.2666 127.686 31.2666 127.686C31.2666 127.686 33.075 131.563 42.1271 133.881Z" fill="#031162"/>
<path d="M158.438 26.1842C158.438 26.1842 156.476 34.759 155.983 40.8926C155.489 47.016 154.513 54.124 146.16 56.8215C137.817 59.5191 139.039 58.7806 139.039 58.7806C138.762 64.6886 142.04 67.981 144.403 72.9248L131.539 82.556L113.013 70.9453C113.013 70.9453 124.059 64.1655 120.873 56.8215C117.678 49.4674 113.013 29.1792 113.013 29.1792C113.013 29.1792 118.757 18.3172 129.206 16.2453C138.577 14.3786 152.386 20.9635 158.438 26.1842Z" fill="#FEBAC7"/>
<path d="M136.101 44.432C136.101 44.432 137.786 41.1395 141.978 41.5396C146.16 41.9396 149.294 40.7395 151.39 45.8782C151.39 45.8782 152.274 47.2424 153.003 47.0783C153.003 47.0783 148.903 48.9553 145.605 47.0885C142.307 45.232 142.225 47.704 138.844 47.9091C135.464 48.1142 134.015 46.8321 134.015 46.8321C134.015 46.8321 136.265 45.9603 136.101 44.432Z" fill="#031162"/>
<path d="M166.299 17.5381C166.299 17.5381 166.628 9.12746 159.497 6.54273C152.366 3.95799 145.728 4.27596 145.728 4.27596C145.728 4.27596 135.032 -1.54995 125.96 0.398855C116.887 2.33741 112.356 11.0763 112.356 11.0763C112.356 11.0763 104.742 18.1945 105.061 25.6308C105.389 33.067 111.698 37.6006 111.698 37.6006C111.698 37.6006 108.78 41.97 111.051 45.8471C111.647 46.8728 112.212 48.0216 112.695 49.1396C114.688 53.6936 117.637 57.7759 121.254 61.1914L121.336 61.2632L123.36 47.9498C123.36 47.9498 117.041 46.9754 117.205 38.7288C117.37 30.4823 120.935 31.4464 123.042 32.2567C123.843 32.5644 124.593 33.6517 125.21 34.8825C125.466 38.5339 126.114 40.8623 126.586 42.1444C126.607 42.4931 126.751 42.9034 127.131 43.3649C127.131 43.3649 127.193 43.5496 127.285 43.847C127.439 46.3189 121.613 54.309 127.131 59.0477C133.08 64.1659 145.821 62.1863 151.606 59.0477C157.39 55.9091 155.264 46.3394 155.264 46.3394C154.544 51.7858 148.79 52.4423 146.807 51.9807C144.824 51.5192 142.009 50.1345 139.861 51.5089C138.115 52.6269 133.871 51.4576 132.33 50.9755C131.981 50.8627 131.714 50.5755 131.642 50.2165C131.642 50.2165 131.642 50.2165 131.642 50.2063C132.104 46.9856 129.967 42.7803 129.268 40.9956C128.662 39.4673 128.097 34.0414 127.881 31.8875C128.477 30.4925 129.381 29.3027 130.789 28.7591L130.47 21.7742C130.47 21.7742 142.615 23.6204 147.444 23.4563C152.274 23.2922 158.017 25.8154 158.017 25.8154L157.668 29.7951C157.668 29.8156 173.101 23.0358 166.299 17.5381Z" fill="#031162"/>
<path d="M79.877 83.8799C79.877 83.8799 89.1038 98.1677 83.1752 136.19" stroke="#000D41" stroke-width="1.1995" stroke-miterlimit="10" stroke-linecap="round"/>
<path d="M180.735 89.1411L177.437 126.979" stroke="#000D41" stroke-width="1.1995" stroke-miterlimit="10" stroke-linecap="round"/>
<path d="M110.054 73.0278L116.743 87.2541L126.926 81.7359" stroke="#000D41" stroke-width="1.1995" stroke-miterlimit="10" stroke-linecap="round"/>
<path d="M135.577 82.5569L143.499 87.2546L147.147 74.9155" stroke="#000D41" stroke-width="1.1995" stroke-miterlimit="10" stroke-linecap="round"/>
<path d="M133.543 88.3312C133.656 89.6748 132.649 90.8441 131.313 90.9569C129.967 91.0697 128.796 90.0646 128.682 88.7312C128.569 87.3875 129.576 86.2182 130.912 86.1054C132.258 85.9926 133.429 86.9875 133.543 88.3312Z" stroke="#000D41" stroke-width="1.1995" stroke-miterlimit="10" stroke-linecap="round"/>
<path d="M133.543 96.5987C133.656 97.9424 132.649 99.1117 131.313 99.2245C129.967 99.3373 128.796 98.3321 128.682 96.9987C128.569 95.6551 129.576 94.4858 130.912 94.373C132.258 94.2602 133.429 95.2551 133.543 96.5987Z" stroke="#000D41" stroke-width="1.1995" stroke-miterlimit="10" stroke-linecap="round"/>
<path d="M45.4048 132.774C45.4048 132.774 48.8674 205.998 51.9807 210.829C55.094 215.66 142.995 210.829 142.995 210.829C142.995 210.829 150.003 214.501 154.113 212.983C158.233 211.455 159.682 211.219 159.682 211.219L161.706 214.05L164.254 213.783L162.898 206.972H164.254L165.744 214.05H168.734L167.84 206.819H168.734L169.782 214.05H172.176L173.07 202.644C173.07 202.644 169.227 197.085 168.025 197.085C166.833 197.085 163.391 197.741 161.233 196.88C158.048 195.608 158.11 196.521 156.024 197.864C153.928 199.208 140.766 199.803 140.766 199.803L79.877 191.895L82.5176 140.385C82.5176 140.385 70.3008 130.395 45.4048 132.774Z" fill="#FEBAC7"/>
<path d="M23.6526 511.807H20.7551L15.854 215.476H28.5435L23.6526 511.807Z" fill="#9E8FAE"/>
<path d="M28.5435 215.476H15.854L16.1314 229.538L28.4407 220.943L28.5435 215.476Z" fill="#031162"/>
<path d="M253.306 511.807H250.409L245.508 215.476H258.197L253.306 511.807Z" fill="#9E8FAE"/>
<path d="M258.197 215.476H245.508L245.785 229.538L258.095 220.943L258.197 215.476Z" fill="#031162"/>
<path d="M277.493 218.173H2.69202C1.20216 218.173 0 216.973 0 215.486C0 213.999 1.20216 212.799 2.69202 212.799H277.493C278.983 212.799 280.185 213.999 280.185 215.486C280.185 216.963 278.973 218.173 277.493 218.173Z" fill="#9E8FAE"/>
<path d="M149.797 212.788H238.695C240.997 212.788 242.867 210.922 242.867 208.624H145.615C145.615 210.922 147.485 212.788 149.797 212.788Z" fill="#A8A1A6"/>
<path d="M161.233 212.788H258.998C261.3 212.788 263.17 210.922 263.17 208.624H166.144C165.343 210.46 164.367 212.788 161.233 212.788Z" fill="#FDFDFF"/>
<path d="M177.354 211.67H181.012C181.464 211.67 181.834 211.301 181.834 210.849C181.834 210.398 181.464 210.029 181.012 210.029H177.354C176.902 210.029 176.532 210.398 176.532 210.849C176.522 211.301 176.892 211.67 177.354 211.67Z" fill="#BCBEC0"/>
<path d="M173.512 210.839C173.512 211.29 173.882 211.66 174.334 211.66C174.786 211.66 175.156 211.29 175.156 210.839C175.156 210.388 174.786 210.019 174.334 210.019C173.882 210.019 173.512 210.388 173.512 210.839Z" fill="#BCBEC0"/>
<path d="M282.898 154.037H196.62C193.897 154.037 191.41 155.596 190.229 158.047L165.918 208.624H263.17L286.587 159.904C287.902 157.185 285.919 154.037 282.898 154.037Z" fill="#FDFDFF"/>
<path d="M196.764 154.037H194.185C191.462 154.037 188.975 155.596 187.794 158.047L163.483 208.624H166.062L190.373 158.047C191.554 155.596 194.041 154.037 196.764 154.037Z" fill="#D1C8CE"/>
</svg>
