<svg width="100" height="100" viewBox="0 0 100 100" fill="none" xmlns="http://www.w3.org/2000/svg">
<circle cx="50" cy="50" r="50" fill="#E9F8FF"/>
<path d="M74.9489 28.8196C74.5645 26.5076 72.878 25 70.677 25C56.8939 25 43.1108 25 29.3339 25C28.9991 25 28.6705 25.0203 28.3481 25.1014C26.3268 25.5746 25 27.3729 25 29.6579C25 36.1682 25 42.6785 25 49.1887C25 54.7188 25 60.2488 25 65.7788C25 67.3675 25.5642 68.6385 26.7299 69.5849C27.4677 70.1798 28.3047 70.4435 29.2223 70.4435C34.2755 70.4435 39.3287 70.4435 44.3757 70.4435C44.7911 70.4435 44.7911 70.4435 44.7911 70.91C44.7911 71.3967 44.7663 71.8834 44.7973 72.3634C44.8159 72.6812 44.7105 72.7217 44.4563 72.7217C43.2038 72.7082 41.9576 72.715 40.7051 72.715C40.0541 72.715 39.5953 73.1814 39.5829 73.8372C39.5767 74.5065 40.0355 75 40.6989 75C46.8991 75 53.0932 75 59.2934 75C59.5042 75 59.7026 74.9594 59.8886 74.8445C60.304 74.5876 60.5086 74.0671 60.3908 73.5736C60.2668 73.0598 59.87 72.715 59.3678 72.715C58.0657 72.7082 56.7637 72.7082 55.4616 72.7217C55.2632 72.7217 55.2012 72.6677 55.2074 72.4446C55.2198 71.9037 55.2322 71.3629 55.2074 70.8221C55.195 70.5178 55.2756 70.4367 55.5546 70.4367C59.777 70.4502 64.0055 70.4435 68.2279 70.4435C68.3395 70.4435 68.4573 70.4502 68.5689 70.4367C69.0525 70.3826 69.4183 69.9703 69.4803 69.4429C69.5547 68.8345 69.1393 68.1585 68.2651 68.1585C55.2818 68.172 42.2924 68.172 29.3091 68.172C27.9637 68.172 27.0771 67.2052 27.0771 65.745C27.0771 64.4064 27.0833 63.0611 27.0709 61.7226C27.0647 61.4319 27.1267 61.3507 27.4057 61.3507C34.9265 61.3575 42.4474 61.3575 49.9683 61.3575C57.5077 61.3575 65.0534 61.3575 72.5928 61.3507C72.8718 61.3507 72.9338 61.4251 72.9276 61.7226C72.909 62.7366 72.9152 63.7507 72.9214 64.7647C72.9276 65.4813 73.4298 65.9613 74.0809 65.8937C74.6575 65.8396 74.9985 65.3461 74.9985 64.5687C74.9985 52.934 74.9985 41.2994 74.9985 29.6579C75.0047 29.3807 74.9923 29.09 74.9489 28.8196ZM47.1224 70.4435C48.0834 70.4502 49.0382 70.4502 49.9993 70.4502C50.9355 70.4502 51.8779 70.457 52.8141 70.4435C53.0374 70.4435 53.1428 70.4773 53.1304 70.768C53.1056 71.3291 53.118 71.8902 53.1242 72.4513C53.1242 72.6406 53.1056 72.7217 52.8947 72.7217C50.9665 72.715 49.0382 72.715 47.11 72.7217C46.9115 72.7217 46.8743 72.6541 46.8743 72.4581C46.8867 71.8767 46.8867 71.2885 46.8743 70.7071C46.8743 70.484 46.9363 70.4367 47.1224 70.4435ZM72.63 59.0589C72.5184 59.0657 72.4068 59.0792 72.289 59.0792C57.4333 59.0792 42.5714 59.0792 27.7157 59.0792C27.6041 59.0792 27.4925 59.0657 27.3747 59.0589C27.1453 59.1333 27.0709 59.0522 27.0709 58.7818C27.0771 49.0603 27.0709 39.3388 27.0771 29.6241C27.0771 28.2315 28.0009 27.285 29.3277 27.285C42.0444 27.285 54.761 27.285 67.4776 27.285C68.5503 27.285 69.6291 27.285 70.7018 27.285C72.0348 27.285 72.9214 28.2518 72.9214 29.6917C72.9214 39.3794 72.9214 49.0671 72.9276 58.748C72.9276 59.0049 72.8966 59.1468 72.63 59.0589Z" fill="#54CAFF"/>
<path d="M48.9142 63.6358C48.3375 63.6493 47.9035 64.1699 47.9097 64.7783C47.9221 65.3935 48.3623 65.8803 48.939 65.8938C49.2924 65.9006 49.6396 65.8938 49.993 65.8938C50.3464 65.8938 50.6936 65.9006 51.047 65.8938C51.6423 65.8803 52.0949 65.3935 52.0949 64.7648C52.0949 64.1564 51.6609 63.6493 51.078 63.6358C50.3588 63.6155 49.6334 63.6155 48.9142 63.6358Z" fill="#54CAFF"/>
<path d="M72.5121 67.6379C71.9479 67.6379 71.4829 68.1382 71.4829 68.7466C71.4829 69.4024 71.9479 69.9162 72.5369 69.9094C73.1198 69.9027 73.5724 69.4024 73.5662 68.7602C73.5662 68.1314 73.1012 67.6379 72.5121 67.6379Z" fill="#54CAFF"/>
<path d="M67.6079 54.5363C61.7425 54.5363 55.8709 54.5363 50.0055 54.5363C44.1711 54.5363 38.3305 54.5363 32.4961 54.5363C32.4031 54.5363 32.3101 54.5295 32.2171 54.5363C31.6963 54.5836 31.2995 55.023 31.2561 55.5909C31.2127 56.1452 31.5351 56.6252 32.0373 56.774C32.2109 56.828 32.3845 56.8145 32.5581 56.8145C44.1897 56.8145 55.8213 56.8145 67.4529 56.8145C67.5583 56.8145 67.6575 56.8213 67.7629 56.8145C68.2528 56.7807 68.6496 56.4021 68.7364 55.8884C68.8604 55.1312 68.3706 54.5363 67.6079 54.5363Z" fill="#54CAFF"/>
<path d="M31.9442 31.7671C32.1364 31.8415 32.3286 31.828 32.527 31.828C38.3552 31.828 44.1772 31.828 50.0054 31.828C55.8026 31.828 61.5936 31.828 67.3908 31.828C67.5272 31.828 67.6574 31.8347 67.7938 31.8212C68.3456 31.7806 68.7672 31.2736 68.7548 30.6719C68.7362 29.9688 68.2898 29.5565 67.5458 29.5565C55.8522 29.5565 44.1586 29.5565 32.465 29.5565C32.3596 29.5565 32.2604 29.5565 32.155 29.57C31.6713 29.6376 31.3117 30.0432 31.2621 30.5773C31.2125 31.1114 31.4853 31.5778 31.9442 31.7671Z" fill="#54CAFF"/>
<path d="M31.3056 45.5855C31.6528 47.6272 33.2834 48.9792 35.2241 48.8576C37.0036 48.7426 38.5164 47.0999 38.5722 45.092C38.628 42.9422 38.5908 40.7924 38.5846 38.6426C38.5846 38.122 38.2932 37.7232 37.8716 37.5677C37.171 37.3108 36.4952 37.8651 36.4952 38.7102C36.489 40.7383 36.489 42.7664 36.4952 44.7878C36.4952 45.0244 36.4766 45.261 36.396 45.4841C36.1231 46.2616 35.4039 46.701 34.6289 46.559C33.8911 46.4238 33.3392 45.7207 33.3392 44.8622C33.333 42.8476 33.3392 40.8329 33.3392 38.8183C33.3392 38.0206 32.9362 37.5068 32.3038 37.5001C31.6714 37.4933 31.256 38.0071 31.2498 38.7981C31.2498 39.8324 31.2498 40.8668 31.2498 41.9079C31.2498 42.5366 31.2436 43.1721 31.2498 43.8008C31.256 44.3889 31.2002 44.9906 31.3056 45.5855Z" fill="#54CAFF"/>
<path d="M57.4953 45.3487C57.6751 47.3025 59.25 48.8439 61.0729 48.8574C62.9701 48.8709 64.576 47.3836 64.7682 45.3825C64.8798 44.213 64.7806 43.0434 64.8116 42.097C64.8116 40.8125 64.8116 39.7579 64.8116 38.6965C64.8116 38.1557 64.545 37.723 64.1234 37.5607C63.4227 37.2903 62.7221 37.8312 62.7159 38.6627C62.7097 40.7111 62.7159 42.7595 62.7159 44.8079C62.7159 45.5921 62.3191 46.2208 61.6743 46.471C60.6265 46.8766 59.5662 46.0518 59.56 44.8079C59.5538 42.773 59.56 40.7314 59.56 38.6965C59.56 38.1489 59.3058 37.7297 58.8842 37.5607C58.165 37.27 57.4705 37.8312 57.4705 38.7235C57.4643 40.1094 57.4643 41.4953 57.4705 42.8812C57.4705 43.706 57.4209 44.5307 57.4953 45.3487Z" fill="#54CAFF"/>
<path d="M40.5873 47.1607C40.2711 47.8502 40.5439 48.5803 41.1702 48.8102C41.6786 48.9927 42.1808 48.7629 42.4412 48.2085C42.8256 47.3973 43.1976 46.5793 43.5944 45.7275C43.9789 46.559 44.3509 47.35 44.7105 48.1409C44.8407 48.4249 45.0143 48.648 45.2809 48.7764C45.6777 48.9657 46.1489 48.8575 46.4465 48.5127C46.7503 48.1612 46.8247 47.6677 46.6139 47.2012C46.0621 45.9844 45.5041 44.7675 44.9275 43.5641C44.7911 43.2802 44.8035 43.0706 44.9399 42.7934C45.5041 41.6171 46.0435 40.4341 46.5891 39.2442C46.8868 38.5952 46.7069 37.9192 46.1613 37.6285C45.6095 37.331 45.0329 37.5609 44.7229 38.2234C44.3509 39.0144 43.9851 39.8053 43.5944 40.6504C43.2038 39.8053 42.8256 39.0076 42.4598 38.2031C42.3234 37.9057 42.1312 37.6893 41.846 37.5744C41.443 37.4189 40.9966 37.5406 40.7175 37.8921C40.4137 38.2842 40.3641 38.7237 40.5749 39.1766C41.1392 40.4138 41.7096 41.6509 42.2862 42.8813C42.3916 43.1044 42.3916 43.2734 42.2862 43.5033C41.7096 44.7134 41.1454 45.937 40.5873 47.1607Z" fill="#54CAFF"/>
<path d="M54.1099 34.9446C52.3801 40.1839 50.6564 45.4232 48.9328 50.6625C48.8832 50.8113 48.8522 50.9667 48.8336 51.0411C48.8212 51.6698 49.1932 52.1566 49.7078 52.258C50.2162 52.3661 50.6812 52.0552 50.8796 51.4603C52.6157 46.2142 54.3455 40.9613 56.0754 35.7085C56.3048 35.0122 56.0568 34.3902 55.474 34.1604C54.9036 33.9373 54.3393 34.255 54.1099 34.9446Z" fill="#54CAFF"/>
<path d="M68.7735 38.6223C68.7673 38.602 68.7549 38.5817 68.7549 38.5614C68.6309 37.8516 68.1907 37.4459 67.6079 37.5068C67.0436 37.5676 66.6716 38.0544 66.6716 38.7575C66.6716 41.7185 66.6716 44.6796 66.6716 47.6406C66.6716 47.8367 66.684 48.0192 66.7646 48.2018C66.9692 48.6885 67.4591 48.9589 67.9427 48.844C68.4263 48.7358 68.7549 48.2761 68.7549 47.688C68.7549 44.8756 68.7549 42.0565 68.7549 39.2442C68.7549 39.1225 68.7673 39.0008 68.7735 38.8792C68.7425 38.7913 68.7363 38.7034 68.7735 38.6223Z" fill="#54CAFF"/>
</svg>
