<svg width="100" height="100" viewBox="0 0 100 100" fill="none" xmlns="http://www.w3.org/2000/svg">
<circle cx="50" cy="50" r="50" fill="#FFE1D9"/>
<path d="M60.6 48.775L64.525 44.85L55.15 35.475L51.225 39.4L40.875 29.075C38.925 27.125 35.75 27.125 33.8 29.075L29.05 33.825C27.1 35.775 27.1 38.95 29.05 40.9L39.375 51.225L27.5 63.125V72.5H36.875L48.775 60.6L59.1 70.925C61.475 73.3 64.675 72.425 66.175 70.925L70.925 66.175C72.875 64.225 72.875 61.05 70.925 59.1L60.6 48.775ZM42.95 47.675L32.6 37.35L37.325 32.6L40.5 35.775L37.55 38.75L41.075 42.275L44.05 39.3L47.675 42.925L42.95 47.675ZM62.65 67.4L52.325 57.075L57.075 52.325L60.7 55.95L57.725 58.925L61.25 62.45L64.225 59.475L67.4 62.65L62.65 67.4Z" fill="#FF8765"/>
<path d="M71.7752 37.6C72.7502 36.625 72.7502 35.05 71.7752 34.075L65.9252 28.225C64.7502 27.05 63.1252 27.5 62.4002 28.225L57.8252 32.8L67.2002 42.175L71.7752 37.6Z" fill="#FF8765"/>
</svg>
