<svg width="100" height="100" viewBox="0 0 100 100" fill="none" xmlns="http://www.w3.org/2000/svg">
<circle cx="50" cy="50" r="50" fill="#FFF9E6"/>
<path d="M72.5 25H27.5C24.75 25 22.5 27.25 22.5 30V60C22.5 62.75 24.75 65 27.5 65H45V70H40V75H60V70H55V65H72.5C75.25 65 77.5 62.75 77.5 60V30C77.5 27.25 75.25 25 72.5 25ZM72.5 60H27.5V30H72.5V60Z" fill="#FFD857"/>
<path fill-rule="evenodd" clip-rule="evenodd" d="M61.6331 44.1429L55.4497 37.8823C55.161 37.5916 54.7686 37.4274 54.3589 37.426C53.9491 37.4245 53.5556 37.5859 53.2649 37.8746C52.9741 38.1633 52.8099 38.5557 52.8085 38.9654C52.8071 39.3752 52.9684 39.7687 53.2571 40.0595L56.0291 42.8778C56.0531 42.9 57.2429 44.1412 57.2429 44.1412C57.3829 44.2452 57.4967 44.3805 57.5751 44.5363C57.6535 44.6922 57.6943 44.8642 57.6943 45.0386C57.6943 45.2131 57.6535 45.3851 57.5751 45.5409C57.4967 45.6967 57.3829 45.8321 57.2429 45.936L56.0189 47.1463L55.0469 48.1063L53.1714 49.9389C52.8811 50.2285 52.7178 50.6216 52.7173 51.0317C52.7168 51.4417 52.8792 51.8352 53.1689 52.1255C53.4585 52.4158 53.8515 52.5791 54.2616 52.5796C54.6717 52.5801 55.0651 52.4177 55.3554 52.128L61.6246 45.936C61.8629 45.6991 61.9977 45.3773 61.9993 45.0412C62.0009 44.7052 61.8692 44.3821 61.6331 44.1429Z" fill="#FFD857"/>
<path fill-rule="evenodd" clip-rule="evenodd" d="M44 42.8538L44.972 41.892L46.8286 40.0612C46.9723 39.9178 47.0864 39.7475 47.1643 39.56C47.2423 39.3725 47.2825 39.1715 47.2827 38.9684C47.283 38.7654 47.2432 38.5643 47.1657 38.3766C47.0882 38.1889 46.9746 38.0184 46.8312 37.8746C46.6878 37.7309 46.5174 37.6168 46.3299 37.5389C46.1425 37.4609 45.9414 37.4207 45.7384 37.4205C45.3283 37.42 44.9349 37.5824 44.6446 37.872L38.3754 44.064C38.1371 44.301 38.0024 44.6227 38.0007 44.9588C37.9991 45.2949 38.1308 45.618 38.3669 45.8572L44.5503 52.116C44.6933 52.26 44.8632 52.3744 45.0503 52.4527C45.2375 52.531 45.4382 52.5717 45.6411 52.5724C45.844 52.5731 46.0451 52.5339 46.2328 52.4569C46.4205 52.3799 46.5912 52.2667 46.7352 52.1238C46.8791 51.9808 46.9935 51.8109 47.0718 51.6237C47.1501 51.4366 47.1908 51.2358 47.1915 51.0329C47.1922 50.83 47.153 50.629 47.076 50.4413C46.999 50.2536 46.8858 50.0829 46.7429 49.9389L43.976 47.1223L42.7623 45.8572C42.6222 45.7532 42.5085 45.6179 42.4301 45.462C42.3517 45.3062 42.3108 45.1342 42.3108 44.9598C42.3108 44.7853 42.3517 44.6133 42.4301 44.4575C42.5085 44.3016 42.6222 44.1663 42.7623 44.0623L44 42.8538Z" fill="#FFD857"/>
</svg>
